<svg width="40" height="40" viewBox="0 0 40 40" fill="none" xmlns="http://www.w3.org/2000/svg">
<path d="M28.4 26C29.852 26 32 25.04 32 22.4C32 19.76 29.852 18.8 28.4 18.8H26V16.4H28.4C31.04 16.4 32 14.252 32 12.8C32 10.16 29.852 9.2 28.4 9.2H26V8H24.8V9.2H15.2V8H14V9.2H8V11.6H14V14H11.6C10.148 14 8 14.96 8 17.6C8 20.24 10.148 21.2 11.6 21.2H14V23.6H11.6C10.148 23.6 8 24.56 8 27.2C8 29.84 10.148 30.8 11.6 30.8H14V32H15.2V30.8H24.8V32H26V30.8H32V28.4H26V26H28.4ZM28.4 21.2C28.94 21.2 29.6 21.428 29.6 22.4C29.6 23.372 28.94 23.6 28.4 23.6H26V21.2H28.4ZM24.8 18.8H15.2V16.4H24.8V18.8ZM28.4 11.6C28.94 11.6 29.6 11.84 29.6 12.8C29.6 13.34 29.372 14 28.4 14H26V11.6H28.4ZM15.2 11.6H24.8V14H15.2V11.6ZM11.6 18.8C11.06 18.8 10.4 18.572 10.4 17.6C10.4 16.628 11.06 16.4 11.6 16.4H14V18.8H11.6ZM15.2 21.2H24.8V23.6H15.2V21.2ZM11.6 28.4C11.06 28.4 10.4 28.172 10.4 27.2C10.4 26.228 11.06 26 11.6 26H14V28.4H11.6ZM24.8 28.4H15.2V26H24.8V28.4Z" fill="black" fill-opacity="0.16"/>
<rect x="1" y="1" width="38" height="38" rx="19" stroke="black" stroke-opacity="0.16" stroke-width="2"/>
</svg>
