<svg width="40" height="40" viewBox="0 0 40 40" fill="none" xmlns="http://www.w3.org/2000/svg">
<path d="M9.2 27.4258V30.1258H30.8V27.4258H9.2ZM13.25 12.5758V9.87578C13.25 9.13328 13.5146 8.49743 14.0438 7.96823C14.5721 7.43993 15.2075 7.17578 15.95 7.17578H24.05C24.7925 7.17578 25.4284 7.43993 25.9576 7.96823C26.4859 8.49743 26.75 9.13328 26.75 9.87578V12.5758H30.8C31.5425 12.5758 32.1784 12.8404 32.7076 13.3696C33.2359 13.8979 33.5 14.5333 33.5 15.2758V30.1258C33.5 30.8683 33.2359 31.5041 32.7076 32.0333C32.1784 32.5616 31.5425 32.8258 30.8 32.8258H9.2C8.4575 32.8258 7.8221 32.5616 7.2938 32.0333C6.7646 31.5041 6.5 30.8683 6.5 30.1258V15.2758C6.5 14.5333 6.7646 13.8979 7.2938 13.3696C7.8221 12.8404 8.4575 12.5758 9.2 12.5758H13.25ZM9.2 23.3758H30.8V15.2758H26.75V16.6595C26.75 17.042 26.6204 17.357 26.3612 17.6045C26.1029 17.852 25.7825 17.9758 25.4 17.9758C25.0175 17.9758 24.6971 17.8462 24.4388 17.587C24.1796 17.3287 24.05 17.0083 24.05 16.6258V15.2758H15.95V16.6595C15.95 17.042 15.8209 17.357 15.5626 17.6045C15.3034 17.852 14.9825 17.9758 14.6 17.9758C14.2175 17.9758 13.8967 17.8462 13.6375 17.587C13.3792 17.3287 13.25 17.0083 13.25 16.6258V15.2758H9.2V23.3758ZM15.95 12.5758H24.05V9.87578H15.95V12.5758ZM9.2 30.1258V15.2758V30.1258Z" fill="black" fill-opacity="0.16"/>
<rect x="1" y="1" width="38" height="38" rx="19" stroke="black" stroke-opacity="0.16" stroke-width="2"/>
</svg>
