<svg width="40" height="40" viewBox="0 0 40 40" fill="none" xmlns="http://www.w3.org/2000/svg">
<path d="M22.8 17.9V14.4M17.2 17.9V14.4M20 34C27.7322 34 34 27.7322 34 20C34 12.2678 27.7322 6 20 6C12.2678 6 6 12.2678 6 20C6 27.7322 12.2678 34 20 34Z" stroke="black" stroke-opacity="0.16" stroke-width="2" stroke-linecap="round" stroke-linejoin="round"/>
<path d="M19.9994 33.9984V25.5984M19.9994 25.5984C21.4846 25.5984 22.909 25.0084 23.9592 23.9582C25.0094 22.908 25.5994 21.4837 25.5994 19.9984V17.8984H14.3994V19.9984C14.3994 21.4837 14.9894 22.908 16.0396 23.9582C17.0898 25.0084 18.5142 25.5984 19.9994 25.5984Z" stroke="black" stroke-opacity="0.16" stroke-width="2" stroke-linecap="round" stroke-linejoin="round"/>
<rect x="1" y="1" width="38" height="38" rx="19" stroke="black" stroke-opacity="0.16" stroke-width="2"/>
</svg>
