<?xml version="1.0" encoding="UTF-8" standalone="no"?>
<svg
   width="40"
   height="40"
   viewBox="0 0 40 40"
   fill="none"
   version="1.1"
   id="svg6"
   sodipodi:docname="accept-icon.svg"
   inkscape:version="1.1.1 (3bf5ae0d25, 2021-09-20)"
   xmlns:inkscape="http://www.inkscape.org/namespaces/inkscape"
   xmlns:sodipodi="http://sodipodi.sourceforge.net/DTD/sodipodi-0.dtd"
   xmlns="http://www.w3.org/2000/svg"
   xmlns:svg="http://www.w3.org/2000/svg">
  <defs
     id="defs10" />
  <sodipodi:namedview
     id="namedview8"
     pagecolor="#ffffff"
     bordercolor="#666666"
     borderopacity="1.0"
     inkscape:pageshadow="2"
     inkscape:pageopacity="0.0"
     inkscape:pagecheckerboard="0"
     showgrid="false"
     inkscape:zoom="21.825"
     inkscape:cx="20"
     inkscape:cy="20"
     inkscape:window-width="2498"
     inkscape:window-height="1417"
     inkscape:window-x="1974"
     inkscape:window-y="-8"
     inkscape:window-maximized="1"
     inkscape:current-layer="svg6" />
  <path
     d="m 25.1674,2.17744 1.555,1.5925 2.225,-0.0275 c 0.9632,-0.0114 1.9188,0.1699 2.8109,0.53322 0.892,0.36333 1.7024,0.90135 2.3835,1.58243 0.6811,0.68108 1.2191,1.49147 1.5824,2.38351 0.3633,0.89203 0.5446,1.8477 0.5332,2.8108 l -0.025,2.225 1.59,1.555 c 0.6887,0.673 1.2359,1.4768 1.6095,2.3642 0.3736,0.8874 0.566,1.8405 0.566,2.8033 0,0.9629 -0.1924,1.916 -0.566,2.8034 -0.3736,0.8874 -0.9208,1.6912 -1.6095,2.3641 l -1.5925,1.555 0.0275,2.225 c 0.0114,0.9632 -0.1699,1.9188 -0.5332,2.8109 -0.3633,0.892 -0.9013,1.7024 -1.5824,2.3835 -0.6811,0.6811 -1.4915,1.2191 -2.3835,1.5824 -0.8921,0.3633 -1.8477,0.5446 -2.8109,0.5332 l -2.225,-0.025 -1.555,1.59 c -0.6729,0.6887 -1.4767,1.2359 -2.3641,1.6095 -0.8874,0.3736 -1.8405,0.566 -2.8034,0.566 -0.9628,0 -1.9159,-0.1924 -2.8033,-0.566 -0.8874,-0.3736 -1.6912,-0.9208 -2.3642,-1.6095 l -1.555,-1.5925 -2.225,0.0275 C 10.0893,36.2688 9.13363,36.0875 8.2416,35.7242 7.34956,35.3609 6.53917,34.8229 5.85809,34.1418 5.17701,33.4607 4.63899,32.6503 4.27566,31.7583 3.91234,30.8662 3.73104,29.9106 3.74244,28.9474 l 0.025,-2.225 -1.59,-1.555 C 1.48879,24.4945 0.941593,23.6907 0.567999,22.8033 0.194405,21.9159 0.00195312,20.9628 0.00195312,19.9999 c 0,-0.9628 0.19245188,-1.9159 0.56604588,-2.8033 0.373594,-0.8874 0.920791,-1.6912 1.609441,-2.3642 l 1.5925,-1.555 -0.0275,-2.225 C 3.73104,10.0893 3.91234,9.13363 4.27566,8.2416 4.63899,7.34956 5.17701,6.53917 5.85809,5.85809 6.53917,5.17701 7.34956,4.63899 8.2416,4.27566 9.13363,3.91234 10.0893,3.73104 11.0524,3.74244 l 2.225,0.025 1.555,-1.59 c 0.673,-0.68865 1.4768,-1.235847 2.3642,-1.609441 0.8874,-0.373594 1.8405,-0.56604588 2.8033,-0.56604588 0.9629,0 1.916,0.19245188 2.8034,0.56604588 0.8874,0.373594 1.6912,0.920791 2.3641,1.609441 z"
     fill="#217438"
     id="path4"
     sodipodi:nodetypes="ccccsscccsssccccsccccssscccssccccsssccccsccccssscc" />
  <path
     fill-rule="evenodd"
     clip-rule="evenodd"
     d="M25.8846 15.3648C26.001 15.4809 26.0934 15.6188 26.1564 15.7707C26.2194 15.9226 26.2519 16.0854 26.2519 16.2498C26.2519 16.4142 26.2194 16.577 26.1564 16.7289C26.0934 16.8807 26.001 17.0187 25.8846 17.1348L18.3846 24.6348C18.2685 24.7512 18.1306 24.8436 17.9787 24.9066C17.8268 24.9696 17.664 25.002 17.4996 25.002C17.3352 25.002 17.1724 24.9696 17.0205 24.9066C16.8687 24.8436 16.7307 24.7512 16.6146 24.6348L12.8646 20.8848C12.7484 20.7686 12.6562 20.6306 12.5933 20.4788C12.5304 20.3269 12.498 20.1642 12.498 19.9998C12.498 19.8354 12.5304 19.6727 12.5933 19.5208C12.6562 19.369 12.7484 19.231 12.8646 19.1148C12.9808 18.9986 13.1188 18.9064 13.2707 18.8435C13.4225 18.7806 13.5853 18.7482 13.7496 18.7482C13.914 18.7482 14.0767 18.7806 14.2286 18.8435C14.3804 18.9064 14.5184 18.9986 14.6346 19.1148L17.4996 21.9823L24.1146 15.3648C24.2307 15.2484 24.3687 15.156 24.5205 15.093C24.6724 15.03 24.8352 14.9976 24.9996 14.9976C25.164 14.9976 25.3268 15.03 25.4787 15.093C25.6306 15.156 25.7685 15.2484 25.8846 15.3648V15.3648Z"
     fill="#217438"
     id="path2"
     style="fill:#ffffff;fill-opacity:1" />
</svg>
