<svg width="20" height="21" viewBox="0 0 20 21" fill="none" xmlns="http://www.w3.org/2000/svg">
<path fill-rule="evenodd" clip-rule="evenodd" d="M1.24986 10.4998C1.24986 10.6656 1.31571 10.8245 1.43292 10.9418C1.55013 11.059 1.7091 11.1248 1.87486 11.1248L16.6161 11.1248L12.6824 15.0573C12.565 15.1747 12.4991 15.3338 12.4991 15.4998C12.4991 15.6658 12.565 15.825 12.6824 15.9423C12.7997 16.0597 12.9589 16.1256 13.1249 16.1256C13.2908 16.1256 13.45 16.0597 13.5674 15.9423L18.5674 10.9423C18.6256 10.8843 18.6717 10.8153 18.7033 10.7394C18.7348 10.6634 18.751 10.582 18.751 10.4998C18.751 10.4176 18.7348 10.3362 18.7033 10.2603C18.6717 10.1843 18.6256 10.1154 18.5674 10.0573L13.5674 5.05731C13.5092 4.9992 13.4403 4.95311 13.3643 4.92166C13.2884 4.89021 13.207 4.87402 13.1249 4.87402C12.9589 4.87402 12.7997 4.93995 12.6824 5.05731C12.565 5.17467 12.4991 5.33384 12.4991 5.49981C12.4991 5.66578 12.565 5.82495 12.6824 5.94231L16.6161 9.87481L1.87486 9.87481C1.7091 9.87481 1.55013 9.94066 1.43292 10.0579C1.31571 10.1751 1.24986 10.3341 1.24986 10.4998Z" fill="black" fill-opacity="0.75"/>
</svg>
