<svg width="37" height="48" viewBox="0 0 37 48" fill="none" xmlns="http://www.w3.org/2000/svg">
<path
		d="M19.7479 0.668813C19.611 0.463377 19.4254 0.294933 19.2077 0.178433C18.99 0.0619318 18.7469 0.000976563 18.4999 0.000976563C18.253 0.000976562 18.0099 0.0619318 17.7922 0.178433C17.5745 0.294933 17.3889 0.463377 17.2519 0.668813L8.25195 14.1688C8.10163 14.3947 8.0154 14.6571 8.00244 14.9281C7.98947 15.1992 8.05026 15.4686 8.17833 15.7078C8.30639 15.947 8.49694 16.147 8.72968 16.2865C8.96242 16.4259 9.22862 16.4997 9.49995 16.4998H9.79395L3.72795 26.2048C3.58604 26.4319 3.50749 26.6928 3.50046 26.9604C3.49344 27.2281 3.55818 27.4928 3.68798 27.727C3.81778 27.9612 4.00791 28.1563 4.23861 28.2922C4.46932 28.4281 4.73219 28.4998 4.99995 28.4998H5.57295L0.65895 38.3278C0.544355 38.5565 0.490145 38.8107 0.501472 39.0662C0.512798 39.3218 0.589286 39.5702 0.723664 39.7878C0.858043 40.0055 1.04585 40.1852 1.26923 40.3098C1.49262 40.4344 1.74416 40.4998 1.99995 40.4998H15.4999V47.9998H21.4999V40.4998H34.9999C35.2557 40.4998 35.5073 40.4344 35.7307 40.3098C35.954 40.1852 36.1419 40.0055 36.2762 39.7878C36.4106 39.5702 36.4871 39.3218 36.4984 39.0662C36.5098 38.8107 36.4555 38.5565 36.3409 38.3278L31.43 28.4998H32.003C32.2707 28.4998 32.5336 28.4281 32.7643 28.2922C32.995 28.1563 33.1851 27.9612 33.3149 27.727C33.4447 27.4928 33.5095 27.2281 33.5024 26.9604C33.4954 26.6928 33.4169 26.4319 33.2749 26.2048L27.206 16.4998H27.4999C27.7713 16.4997 28.0375 16.4259 28.2702 16.2865C28.503 16.147 28.6935 15.947 28.8216 15.7078C28.9496 15.4686 29.0104 15.1992 28.9975 14.9281C28.9845 14.6571 28.8983 14.3947 28.748 14.1688L19.7479 0.668813V0.668813ZM13.8109 14.2738C13.6814 14.0396 13.4915 13.8442 13.2609 13.7081C13.0304 13.572 12.7677 13.5001 12.4999 13.4998H12.3019L18.4999 4.20281L24.6979 13.4998H24.4999C24.2322 13.4998 23.9693 13.5715 23.7386 13.7074C23.5079 13.8433 23.3178 14.0385 23.188 14.2727C23.0582 14.5069 22.9934 14.7715 23.0005 15.0392C23.0075 15.3069 23.086 15.5678 23.2279 15.7948L29.2939 25.4998H28.9999C28.7442 25.4998 28.4926 25.5652 28.2692 25.6899C28.0458 25.8145 27.858 25.9941 27.7237 26.2118C27.5893 26.4295 27.5128 26.6779 27.5015 26.9334C27.4901 27.1889 27.5444 27.4431 27.659 27.6718L32.5699 37.4998H4.42695L9.34095 27.6718C9.45554 27.4431 9.50975 27.1889 9.49843 26.9334C9.4871 26.6779 9.41061 26.4295 9.27623 26.2118C9.14186 25.9941 8.95405 25.8145 8.73067 25.6899C8.50728 25.5652 8.25574 25.4998 7.99995 25.4998H7.70595L13.7719 15.7948C13.9135 15.5678 13.9918 15.3071 13.9986 15.0396C14.0055 14.7722 13.9407 14.5078 13.8109 14.2738V14.2738Z"
		fill="#5E9C19"
	/>
</svg>
