<svg width="12" height="20" viewBox="0 0 12 20" fill="none" xmlns="http://www.w3.org/2000/svg">
<path fill-rule="evenodd" clip-rule="evenodd" d="M0.968637 19.5316C0.898792 19.4619 0.843378 19.3792 0.805569 19.2881C0.767759 19.1969 0.748297 19.0993 0.748297 19.0006C0.748297 18.902 0.767759 18.8043 0.805569 18.7132C0.843378 18.622 0.898792 18.5393 0.968637 18.4696L9.43914 10.0006L0.968637 1.53161C0.827806 1.39078 0.74869 1.19978 0.74869 1.00061C0.74869 0.801449 0.827806 0.610443 0.968637 0.469612C1.10947 0.328783 1.30047 0.249666 1.49964 0.249666C1.6988 0.249666 1.88981 0.328783 2.03064 0.469612L11.0306 9.46961C11.1005 9.53928 11.1559 9.62205 11.1937 9.71316C11.2315 9.80428 11.251 9.90196 11.251 10.0006C11.251 10.0993 11.2315 10.1969 11.1937 10.2881C11.1559 10.3792 11.1005 10.4619 11.0306 10.5316L2.03064 19.5316C1.96097 19.6015 1.8782 19.6569 1.78709 19.6947C1.69597 19.7325 1.59829 19.752 1.49964 19.752C1.40099 19.752 1.3033 19.7325 1.21219 19.6947C1.12107 19.6569 1.03831 19.6015 0.968637 19.5316Z" fill="#0F0F16"/>
</svg>
