<svg width="87" height="87" viewBox="0 0 87 87" fill="none" xmlns="http://www.w3.org/2000/svg">
<circle cx="43" cy="44" r="42" fill="#95C11E"/>
<path d="M20.6319 60.9272H20.2513C18.914 60.9068 17.067 60.0046 17.067 58.025C17.067 57.9468 17.067 57.8669 17.067 57.7871C17.067 57.6171 17.0551 57.4591 17.067 57.2909L17.2658 36.8731C15.9523 36.2801 15.7569 34.7746 15.7586 33.3268C15.7586 32.9326 16.0355 26.569 16.0984 25.298C16.1145 25.0679 16.2183 24.8526 16.3884 24.6968C16.5585 24.5409 16.7819 24.4562 17.0126 24.4603C17.1276 24.4655 17.2405 24.4934 17.3448 24.5422C17.449 24.5911 17.5427 24.66 17.6203 24.7451C17.6979 24.8301 17.758 24.9296 17.7972 25.0379C17.8364 25.1462 17.8538 25.2611 17.8486 25.3762C17.7144 28.3906 17.5088 32.9921 17.5189 33.3183C17.5189 35.2367 17.9098 35.2979 18.2904 35.3574C18.4984 35.39 18.6877 35.4964 18.8237 35.657C18.9597 35.8177 19.0334 36.022 19.0313 36.2325L18.8155 57.3487C18.8155 57.4982 18.8155 57.6155 18.8155 57.7293C18.8155 57.8431 18.8155 57.9332 18.8155 58.0335C18.8155 59.104 20.2462 59.1821 20.2921 59.1838C20.3668 59.1838 21.835 59.1481 21.835 58.0335C21.835 57.9315 21.835 57.8296 21.835 57.7259C21.835 57.6222 21.8435 57.4931 21.835 57.3759L21.665 36.2308C21.6611 36.0148 21.737 35.8049 21.878 35.6413C22.0191 35.4777 22.2155 35.3718 22.4297 35.3438C22.8188 35.2843 23.1553 35.2316 23.1536 33.3166C23.1536 32.9768 22.9564 28.377 22.8222 25.3626C22.817 25.2475 22.8344 25.1326 22.8736 25.0243C22.9128 24.916 22.9729 24.8165 23.0505 24.7315C23.1281 24.6464 23.2218 24.5775 23.326 24.5286C23.4303 24.4798 23.5432 24.4519 23.6582 24.4467C23.8897 24.4397 24.1148 24.5233 24.2856 24.6798C24.4563 24.8362 24.5592 25.0532 24.5724 25.2844C24.6302 26.5554 24.9122 32.919 24.9122 33.3268C24.9122 34.8323 24.7185 36.2818 23.4509 36.8595L23.6208 57.3198C23.6208 57.454 23.6208 57.6171 23.6208 57.7769C23.6208 57.8584 23.6208 57.9468 23.6208 58.0199C23.6208 59.8193 22.2105 60.652 20.9735 60.8644C20.865 60.9081 20.7488 60.9295 20.6319 60.9272V60.9272Z" fill="white"/>
<path d="M69.5235 25.2063C70.6535 25.2063 70.3119 27.5716 70.3119 31.6327C70.3119 34.1985 70.3646 58.2323 70.3646 58.2323C70.3687 58.3628 70.3631 58.4934 70.3476 58.6231C70.2882 59.4999 69.7104 60.1881 68.7249 60.1949C68.2964 60.1939 67.8841 60.031 67.5705 59.7389C67.257 59.4468 67.0654 59.0471 67.0342 58.6197C67.0198 58.4928 67.0141 58.3651 67.0172 58.2374L67.5711 43.2401C67.5912 42.7689 67.4998 42.2997 67.3043 41.8705C66.6671 40.4262 66.193 36.7966 66.193 34.3226C66.193 29.9947 68.12 25.2114 69.5252 25.2114L69.5235 25.2063ZM69.5235 23.4493C66.1845 23.4493 64.4377 30.5214 64.4377 34.3124C64.4377 36.9105 64.9203 40.8051 65.7003 42.5689C65.7845 42.7495 65.8253 42.9474 65.8192 43.1466L65.2636 58.1626C65.2585 58.3663 65.2664 58.57 65.2874 58.7726C65.3617 59.6176 65.743 60.4061 66.3591 60.9891C66.9753 61.572 67.7836 61.9091 68.6314 61.9366H68.7657C70.5991 61.8975 71.9483 60.6061 72.0927 58.7743C72.1133 58.5848 72.1212 58.394 72.1165 58.2034C72.1165 57.3895 72.0655 34.1306 72.0655 31.6276C72.0655 30.7984 72.0791 30.0405 72.0927 29.3609C72.1437 26.6421 72.1726 25.1332 71.204 24.146C70.9847 23.9234 70.7229 23.7471 70.4343 23.6275C70.1457 23.5078 69.836 23.4472 69.5235 23.4493V23.4493Z" fill="white"/>
<path d="M20.3294 33.1501C20.1744 33.1501 20.0257 33.0885 19.9161 32.9788C19.8065 32.8692 19.7449 32.7205 19.7449 32.5655V25.3286C19.7449 25.1735 19.8065 25.0248 19.9161 24.9152C20.0257 24.8056 20.1744 24.744 20.3294 24.744C20.4844 24.744 20.6331 24.8056 20.7427 24.9152C20.8524 25.0248 20.9139 25.1735 20.9139 25.3286V32.5655C20.9139 32.7205 20.8524 32.8692 20.7427 32.9788C20.6331 33.0885 20.4844 33.1501 20.3294 33.1501V33.1501Z" fill="white"/>
<path d="M44.2986 25.6701C47.687 25.6701 50.9992 26.6749 53.8165 28.5574C56.6338 30.4399 58.8296 33.1156 60.1262 36.2461C61.4228 39.3765 61.762 42.8212 61.1008 46.1444C60.4396 49.4677 58.8079 52.5202 56.4118 54.916C54.0157 57.3119 50.963 58.9433 47.6397 59.6042C44.3164 60.265 40.8718 59.9255 37.7415 58.6286C34.6111 57.3317 31.9357 55.1356 30.0534 52.3182C28.1712 49.5007 27.1667 46.1883 27.1671 42.7999C27.1671 40.5503 27.6102 38.3226 28.4712 36.2442C29.3321 34.1658 30.594 32.2774 32.1849 30.6867C33.7757 29.096 35.6643 27.8343 37.7428 26.9735C39.8212 26.1128 42.0489 25.6699 44.2986 25.6701ZM44.2986 23.9165C40.5638 23.9165 36.9129 25.024 33.8075 27.0989C30.7022 29.1739 28.2818 32.1231 26.8526 35.5736C25.4233 39.024 25.0494 42.8209 25.778 46.4839C26.5066 50.1469 28.3051 53.5116 30.946 56.1525C33.5869 58.7934 36.9516 60.5919 40.6146 61.3205C44.2776 62.0491 48.0745 61.6752 51.525 60.2459C54.9755 58.8167 57.9246 56.3963 59.9996 53.291C62.0745 50.1856 63.182 46.5347 63.182 42.7999C63.1766 37.7934 61.1854 32.9934 57.6452 29.4533C54.1051 25.9131 49.3051 23.9219 44.2986 23.9165Z" fill="white"/>
<path d="M38.6573 57.1346C38.5458 57.1348 38.4351 57.117 38.3293 57.0819C37.6394 56.8508 36.1373 55.4948 36.1577 54.5874C36.1679 54.149 36.4177 53.7378 36.6675 53.3351C36.7949 53.1227 36.9903 52.8033 36.9971 52.6741C37.0515 51.675 36.4466 50.737 35.8077 49.7447C35.6377 49.4915 35.478 49.2349 35.3251 48.9834C35.1769 48.7434 35.0152 48.5119 34.8408 48.2901C34.3599 47.6546 33.8213 46.9308 34.3107 46.0047C34.3228 45.9813 34.33 45.9557 34.3321 45.9294C34.3341 45.9032 34.3309 45.8767 34.3225 45.8518C34.2967 45.7778 34.2431 45.7168 34.173 45.6818C33.6276 45.4032 33.2996 45.031 32.9513 44.6368C32.4217 44.002 31.79 43.4598 31.0821 43.0328C30.777 42.8811 30.4513 42.7751 30.1153 42.7184C28.1459 42.2613 26.428 41.4304 27.0091 36.3548C27.0149 36.2763 27.0365 36.1997 27.0726 36.1297C27.1086 36.0597 27.1585 35.9978 27.2191 35.9475C27.2798 35.8973 27.35 35.8598 27.4254 35.8374C27.5009 35.8149 27.5802 35.808 27.6584 35.8169C27.7366 35.8258 27.8123 35.8505 27.8807 35.8894C27.9492 35.9283 28.0091 35.9806 28.0569 36.0432C28.1046 36.1058 28.1392 36.1774 28.1586 36.2538C28.178 36.3301 28.1818 36.4095 28.1697 36.4874C27.6599 40.9478 28.9802 41.2554 30.3787 41.585C30.8394 41.6664 31.284 41.8213 31.6956 42.0438C32.4972 42.529 33.2131 43.1433 33.8145 43.862C34.122 44.2103 34.3446 44.4618 34.693 44.6402C34.8659 44.7283 35.0197 44.8498 35.1454 44.9976C35.2711 45.1455 35.3663 45.3168 35.4253 45.5017C35.4804 45.6749 35.5002 45.8573 35.4836 46.0383C35.467 46.2192 35.4142 46.395 35.3285 46.5552C35.2078 46.7829 35.2758 46.9461 35.7601 47.585C35.9602 47.8399 36.1457 48.106 36.3157 48.3819C36.4619 48.6249 36.6199 48.8679 36.7762 49.1109C37.4916 50.2153 38.2307 51.3589 38.156 52.7387C38.1322 53.1584 37.8909 53.556 37.6581 53.94C37.5341 54.1456 37.3268 54.4872 37.3183 54.6197C37.3777 54.9171 38.3021 55.8483 38.6912 55.9791C38.9376 55.9604 39.7481 55.2331 40.0506 54.9596C40.2052 54.8185 40.3429 54.6979 40.4482 54.6197C42.3683 53.0802 43.9826 50.3853 42.7575 47.4405C42.6334 47.1432 42.4006 47.0463 41.9265 46.8747C41.5051 46.7218 40.9818 46.5348 40.5672 46.054C39.167 44.4703 38.9002 44.5434 38.6844 44.6011C38.2383 44.7455 37.7531 44.707 37.3353 44.4941C35.8349 43.8144 34.4653 41.8535 34.4075 41.7753C34.3219 41.6521 34.2877 41.5003 34.3123 41.3522C34.4279 40.6233 34.9258 40.2205 35.3319 39.896C35.4406 39.8093 35.5494 39.7261 35.6462 39.6292C36.5272 38.8096 37.5736 38.1884 38.715 37.8077L39.0107 37.7125C39.9113 37.4304 40.3701 37.2877 40.7898 35.0889C40.9036 34.5061 40.4499 34.0898 39.9826 33.8995C39.094 33.5239 38.3701 33.7295 37.4933 34.1764C37.1653 34.3463 36.6335 34.382 35.964 33.5987C35.9521 33.5834 34.6981 32.0915 35.2163 31.3897C35.9453 30.4025 37.337 30.1119 38.3548 29.9012C38.5706 29.857 38.8442 29.7992 39.0175 29.7483C38.8968 29.0839 37.461 28.2937 35.3625 27.767C35.2857 27.7506 35.2131 27.7189 35.1489 27.6738C35.0847 27.6287 35.0302 27.5711 34.9887 27.5046C34.9472 27.438 34.9195 27.3637 34.9073 27.2862C34.8951 27.2087 34.8987 27.1295 34.9177 27.0534C34.9368 26.9773 34.971 26.9058 35.0182 26.8432C35.0655 26.7805 35.1249 26.7281 35.1929 26.6889C35.2609 26.6497 35.3361 26.6246 35.4139 26.6151C35.4918 26.6056 35.5708 26.6119 35.6462 26.6336C37.5154 27.1009 40.574 28.1833 40.1594 30.168C40.0404 30.744 39.4321 30.8697 38.5927 31.0448C37.8331 31.2028 36.8153 31.4152 36.2919 31.9301C36.4279 32.2784 36.8374 32.8969 37.0838 33.0753C38.0404 32.6012 39.1109 32.2665 40.4312 32.8255C41.5459 33.2945 42.1305 34.2733 41.9333 35.32C41.41 38.0099 40.6097 38.4432 39.3556 38.8357L39.0787 38.924C38.1025 39.2518 37.2067 39.7823 36.45 40.4805C36.3293 40.5961 36.1968 40.7048 36.0608 40.8204C35.8549 40.9641 35.6765 41.1436 35.5341 41.3505C35.9096 41.8467 36.8714 43.0243 37.8144 43.4491C37.8988 43.4984 37.9932 43.528 38.0906 43.5356C38.188 43.5433 38.2859 43.5288 38.3769 43.4932C39.2112 43.2689 39.8212 43.4678 41.4355 45.3012C41.6598 45.5561 41.969 45.6665 42.3259 45.7974C42.8526 45.9877 43.5153 46.2273 43.8365 47.0123C45.3131 50.5586 43.3267 53.8296 41.1789 55.5509C41.0854 55.6257 40.9665 55.7344 40.839 55.8568C40.0438 56.5398 39.3182 57.1346 38.6573 57.1346Z" fill="white"/>
<path d="M43.7023 32.2138C43.3494 32.2119 43.0114 32.0715 42.7609 31.823C42.5624 31.6192 42.409 31.3759 42.3106 31.1089C42.2122 30.8419 42.1711 30.5572 42.19 30.2733C42.2155 29.9987 42.2626 29.7266 42.331 29.4594C42.418 29.1693 42.4531 28.8662 42.4346 28.5639C42.3752 28.168 41.9487 27.8112 41.4678 27.7517C41.3035 27.7313 41.1449 27.678 41.0016 27.5951C40.8583 27.5122 40.7331 27.4014 40.6335 27.2691C40.5298 27.1336 40.4541 26.9787 40.4109 26.8135C40.3677 26.6484 40.3579 26.4763 40.382 26.3074L40.5213 25.315C40.5325 25.239 40.5585 25.166 40.5979 25.1001C40.6373 25.0341 40.6892 24.9766 40.7509 24.9308C40.8125 24.8849 40.8825 24.8517 40.957 24.8329C41.0315 24.8142 41.1089 24.8102 41.1849 24.8214C41.2608 24.8325 41.3339 24.8586 41.3998 24.8979C41.4657 24.9373 41.5233 24.9893 41.5691 25.0509C41.6149 25.1125 41.6482 25.1826 41.667 25.2571C41.6857 25.3315 41.6896 25.409 41.6785 25.4849L41.5375 26.479C41.5342 26.5104 41.5426 26.5418 41.5612 26.5673C42.6165 26.7237 43.4491 27.4781 43.5901 28.3923C43.6369 28.8405 43.5959 29.2936 43.4695 29.7262C43.4159 29.9349 43.3779 30.1473 43.3556 30.3617C43.3485 30.475 43.3639 30.5886 43.401 30.6959C43.438 30.8033 43.4959 30.9022 43.5714 30.987C43.6462 31.0584 43.6938 31.0533 43.7209 31.0499C43.8688 31.0346 43.9979 30.829 44.1933 30.4908C44.3599 30.1593 44.5856 29.861 44.8594 29.6106C45.2842 29.2589 45.7957 29.1671 46.2477 29.0856C46.5295 29.056 46.8036 28.9754 47.0565 28.8477C47.24 28.6387 47.6529 27.2351 47.9197 25.8112C47.934 25.7358 47.963 25.6639 48.0051 25.5997C48.0471 25.5355 48.1014 25.4802 48.1648 25.4369C48.2283 25.3937 48.2996 25.3634 48.3747 25.3477C48.4499 25.332 48.5274 25.3313 48.6028 25.3456C48.6782 25.3599 48.7501 25.3889 48.8143 25.4309C48.8785 25.473 48.9338 25.5273 48.9771 25.5907C49.0203 25.6541 49.0506 25.7255 49.0663 25.8006C49.082 25.8758 49.0827 25.9533 49.0684 26.0287C48.7846 27.5393 48.3156 29.4271 47.6903 29.8281C47.31 30.0467 46.8891 30.1855 46.4533 30.236C46.1135 30.2971 45.7923 30.3549 45.6037 30.5095C45.4425 30.676 45.3078 30.8663 45.2044 31.0737C44.9478 31.5189 44.596 32.1306 43.845 32.2121C43.7975 32.2151 43.7498 32.2156 43.7023 32.2138V32.2138Z" fill="white"/>
<path d="M53.3283 54.7488C52.4515 54.7488 52.0148 53.5916 51.3113 49.4166C51.2688 49.1685 51.2314 48.9561 51.2042 48.7998C50.9969 47.6698 49.8839 46.8695 47.7055 46.2799C47.3077 46.1785 46.9343 45.9981 46.6076 45.7494C46.2809 45.5007 46.0077 45.1887 45.8041 44.8321C45.6409 44.5372 45.5396 44.2121 45.5063 43.8767C45.473 43.5413 45.5084 43.2027 45.6104 42.8814C45.8288 42.31 46.0824 41.7527 46.37 41.2128C46.8627 40.3258 47.7293 39.1567 49.5577 39.24C49.9978 39.2604 52.2459 39.3793 53.3843 39.7311C53.9723 39.9129 54.6553 39.6869 54.861 39.5068C54.6791 39.2349 54.0402 38.7557 53.782 38.7183C53.5916 38.6912 53.3843 38.6827 53.1685 38.6742C52.4549 38.6436 51.5084 38.6028 50.7794 37.9095L49.3657 38.3496C48.9341 38.5518 48.3173 38.4907 47.6937 38.1797C47.3793 38.0251 46.6384 37.5918 46.5348 36.8934C46.4792 36.5391 46.5071 36.1767 46.6163 35.8351C46.7254 35.4935 46.9128 35.1821 47.1635 34.9257C47.9893 34.0761 49.4405 33.7787 51.471 34.0319L51.5917 34.0472C52.4922 34.1627 53.3436 34.2698 53.9876 33.76C54.0633 33.7111 54.1172 33.6349 54.1381 33.5472C54.1589 33.4595 54.1452 33.3671 54.0997 33.2893C53.6868 32.7558 52.9646 32.3378 52.6724 32.4618C51.9808 32.7507 51.087 31.5188 51.0768 31.5069C50.46 30.6471 50.8117 30.0778 50.9918 29.8722C51.0751 29.7788 51.2008 29.653 51.3504 29.5035C51.7769 29.0821 52.5687 28.2953 52.652 27.772C52.6812 27.6235 52.7669 27.4922 52.891 27.4056C53.015 27.319 53.1679 27.2839 53.3173 27.3077C53.4667 27.3314 53.6011 27.4122 53.6922 27.533C53.7833 27.6539 53.824 27.8053 53.8057 27.9555C53.663 28.8544 52.7658 29.7448 52.1745 30.3344C52.047 30.4601 51.94 30.5672 51.8703 30.6454C51.9009 30.7524 52.2561 31.1245 52.4939 31.3013C53.4744 31.1109 54.533 31.947 55.0241 32.5774C55.2584 32.8986 55.3573 33.299 55.2995 33.6924C55.2417 34.0858 55.0317 34.4408 54.7148 34.681C53.6851 35.4932 52.443 35.3369 51.4472 35.2095L51.3266 35.1959C49.7259 34.9954 48.5433 35.1959 47.9995 35.7464C47.8756 35.8743 47.7832 36.0294 47.7298 36.1994C47.6764 36.3693 47.6635 36.5493 47.692 36.7252C47.8256 36.9085 48.0073 37.0514 48.217 37.1381C48.4157 37.2514 48.6428 37.3051 48.8712 37.2927C48.9034 37.2741 48.9376 37.2593 48.9732 37.2485L50.7913 36.6827C50.9065 36.6472 51.0297 36.6481 51.1444 36.6852C51.259 36.7223 51.3594 36.7938 51.4319 36.89C51.8228 37.4099 52.3682 37.4694 53.2212 37.5068C53.4645 37.5125 53.7072 37.5313 53.9485 37.5629C54.6469 37.6614 55.8176 38.5399 56.0283 39.2621C56.0754 39.451 56.0696 39.6493 56.0114 39.8351C55.9533 40.021 55.8451 40.1872 55.6987 40.3156C55.1073 40.8899 53.9366 41.1193 53.0411 40.8424C52.3138 40.6164 50.7421 40.4583 49.5067 40.4023C48.5603 40.3615 47.9672 40.7421 47.3929 41.7752C47.1431 42.2469 46.9207 42.7325 46.7268 43.2298C46.672 43.4005 46.6531 43.5807 46.6712 43.759C46.6894 43.9374 46.7441 44.1101 46.8321 44.2663C46.9599 44.4847 47.1303 44.6752 47.3332 44.8264C47.536 44.9776 47.7673 45.0865 48.0131 45.1465C49.6885 45.6002 51.9621 46.4498 52.3546 48.584C52.3835 48.7454 52.4209 48.9629 52.4634 49.2178C52.8746 51.6494 53.2178 53.1039 53.4829 53.5508C54.2424 53.3469 55.2552 51.8312 55.5933 50.8321L56.8677 47.0462C57.0088 46.6265 57.4285 46.302 57.9145 45.9264C58.1439 45.7577 58.3609 45.5726 58.5636 45.3725C58.2147 45.1222 57.8197 44.9437 57.4013 44.8474C56.9969 44.7631 56.627 44.5598 56.3391 44.2637C56.0511 43.9676 55.8583 43.5921 55.7853 43.1856C55.7123 42.7047 56.2577 41.8993 56.5823 41.6223C56.6885 41.5158 56.821 41.4394 56.9664 41.4009C57.1118 41.3624 57.2648 41.3631 57.4098 41.4031C59.7785 42.1474 60.5516 41.5306 61.2347 40.9868L61.9909 41.8789C61.2075 42.5025 60.0708 43.4082 57.2705 42.5824C57.1447 42.7378 57.0401 42.9092 56.9595 43.0921C57.0145 43.2491 57.1097 43.3889 57.2355 43.4977C57.3612 43.6065 57.5133 43.6805 57.6766 43.7123C58.3444 43.8823 59.5321 44.3496 59.7496 45.1142C59.9518 45.8262 59.2806 46.3461 58.6281 46.8508C58.4055 47.0207 58.0334 47.3113 57.9688 47.4336L56.7012 51.2042C56.3291 52.3019 54.9714 54.7182 53.3453 54.7437L53.3283 54.7488Z" fill="white"/>
</svg>
