<svg width="87" height="87" viewBox="0 0 87 87" fill="none" xmlns="http://www.w3.org/2000/svg">
<circle cx="43" cy="44" r="42" fill="#E40045"/>
<path d="M40.9675 16.6608C41.1353 16.6568 41.302 16.6892 41.4563 16.7558C41.6107 16.8224 41.7491 16.9217 41.8624 17.0469C41.9757 17.1722 42.0612 17.3205 42.1131 17.4819C42.1651 17.6433 42.1822 17.8141 42.1635 17.9828L40.9373 32.9818C41.6062 33.1725 42.196 33.5775 42.6182 34.136C43.0404 34.6945 43.2721 35.3764 43.2788 36.0795L45.1264 36.4669C48.1755 37.1102 50.9077 38.8082 52.853 41.2689L56.125 45.4048C56.2248 45.5874 56.276 45.7931 56.2736 46.0017C56.2712 46.2103 56.2153 46.4148 56.1113 46.595C56.0074 46.7752 55.8589 46.925 55.6805 47.0297C55.5022 47.1344 55.2999 47.1905 55.0937 47.1924C54.8441 47.19 54.6017 47.1072 54.4017 46.9562L42.2827 38.4601C41.9934 38.7396 41.655 38.9621 41.285 39.116L42.9899 68.1387H37.9508L38.7907 39.082C38.6287 39.0139 38.473 38.9314 38.3254 38.8356L36.9816 40.353C34.9074 42.7054 32.087 44.2521 29.0065 44.7268L23.828 45.5238C22.5649 45.5017 22.2121 43.7583 23.3661 43.2349L36.9094 36.7643C36.7779 36.0955 36.8572 35.4018 37.1363 34.781C37.4154 34.1603 37.8801 33.6439 38.4648 33.3047L37.8299 31.3591C36.852 28.3651 36.9382 25.1198 38.0734 22.1833L39.9782 17.2555C40.0788 17.0779 40.2241 16.9304 40.3994 16.828C40.5746 16.7256 40.7736 16.672 40.9759 16.6727L40.9675 16.6608ZM40.9759 14.9191C40.4749 14.9187 39.9825 15.0507 39.5474 15.3019C39.1122 15.5531 38.7495 15.915 38.495 16.3516C38.4443 16.4365 38.401 16.5257 38.3657 16.6183L36.4593 21.5461C35.1806 24.864 35.0832 28.5287 36.1838 31.9113L36.4492 32.7218C35.7014 33.5356 35.2413 34.5772 35.1407 35.6836L22.6371 41.6563C22.0372 41.9364 21.5491 42.4143 21.2528 43.0118C20.9565 43.6092 20.8695 44.2907 21.0061 44.9446C21.1428 45.5986 21.4949 46.1862 22.0048 46.6113C22.5147 47.0363 23.1523 47.2736 23.8129 47.2841H23.8431C23.9309 47.2841 24.0185 47.2773 24.1052 47.2637L29.282 46.4668C32.1258 46.0236 34.7863 44.7712 36.9531 42.856L36.2157 68.0911C36.209 68.3255 36.2488 68.5589 36.3328 68.7774C36.4167 68.996 36.5432 69.1953 36.7047 69.3635C36.8661 69.5318 37.0593 69.6656 37.2728 69.757C37.4862 69.8484 37.7157 69.8955 37.9475 69.8956H42.9865C43.2227 69.8954 43.4563 69.8463 43.6731 69.7515C43.8899 69.6566 44.0852 69.518 44.2472 69.3442C44.4091 69.1703 44.5343 68.9648 44.615 68.7403C44.6958 68.5157 44.7303 68.2769 44.7166 68.0384L43.1377 41.1907L53.414 48.3971C53.904 48.7511 54.4916 48.9401 55.0937 48.9375C55.6037 48.9329 56.1038 48.7948 56.5453 48.5367C56.9869 48.2785 57.3548 47.909 57.6132 47.4643C57.8703 47.0237 58.0082 46.5224 58.0129 46.0108C58.0176 45.4992 57.889 44.9954 57.6401 44.5501C57.5915 44.4631 57.5353 44.3806 57.4721 44.3037L54.2018 40.1678C52.0012 37.3891 48.913 35.472 45.4674 34.7456L44.7704 34.5978C44.4216 33.4961 43.7102 32.5486 42.7547 31.913L43.8801 18.1204C43.9229 17.7191 43.8815 17.3131 43.7588 16.929C43.6361 16.5449 43.4348 16.1912 43.1679 15.8911C42.8899 15.581 42.5508 15.3332 42.1724 15.1638C41.794 14.9943 41.3847 14.9069 40.9709 14.9072L40.9759 14.9191Z" fill="white"/>
<path d="M61.5807 39.2383C60.2371 39.237 58.9489 38.6964 57.9988 37.7353C57.0487 36.7742 56.5144 35.471 56.5131 34.1118V29.8637C56.5135 29.6315 56.605 29.4089 56.7675 29.2449C56.93 29.0808 57.1502 28.9886 57.3798 28.9886H65.7782C66.0078 28.9886 66.228 29.0808 66.3905 29.2449C66.553 29.4089 66.6445 29.6315 66.6449 29.8637V34.1118C66.6432 35.4703 66.1091 36.7727 65.1599 37.7336C64.2106 38.6945 62.9236 39.2356 61.5807 39.2383V39.2383ZM58.2448 30.7422V34.1152C58.2348 34.5646 58.3137 35.0115 58.4769 35.4297C58.64 35.8478 58.884 36.2288 59.1947 36.5502C59.5054 36.8716 59.8764 37.127 60.286 37.3014C60.6956 37.4757 61.1355 37.5656 61.5798 37.5656C62.0242 37.5656 62.4641 37.4757 62.8737 37.3014C63.2833 37.127 63.6543 36.8716 63.965 36.5502C64.2756 36.2288 64.5197 35.8478 64.6828 35.4297C64.8459 35.0115 64.9248 34.5646 64.9149 34.1152V30.7388L58.2448 30.7422Z" fill="white"/>
<path d="M59.293 29.7873C59.0631 29.7873 58.8427 29.6949 58.6801 29.5305C58.5176 29.3661 58.4263 29.1431 58.4263 28.9105V24.6472C58.4263 24.4146 58.5176 24.1916 58.6801 24.0272C58.8427 23.8628 59.0631 23.7704 59.293 23.7704C59.5229 23.7704 59.7433 23.8628 59.9059 24.0272C60.0684 24.1916 60.1597 24.4146 60.1597 24.6472V28.9105C60.1597 29.1431 60.0684 29.3661 59.9059 29.5305C59.7433 29.6949 59.5229 29.7873 59.293 29.7873V29.7873Z" fill="white"/>
<path d="M63.8667 29.7873C63.7529 29.7873 63.6402 29.7647 63.535 29.7206C63.4299 29.6765 63.3343 29.6119 63.2538 29.5305C63.1734 29.4491 63.1095 29.3524 63.066 29.2461C63.0224 29.1397 63 29.0257 63 28.9105V24.6472C62.9948 24.5289 63.0134 24.4108 63.0546 24.3C63.0958 24.1892 63.1587 24.088 63.2397 24.0024C63.3206 23.9169 63.4178 23.8488 63.5254 23.8023C63.633 23.7558 63.7488 23.7318 63.8659 23.7318C63.9829 23.7318 64.0987 23.7558 64.2063 23.8023C64.314 23.8488 64.4112 23.9169 64.4921 24.0024C64.573 24.088 64.6359 24.1892 64.6771 24.3C64.7183 24.4108 64.7369 24.5289 64.7317 24.6472V28.9105C64.7317 29.1428 64.6407 29.3655 64.4785 29.5299C64.3163 29.6943 64.0963 29.7869 63.8667 29.7873V29.7873Z" fill="white"/>
<path d="M54.2203 61.1599H43.6383C43.5213 61.1651 43.4046 61.1463 43.2951 61.1046C43.1855 61.063 43.0854 60.9993 43.0009 60.9174C42.9163 60.8356 42.849 60.7373 42.8031 60.6284C42.7571 60.5195 42.7334 60.4023 42.7334 60.284C42.7334 60.1656 42.7571 60.0484 42.8031 59.9395C42.849 59.8306 42.9163 59.7323 43.0009 59.6505C43.0854 59.5686 43.1855 59.5049 43.2951 59.4633C43.4046 59.4216 43.5213 59.4028 43.6383 59.408H54.2203C55.9405 59.4053 57.5897 58.7133 58.8067 57.4834C60.0237 56.2535 60.7095 54.5859 60.714 52.8456V39.2621C60.7088 39.1438 60.7274 39.0257 60.7686 38.9149C60.8098 38.8041 60.8727 38.7028 60.9536 38.6173C61.0346 38.5317 61.1318 38.4637 61.2394 38.4172C61.347 38.3707 61.4628 38.3467 61.5798 38.3467C61.6969 38.3467 61.8127 38.3707 61.9203 38.4172C62.0279 38.4637 62.1251 38.5317 62.2061 38.6173C62.287 38.7028 62.3499 38.8041 62.3911 38.9149C62.4323 39.0257 62.4509 39.1438 62.4457 39.2621V52.8456C62.4426 55.0509 61.5748 57.1649 60.0327 58.7236C58.4906 60.2824 56.4002 61.1585 54.2203 61.1599V61.1599Z" fill="white"/>
<path d="M43.1478 65.8431H37.4755C37.3223 65.8431 37.1753 65.7816 37.0669 65.6719C36.9586 65.5623 36.8977 65.4136 36.8977 65.2586C36.8977 65.1036 36.9586 64.9549 37.0669 64.8453C37.1753 64.7357 37.3223 64.6741 37.4755 64.6741H43.1478C43.3011 64.6741 43.448 64.7357 43.5564 64.8453C43.6648 64.9549 43.7256 65.1036 43.7256 65.2586C43.7256 65.4136 43.6648 65.5623 43.5564 65.6719C43.448 65.7816 43.3011 65.8431 43.1478 65.8431Z" fill="white"/>
<path d="M39.9631 40.698C39.0662 40.698 38.1893 40.4289 37.4435 39.9248C36.6977 39.4207 36.1165 38.7041 35.7732 37.8658C35.4299 37.0275 35.3401 36.105 35.5151 35.2151C35.6901 34.3251 36.122 33.5076 36.7563 32.866C37.3905 32.2244 38.1986 31.7874 39.0784 31.6104C39.9581 31.4333 40.87 31.5242 41.6987 31.8715C42.5274 32.2187 43.2357 32.8067 43.734 33.5612C44.2323 34.3157 44.4983 35.2027 44.4983 36.1101C44.4952 37.3259 44.0164 38.4911 43.1666 39.3508C42.3167 40.2105 41.165 40.6949 39.9631 40.698ZM39.9631 33.2639C39.4077 33.2639 38.8647 33.4305 38.4029 33.7427C37.941 34.0549 37.581 34.4986 37.3685 35.0178C37.1559 35.5369 37.1003 36.1082 37.2087 36.6593C37.317 37.2104 37.5845 37.7166 37.9773 38.114C38.37 38.5113 38.8705 38.7819 39.4152 38.8915C39.96 39.0011 40.5247 38.9449 41.0379 38.7298C41.5511 38.5148 41.9897 38.1507 42.2983 37.6834C42.6069 37.2162 42.7716 36.6669 42.7716 36.105C42.7707 35.3518 42.4745 34.6297 41.948 34.0971C41.4215 33.5644 40.7077 33.2648 39.9631 33.2639Z" fill="white"/>
</svg>
