<svg width="87" height="87" viewBox="0 0 87 87" fill="none" xmlns="http://www.w3.org/2000/svg">
<circle cx="43" cy="44" r="42" fill="#A03C7D"/>
<path d="M55.5118 51.8925H29.1739C28.9483 51.8826 28.7352 51.7859 28.579 51.6227C28.4229 51.4596 28.3357 51.2424 28.3357 51.0165C28.3357 50.7907 28.4229 50.5735 28.579 50.4104C28.7352 50.2472 28.9483 50.1505 29.1739 50.1406H55.5118C56.6886 50.1429 57.8356 49.7709 58.7871 49.0784C59.7385 48.386 60.4452 47.4089 60.8049 46.2885L64.6978 34.2393H26.7101C26.5918 34.2445 26.4737 34.2257 26.3629 34.1841C26.252 34.1424 26.1508 34.0787 26.0653 33.9969C25.9797 33.915 25.9117 33.8167 25.8652 33.7078C25.8187 33.5989 25.7947 33.4818 25.7947 33.3634C25.7947 33.245 25.8187 33.1278 25.8652 33.0189C25.9117 32.9101 25.9797 32.8117 26.0653 32.7299C26.1508 32.648 26.252 32.5843 26.3629 32.5427C26.4737 32.501 26.5918 32.4822 26.7101 32.4874H65.9008C66.039 32.4875 66.1751 32.5202 66.2982 32.5828C66.4213 32.6455 66.5278 32.7363 66.6092 32.8479C66.6905 32.9596 66.7443 33.0889 66.7662 33.2252C66.7881 33.3616 66.7775 33.5012 66.7352 33.6327L62.4718 46.8271C61.9992 48.3006 61.07 49.5856 59.8189 50.4962C58.5677 51.4068 57.0593 51.8958 55.5118 51.8925V51.8925Z" fill="white"/>
<path d="M57.9212 60.307H34.1968C32.7063 60.3066 31.2678 59.7597 30.1536 58.7698C29.0394 57.7799 28.3268 56.4158 28.1509 54.9358L25.1926 30.9768C25.1044 30.2153 24.7397 29.5126 24.1678 29.0021C23.5959 28.4915 22.8565 28.2087 22.0898 28.2071H15.8027C15.6844 28.2123 15.5663 28.1935 15.4555 28.1518C15.3447 28.1102 15.2435 28.0465 15.1579 27.9646C15.0724 27.8828 15.0043 27.7844 14.9578 27.6756C14.9113 27.5667 14.8873 27.4495 14.8873 27.3311C14.8873 27.2128 14.9113 27.0956 14.9578 26.9867C15.0043 26.8778 15.0724 26.7795 15.1579 26.6977C15.2435 26.6158 15.3447 26.5521 15.4555 26.5105C15.5663 26.4688 15.6844 26.45 15.8027 26.4552H22.0898C23.2832 26.4563 24.4348 26.8944 25.3271 27.6868C26.2194 28.4792 26.7905 29.571 26.9326 30.7559L29.8909 54.7234C30.0154 55.7781 30.5225 56.7504 31.3161 57.456C32.1098 58.1617 33.1348 58.5516 34.1968 58.5517H57.9212C58.1538 58.5517 58.3768 58.6441 58.5412 58.8085C58.7057 58.973 58.798 59.196 58.798 59.4285C58.798 59.6611 58.7057 59.8841 58.5412 60.0485C58.3768 60.213 58.1538 60.3053 57.9212 60.3053V60.307Z" fill="white"/>
<path d="M33.1347 68.5567C31.3642 68.5567 29.9232 67.0512 29.9232 65.2024C29.9232 63.3537 31.3659 61.8516 33.1347 61.8516C34.9036 61.8516 36.348 63.3571 36.348 65.2092C36.348 67.0614 34.9087 68.5567 33.1347 68.5567ZM33.1347 63.5984C32.331 63.5984 31.6751 64.3171 31.6751 65.2024C31.6751 66.0877 32.331 66.8048 33.1347 66.8048C33.9385 66.8048 34.5944 66.086 34.5944 65.2024C34.5944 64.3188 33.9419 63.5984 33.1347 63.5984Z" fill="white"/>
<path d="M54.9392 68.5567C53.1669 68.5567 51.726 67.0512 51.726 65.2024C51.726 63.3537 53.1669 61.8516 54.9392 61.8516C56.7115 61.8516 58.1507 63.3571 58.1507 65.2092C58.1507 67.0614 56.7098 68.5567 54.9392 68.5567ZM54.9392 63.5984C54.1337 63.5984 53.4795 64.3171 53.4795 65.2024C53.4795 66.0877 54.1337 66.8048 54.9392 66.8048C55.7446 66.8048 56.3988 66.086 56.3988 65.2024C56.3988 64.3188 55.7429 63.5984 54.9392 63.5984Z" fill="white"/>
<path d="M33.1348 51.6019C32.9798 51.6019 32.8311 51.5403 32.7215 51.4307C32.6119 51.3211 32.5503 51.1724 32.5503 51.0174V33.3625C32.5503 33.2075 32.6119 33.0588 32.7215 32.9492C32.8311 32.8395 32.9798 32.778 33.1348 32.778C33.2899 32.778 33.4385 32.8395 33.5482 32.9492C33.6578 33.0588 33.7194 33.2075 33.7194 33.3625V51.0174C33.7194 51.1724 33.6578 51.3211 33.5482 51.4307C33.4385 51.5403 33.2899 51.6019 33.1348 51.6019Z" fill="white"/>
<path d="M39.3336 51.6019C39.1785 51.6019 39.0298 51.5403 38.9202 51.4307C38.8106 51.3211 38.749 51.1724 38.749 51.0174V33.3625C38.7571 33.2131 38.8221 33.0725 38.9307 32.9697C39.0392 32.8668 39.1831 32.8094 39.3327 32.8094C39.4823 32.8094 39.6262 32.8668 39.7347 32.9697C39.8433 33.0725 39.9083 33.2131 39.9164 33.3625V51.0174C39.9164 51.1721 39.855 51.3205 39.7458 51.4301C39.6365 51.5397 39.4883 51.6014 39.3336 51.6019V51.6019Z" fill="white"/>
<path d="M45.5289 51.0123C45.3738 51.0123 45.2252 50.9507 45.1155 50.8411C45.0059 50.7314 44.9443 50.5828 44.9443 50.4277V33.3625C44.9443 33.2075 45.0059 33.0588 45.1155 32.9492C45.2252 32.8395 45.3738 32.778 45.5289 32.778C45.6839 32.778 45.8326 32.8395 45.9422 32.9492C46.0518 33.0588 46.1134 33.2075 46.1134 33.3625V50.4277C46.1134 50.5828 46.0518 50.7314 45.9422 50.8411C45.8326 50.9507 45.6839 51.0123 45.5289 51.0123V51.0123Z" fill="white"/>
<path d="M51.7242 51.6019C51.5692 51.6019 51.4205 51.5403 51.3109 51.4307C51.2012 51.3211 51.1396 51.1724 51.1396 51.0174V33.3625C51.1396 33.2075 51.2012 33.0588 51.3109 32.9492C51.4205 32.8395 51.5692 32.778 51.7242 32.778C51.8792 32.778 52.0279 32.8395 52.1375 32.9492C52.2471 33.0588 52.3087 33.2075 52.3087 33.3625V51.0174C52.3087 51.1724 52.2471 51.3211 52.1375 51.4307C52.0279 51.5403 51.8792 51.6019 51.7242 51.6019Z" fill="white"/>
<path d="M57.9213 51.0123C57.7663 51.0123 57.6176 50.9507 57.508 50.8411C57.3984 50.7314 57.3368 50.5828 57.3368 50.4277V33.3625C57.3449 33.2131 57.4099 33.0725 57.5184 32.9697C57.627 32.8668 57.7709 32.8094 57.9205 32.8094C58.07 32.8094 58.2139 32.8668 58.3225 32.9697C58.4311 33.0725 58.4961 33.2131 58.5042 33.3625V50.4277C58.5042 50.5825 58.4428 50.7309 58.3336 50.8405C58.2243 50.95 58.0761 51.0118 57.9213 51.0123V51.0123Z" fill="white"/>
<path d="M62.7487 42.7744H27.405C27.2499 42.7744 27.1013 42.7128 26.9916 42.6032C26.882 42.4936 26.8204 42.3449 26.8204 42.1899C26.8204 42.0348 26.882 41.8862 26.9916 41.7766C27.1013 41.6669 27.2499 41.6053 27.405 41.6053H62.7487C62.9037 41.6053 63.0524 41.6669 63.162 41.7766C63.2717 41.8862 63.3332 42.0348 63.3332 42.1899C63.3332 42.3449 63.2717 42.4936 63.162 42.6032C63.0524 42.7128 62.9037 42.7744 62.7487 42.7744V42.7744Z" fill="white"/>
</svg>
