<svg width="87" height="87" viewBox="0 0 87 87" fill="none" xmlns="http://www.w3.org/2000/svg">
<circle cx="43" cy="44" r="42" fill="#37647A"/>
<path d="M29.0039 57.0666C28.2305 57.0664 27.4738 56.8414 26.8258 56.4191C26.1778 55.9968 25.6665 55.3953 25.354 54.6877L21.9199 46.9291C21.7078 46.4494 21.5923 45.9325 21.58 45.4081C21.5676 44.8837 21.6588 44.362 21.8481 43.8729C22.0375 43.3837 22.3214 42.9366 22.6835 42.5572C23.0457 42.1778 23.4791 41.8734 23.959 41.6615L34.5689 36.9564C34.6742 36.9095 34.7877 36.8838 34.9029 36.8809C35.0181 36.878 35.1328 36.8979 35.2403 36.9394C35.3478 36.9809 35.4461 37.0433 35.5295 37.1229C35.6128 37.2025 35.6796 37.2978 35.726 37.4033L41.692 50.8594C41.7864 51.0719 41.7925 51.3132 41.709 51.5302C41.6255 51.7472 41.4593 51.9221 41.2468 52.0166L30.6352 56.72C30.1223 56.9504 29.5662 57.0686 29.0039 57.0666ZM34.4618 38.9122L24.6522 43.2622C24.3836 43.3813 24.141 43.5522 23.9383 43.7651C23.7357 43.978 23.577 44.2287 23.4713 44.503C23.3656 44.7772 23.3149 45.0696 23.3222 45.3634C23.3295 45.6573 23.3946 45.9468 23.5138 46.2154L26.9564 53.9775C27.1964 54.5198 27.6418 54.9448 28.1948 55.1592C28.7478 55.3736 29.3633 55.3599 29.9062 55.121L39.7158 50.771L34.4618 38.9122Z" fill="white"/>
<path d="M21.4101 57.4693C21.2405 57.4692 21.0746 57.4199 20.9325 57.3273C20.7904 57.2347 20.6783 57.1028 20.6098 56.9476L17.0482 48.9375C16.9642 48.7465 16.9509 48.5319 17.0107 48.332C17.0705 48.1322 17.1994 47.9601 17.3745 47.8466L21.8468 44.9579C21.9532 44.8894 22.0731 44.8447 22.1983 44.8269C22.3236 44.809 22.4512 44.8185 22.5725 44.8547C22.6937 44.8909 22.8057 44.9528 22.9007 45.0363C22.9957 45.1199 23.0715 45.223 23.123 45.3386L27.3472 54.8661C27.3987 54.982 27.4243 55.1076 27.4225 55.2344C27.4207 55.3612 27.3914 55.4861 27.3366 55.6004C27.2819 55.7148 27.203 55.8159 27.1053 55.8968C27.0077 55.9777 26.8937 56.0365 26.7712 56.0691L21.6276 57.4336C21.557 57.4547 21.4839 57.4667 21.4101 57.4693V57.4693ZM18.9633 48.9103L21.908 55.5526L25.3387 54.6367L21.9403 46.9902L18.9633 48.9103Z" fill="white"/>
<path d="M60.2475 40.5842C60.1629 40.5836 60.0788 40.571 59.9978 40.5469C59.8761 40.511 59.7637 40.4491 59.6684 40.3655C59.573 40.2818 59.497 40.1785 59.4455 40.0626L55.6444 31.4866C55.5932 31.3709 55.5677 31.2455 55.5696 31.119C55.5714 30.9926 55.6006 30.868 55.6552 30.7538C55.7098 30.6397 55.7884 30.5387 55.8857 30.4579C55.9829 30.377 56.0965 30.3181 56.2187 30.2853L60.8474 29.0567C61.0493 29.0028 61.2639 29.0229 61.4524 29.1132C61.6409 29.2036 61.7909 29.3583 61.8754 29.5495L65.0801 36.7508C65.1642 36.942 65.1776 37.1569 65.1178 37.3571C65.0581 37.5572 64.9291 37.7296 64.7539 37.8434L60.7233 40.4415C60.5815 40.5333 60.4165 40.5829 60.2475 40.5842V40.5842ZM57.6613 31.7143L60.6333 38.4143L63.1668 36.778L60.5772 30.9361L57.6613 31.7143Z" fill="white"/>
<path d="M42.5162 68.1267C41.9051 68.1268 41.3022 67.9858 40.7546 67.7146C40.207 67.4435 39.7294 67.0495 39.359 66.5634L31.1977 55.7343C31.1179 55.6293 31.0628 55.5076 31.0366 55.3783C31.0104 55.249 31.0138 55.1155 31.0465 54.9877C31.0791 54.8599 31.1403 54.7412 31.2253 54.6404C31.3104 54.5395 31.4171 54.4592 31.5375 54.4055L36.8731 52.0351C37.054 51.9546 37.2568 51.9378 37.4485 51.9875C37.6402 52.0372 37.8093 52.1504 37.9283 52.3086L45.4643 62.3102C45.799 62.7465 46.0304 63.253 46.141 63.7916C46.2517 64.3302 46.2388 64.8869 46.1032 65.4198C45.9659 65.945 45.711 66.432 45.3578 66.8442C45.0045 67.2563 44.5622 67.5827 44.0642 67.7987C43.5768 68.0151 43.0494 68.1268 42.5162 68.1267V68.1267ZM33.2605 55.5524L40.7592 65.5065C41.0531 65.895 41.4685 66.174 41.9394 66.2991C42.4102 66.4241 42.9094 66.3879 43.3573 66.1964V66.1964C43.6135 66.0883 43.8414 65.9226 44.0232 65.7122C44.205 65.5018 44.3359 65.2523 44.4057 64.9831C44.4755 64.7048 44.4812 64.4143 44.4223 64.1335C44.3634 63.8527 44.2416 63.5889 44.0659 63.3621L36.9495 53.9178L33.2605 55.5524Z" fill="white"/>
<path d="M37.8926 45.3693C37.7227 45.3693 37.5565 45.3201 37.4141 45.2275C37.2717 45.1349 37.1593 45.0029 37.0905 44.8476L34.1033 38.1085C34.0366 37.9569 34.0141 37.7895 34.0385 37.6256C34.0628 37.4617 34.133 37.3081 34.2409 37.1824L50.3835 18.4027C50.4798 18.2904 50.6029 18.2044 50.7413 18.1526C50.8798 18.1008 51.0291 18.085 51.1754 18.1065C51.3217 18.1281 51.4601 18.1863 51.5778 18.2758C51.6954 18.3654 51.7885 18.4832 51.8482 18.6185L59.1396 35.0652C59.2338 35.2775 59.2398 35.5184 59.1563 35.7351C59.0728 35.9518 58.9067 36.1265 58.6944 36.2207C58.4821 36.3149 58.2412 36.3209 58.0245 36.2374C57.8078 36.1539 57.6331 35.9877 57.5389 35.7755L50.8083 20.5964L35.9232 37.9046L38.6861 44.1339C38.7448 44.267 38.7696 44.4125 38.7583 44.5576C38.747 44.7026 38.6999 44.8425 38.6213 44.9649C38.5427 45.0872 38.435 45.1882 38.3078 45.2588C38.1807 45.3294 38.038 45.3673 37.8926 45.3693V45.3693Z" fill="white"/>
<path d="M37.8925 45.0717C37.7589 45.0711 37.6296 45.0248 37.526 44.9404C37.4224 44.856 37.3508 44.7387 37.3232 44.608C37.2956 44.4773 37.3136 44.341 37.3742 44.222C37.4348 44.1029 37.5344 44.0082 37.6564 43.9536L58.1132 34.8849C58.2541 34.8276 58.4116 34.8274 58.5526 34.8844C58.6935 34.9414 58.8067 35.051 58.8682 35.19C58.9296 35.3291 58.9345 35.4866 58.8817 35.6292C58.829 35.7717 58.7228 35.8881 58.5856 35.9537L38.1287 45.0292C38.0537 45.0594 37.9734 45.0738 37.8925 45.0717V45.0717Z" fill="white"/>
<path d="M65.6374 52.7421H65.6153L40.8543 52.0998C40.6887 52.0949 40.5277 52.0434 40.39 51.9511C40.2524 51.8588 40.1435 51.7295 40.0761 51.5781L37.0906 44.8441C37.0396 44.7383 37.0104 44.6233 37.0048 44.506C36.9992 44.3887 37.0171 44.2714 37.0577 44.1611C37.0982 44.0509 37.1605 43.9499 37.2408 43.8642C37.3212 43.7785 37.4179 43.7098 37.5253 43.6622C37.6327 43.6146 37.7485 43.5891 37.866 43.5871C37.9834 43.5852 38.1 43.6068 38.209 43.6508C38.3179 43.6948 38.4168 43.7602 38.5 43.8432C38.5831 43.9262 38.6487 44.025 38.6929 44.1339L41.461 50.3615L64.2815 50.9528L57.5526 35.7754C57.4584 35.5631 57.4524 35.3222 57.5358 35.1055C57.6193 34.8888 57.7855 34.7141 57.9977 34.6199C58.21 34.5257 58.451 34.5197 58.6677 34.6032C58.8844 34.6867 59.059 34.8529 59.1532 35.0651L66.4395 51.5102C66.4986 51.6437 66.5235 51.7899 66.5118 51.9354C66.5001 52.081 66.4523 52.2213 66.3726 52.3437C66.2929 52.4661 66.184 52.5666 66.0556 52.6362C65.9272 52.7058 65.7835 52.7422 65.6374 52.7421Z" fill="white"/>
</svg>
