<svg width="87" height="87" viewBox="0 0 87 87" fill="none" xmlns="http://www.w3.org/2000/svg">
<g clip-path="url(#clip0_767_1748)">
<circle cx="43" cy="44" r="42" fill="#5689A0"/>
<path d="M32.6463 52.4023C30.2068 52.4023 28.5748 49.576 28.5748 46.9363C28.5748 44.222 30.3273 42.1863 32.6463 42.1863C34.9653 42.1863 36.7262 44.2305 36.7262 46.9363C36.7262 49.5692 35.0858 52.4023 32.6463 52.4023ZM32.6463 43.9336C31.2976 43.9336 30.3188 45.1958 30.3188 46.9363C30.3188 48.8465 31.4503 50.6515 32.6463 50.6515C33.8423 50.6515 34.9755 48.8465 34.9755 46.9363C34.9755 45.189 33.9967 43.92 32.6463 43.92V43.9336Z" fill="white"/>
<path d="M41.8004 67.1986H24.5527C24.4324 67.199 24.3133 67.1744 24.203 67.1265C24.0926 67.0786 23.9934 67.0084 23.9115 66.9203C23.8296 66.8322 23.7668 66.7281 23.7271 66.6145C23.6874 66.501 23.6716 66.3805 23.6807 66.2605L24.2847 58.026C24.3557 57.0767 24.7103 56.1706 25.3025 55.4253L25.3144 55.4118C26.9006 53.5066 28.6835 53.2505 30.3664 53.2505H35.3794C37.0758 53.2505 38.8537 53.5134 40.4382 55.4185C40.9971 56.1126 41.365 56.9407 41.5053 57.8207L42.6605 66.2113C42.6775 66.3351 42.6677 66.4611 42.6319 66.5808C42.5961 66.7005 42.5351 66.8112 42.453 66.9054C42.3709 66.9995 42.2696 67.075 42.1558 67.1268C42.0421 67.1786 41.9186 67.2054 41.7936 67.2054L41.8004 67.1986ZM25.4942 65.4496H40.7978L39.78 58.0887C39.6904 57.5228 39.4567 56.9894 39.1014 56.5399C38.1514 55.3965 37.1793 54.9944 35.3811 54.9944H30.3664C28.5699 54.9944 27.5978 55.3965 26.6546 56.5297L26.6342 56.5535C26.278 57.0231 26.0653 57.5857 26.0218 58.1736L25.4942 65.4496Z" fill="white"/>
<path d="M53.7432 52.7636C51.3037 52.7636 49.6718 49.9373 49.6718 47.2976C49.6718 44.5833 51.4242 42.5476 53.7432 42.5476C56.0623 42.5476 57.8147 44.5918 57.8147 47.2976C57.8215 49.9373 56.1827 52.7636 53.7432 52.7636ZM53.7432 44.2949C52.3945 44.2949 51.4157 45.5571 51.4157 47.2976C51.4157 49.2078 52.5472 51.0129 53.7432 51.0129C54.9392 51.0129 56.0724 49.2078 56.0724 47.2976C56.0724 45.5571 55.0936 44.2949 53.7432 44.2949V44.2949Z" fill="white"/>
<path d="M62.3036 67.1986H45.6496C45.5294 67.1987 45.4104 67.174 45.3002 67.126C45.19 67.078 45.0909 67.0078 45.009 66.9197C44.9272 66.8317 44.8644 66.7277 44.8246 66.6142C44.7847 66.5008 44.7688 66.3803 44.7777 66.2605L45.3816 58.0259C45.4526 57.0766 45.8072 56.1706 46.3994 55.4253C47.9958 53.5066 49.7788 53.2437 51.4701 53.2437H51.711C51.8726 53.2436 52.031 53.2883 52.1687 53.3727C52.3064 53.4572 52.4181 53.5781 52.4914 53.7221L53.9775 56.6433L55.4601 53.7271C55.5334 53.5832 55.6451 53.4623 55.7828 53.3778C55.9205 53.2934 56.079 53.2487 56.2405 53.2487H56.4916C58.188 53.2487 59.9659 53.5117 61.5504 55.4168C62.1407 56.157 62.4963 57.0567 62.5716 58.0005L63.1756 66.2554C63.1847 66.3753 63.1689 66.4959 63.1292 66.6094C63.0895 66.723 63.0267 66.8271 62.9448 66.9152C62.8629 67.0033 62.7637 67.0735 62.6533 67.1214C62.543 67.1693 62.4239 67.1938 62.3036 67.1935V67.1986ZM46.5928 65.4496H61.3621L60.8277 58.1549C60.7812 57.5678 60.5642 57.007 60.2034 56.5415C59.306 55.4609 58.3899 55.0436 56.7749 54.9995L54.7578 58.9658C54.6842 59.1093 54.5724 59.2298 54.4347 59.3139C54.297 59.398 54.1388 59.4425 53.9775 59.4425C53.8161 59.4425 53.6579 59.398 53.5202 59.3139C53.3825 59.2298 53.2707 59.1093 53.1971 58.9658L51.1783 54.9995C49.565 55.0436 48.6489 55.4609 47.7566 56.5263C47.3873 56.9992 47.1676 57.5716 47.1255 58.1701L46.5928 65.4496Z" fill="white"/>
<path d="M33.4657 20.6602C40.8435 20.6602 46.8235 24.4873 46.8235 29.2068C46.8235 33.9263 40.8435 37.7552 33.4657 37.7552C31.1688 37.7679 28.888 37.3704 26.7308 36.5813L25.0174 41.1617L23.4652 34.8628C21.3819 33.3563 20.1062 31.38 20.1062 29.2085C20.1062 24.489 26.0879 20.6619 33.4657 20.6619V20.6602ZM33.4657 18.9111C24.9937 18.9111 18.3572 23.4338 18.3572 29.2085C18.3572 31.682 19.6142 34.0298 21.9197 35.879L23.3244 41.5807C23.4137 41.9439 23.6171 42.2688 23.9047 42.5079C24.1923 42.747 24.549 42.8875 24.9224 42.909H25.0242C25.3806 42.9089 25.7284 42.8 26.0212 42.5969C26.3141 42.3938 26.538 42.1061 26.663 41.7724L27.7911 38.7561C29.641 39.2568 31.5492 39.5101 33.4657 39.5093C41.9377 39.5093 48.5742 34.9849 48.5742 29.2102C48.5742 23.4355 41.9377 18.9128 33.4657 18.9128V18.9111Z" fill="white"/>
<path d="M53.3922 20.6601C60.77 20.6601 66.75 24.4873 66.75 29.2068C66.75 31.3783 65.476 33.3546 63.3927 34.8611L61.8405 41.1599L60.1254 36.5796C57.9688 37.3687 55.6886 37.7662 53.3922 37.7535C46.0144 37.7535 40.0327 33.9263 40.0327 29.2051C40.0327 24.4839 46.0144 20.6584 53.3922 20.6584V20.6601ZM53.3922 18.9077C44.9202 18.9077 38.2837 23.4304 38.2837 29.2051C38.2837 34.9798 44.9202 39.5093 53.3922 39.5093C55.3102 39.5123 57.2201 39.2607 59.0719 38.7612L60.2017 41.7775C60.3262 42.1112 60.5497 42.3989 60.8423 42.602C61.1349 42.8052 61.4826 42.9141 61.8388 42.9141H61.9423C62.3154 42.8923 62.6717 42.7515 62.9589 42.5125C63.2462 42.2734 63.4494 41.9487 63.5386 41.5858L64.945 35.884C67.2437 34.0349 68.5075 31.687 68.5075 29.2136C68.5075 23.4457 61.871 18.9162 53.399 18.9162L53.3922 18.9077Z" fill="white"/>
</g>
<defs>
<clipPath id="clip0_767_1748">
<rect width="87" height="87" fill="white"/>
</clipPath>
</defs>
</svg>
