<svg width="87" height="87" viewBox="0 0 87 87" fill="none" xmlns="http://www.w3.org/2000/svg">
<circle cx="43" cy="44" r="42" fill="#F5B01A"/>
<path d="M61.0869 48.5331C60.9011 48.5332 60.7201 48.4741 60.5701 48.3644C60.4201 48.2548 60.3089 48.1002 60.2526 47.9231L53.6257 27.1349C53.5872 27.0243 53.5712 26.907 53.5787 26.7902C53.5862 26.6733 53.6171 26.5591 53.6695 26.4543C53.7219 26.3496 53.7947 26.2564 53.8837 26.1803C53.9727 26.1041 54.0761 26.0466 54.1877 26.0111C54.2993 25.9755 54.4169 25.9627 54.5335 25.9734C54.6501 25.984 54.7635 26.0179 54.8668 26.0731C54.9701 26.1283 55.0613 26.2036 55.135 26.2946C55.2087 26.3856 55.2635 26.4905 55.296 26.603L61.923 47.3895C61.9934 47.611 61.973 47.8515 61.8663 48.0579C61.7595 48.2644 61.5752 48.42 61.3537 48.4906C61.2676 48.5189 61.1776 48.5333 61.0869 48.5331V48.5331Z" fill="white"/>
<path d="M44.8764 45.7448C44.705 45.7446 44.5375 45.6943 44.3944 45.5999C44.2514 45.5056 44.1391 45.3714 44.0715 45.2139C44.0039 45.0565 43.9839 44.8827 44.014 44.714C44.0441 44.5453 44.123 44.3891 44.2408 44.2648L55.7123 32.1918C55.8747 32.0335 56.0922 31.9442 56.3191 31.9429C56.5459 31.9415 56.7645 32.0282 56.9288 32.1846C57.0931 32.341 57.1904 32.555 57.2003 32.7816C57.2101 33.0083 57.1317 33.2299 56.9816 33.4L45.5119 45.4644C45.4307 45.552 45.3324 45.6221 45.2231 45.6703C45.1138 45.7186 44.9958 45.7439 44.8764 45.7448V45.7448Z" fill="white"/>
<path d="M33.0991 34.1663C32.8755 34.169 32.6593 34.086 32.495 33.9343C32.3307 33.7827 32.2306 33.5739 32.2154 33.3508C32.2002 33.1277 32.2709 32.9073 32.4132 32.7347C32.5554 32.5621 32.7582 32.4506 32.9801 32.4229L55.3945 29.3031C55.6226 29.2758 55.8523 29.339 56.0342 29.4793C56.2161 29.6195 56.3357 29.8255 56.3673 30.053C56.3989 30.2805 56.34 30.5113 56.2032 30.6958C56.0664 30.8804 55.8627 31.0038 55.6358 31.0397L33.2214 34.1544C33.181 34.1617 33.1401 34.1657 33.0991 34.1663V34.1663Z" fill="white"/>
<path d="M23.8435 48.3955C23.6712 48.3957 23.5026 48.3451 23.3589 48.2499C23.2153 48.1547 23.1029 48.0192 23.0359 47.8604C22.969 47.7017 22.9504 47.5266 22.9825 47.3573C23.0146 47.188 23.096 47.0319 23.2165 46.9087L34.3073 35.5001C34.4705 35.339 34.6904 35.2482 34.9198 35.2473C35.1492 35.2464 35.3697 35.3354 35.5343 35.4953C35.6988 35.6551 35.7941 35.873 35.7998 36.1024C35.8055 36.3317 35.7211 36.5541 35.5647 36.7219L24.4688 48.1304C24.3876 48.2142 24.2904 48.2808 24.183 48.3264C24.0756 48.3719 23.9602 48.3954 23.8435 48.3955V48.3955Z" fill="white"/>
<path d="M23.8673 58.2832C21.5646 58.284 19.3224 57.5462 17.47 56.1783C15.6177 54.8104 14.2529 52.8845 13.5761 50.6835C12.8994 48.4825 12.9464 46.1225 13.7102 43.9502C14.474 41.7779 15.9144 39.9079 17.8197 38.6148C18.9859 37.819 20.2987 37.2629 21.6816 36.9787C23.0646 36.6946 24.4903 36.6882 25.8757 36.9597C27.9632 37.3645 29.884 38.3785 31.3956 39.874C32.9072 41.3694 33.942 43.2791 34.3692 45.3621C34.7964 47.4451 34.5969 49.6079 33.796 51.5776C32.995 53.5473 31.6285 55.2356 29.8689 56.4294C28.1 57.6362 26.0086 58.2823 23.8673 58.2832V58.2832ZM23.8248 38.5145C21.7369 38.5223 19.7166 39.2553 18.1095 40.5882C16.5024 41.921 15.4083 43.7708 15.0143 45.8212C14.5652 48.1656 15.0644 50.5925 16.4023 52.5695C17.7402 54.5464 19.8076 55.9119 22.1511 56.3665C23.3114 56.59 24.5045 56.5826 25.662 56.3448C26.8195 56.1071 27.9189 55.6436 28.8972 54.9808C29.8755 54.3181 30.7137 53.469 31.3639 52.4823C32.014 51.4955 32.4633 50.3903 32.6862 49.2298V49.2298C32.9347 47.9267 32.8926 46.5849 32.5629 45.2999C32.2332 44.015 31.624 42.8187 30.7788 41.7962C29.9336 40.7738 28.8732 39.9505 27.6732 39.385C26.4732 38.8195 25.1632 38.5257 23.8367 38.5247L23.8248 38.5145Z" fill="white"/>
<path d="M60.9697 58.2832C59.3841 58.2825 57.8183 57.9317 56.3841 57.2559C54.9498 56.58 53.6824 55.5959 52.6725 54.3736C51.6625 53.1513 50.9349 51.7212 50.5416 50.1852C50.1483 48.6492 50.0989 47.0454 50.3971 45.4881C50.7864 43.4906 51.7351 41.6448 53.1329 40.1656C54.5306 38.6864 56.3198 37.6348 58.2921 37.1332C60.2644 36.6315 62.3386 36.7006 64.2732 37.3322C66.2078 37.9638 67.9232 39.1321 69.2195 40.7009C70.5158 42.2697 71.3397 44.1745 71.5953 46.1935C71.8509 48.2125 71.5277 50.2626 70.6632 52.1049C69.7987 53.9473 68.4287 55.5062 66.7125 56.6C64.9964 57.6938 63.0048 58.2775 60.9697 58.2832V58.2832ZM60.9289 38.5145C58.841 38.5223 56.8207 39.2553 55.2136 40.5882C53.6065 41.921 52.5124 43.7708 52.1184 45.8212C51.6691 48.1644 52.1671 50.5902 53.5033 52.5669C54.8395 54.5436 56.9048 55.91 59.2467 56.3665C60.4071 56.5904 61.6003 56.5834 62.758 56.3458C63.9156 56.1082 65.0152 55.6448 65.9936 54.982C66.9721 54.3192 67.8103 53.47 68.4603 52.483C69.1103 51.4959 69.5594 50.3905 69.7818 49.2298V49.2298C70.0322 47.9266 69.9915 46.5843 69.6626 45.2987C69.3338 44.0131 68.7249 42.816 67.8795 41.7932C67.0341 40.7703 65.9731 39.9469 64.7724 39.3819C63.5717 38.8169 62.261 38.5242 60.934 38.5247L60.9289 38.5145Z" fill="white"/>
<path d="M40.3496 45.308C40.2034 45.3081 40.0595 45.2716 39.931 45.2018C39.8025 45.1321 39.6935 45.0313 39.6139 44.9087L29.4729 29.3201C29.3545 29.1252 29.3166 28.8919 29.3673 28.6697C29.418 28.4474 29.5533 28.2536 29.7444 28.1294C29.9356 28.0051 30.1677 27.9603 30.3914 28.0043C30.6151 28.0483 30.8129 28.1777 30.9427 28.3651L41.0837 43.9537C41.1464 44.0502 41.1894 44.1581 41.2104 44.2712C41.2314 44.3844 41.2298 44.5005 41.2058 44.6131C41.1818 44.7256 41.1359 44.8323 41.0706 44.927C41.0053 45.0218 40.922 45.1028 40.8254 45.1653C40.6843 45.2586 40.5188 45.3083 40.3496 45.308V45.308Z" fill="white"/>
<path d="M38.8187 48.3954H23.8435C23.6109 48.3954 23.3879 48.3031 23.2235 48.1386C23.0591 47.9742 22.9667 47.7512 22.9667 47.5186C22.9667 47.2861 23.0591 47.0631 23.2235 46.8987C23.3879 46.7342 23.6109 46.6418 23.8435 46.6418H38.8187C39.0512 46.6418 39.2742 46.7342 39.4387 46.8987C39.6031 47.0631 39.6955 47.2861 39.6955 47.5186C39.6955 47.7512 39.6031 47.9742 39.4387 48.1386C39.2742 48.3031 39.0512 48.3954 38.8187 48.3954V48.3954Z" fill="white"/>
<path d="M35.0209 29.7193H27.8468C27.7285 29.7245 27.6104 29.7057 27.4996 29.664C27.3888 29.6224 27.2875 29.5587 27.202 29.4768C27.1165 29.395 27.0484 29.2967 27.0019 29.1878C26.9554 29.0789 26.9314 28.9617 26.9314 28.8433C26.9314 28.725 26.9554 28.6078 27.0019 28.4989C27.0484 28.39 27.1165 28.2917 27.202 28.2099C27.2875 28.128 27.3888 28.0643 27.4996 28.0227C27.6104 27.981 27.7285 27.9622 27.8468 27.9674H35.0209C35.1392 27.9622 35.2573 27.981 35.3681 28.0227C35.4789 28.0643 35.5801 28.128 35.6657 28.2099C35.7512 28.2917 35.8193 28.39 35.8658 28.4989C35.9123 28.6078 35.9363 28.725 35.9363 28.8433C35.9363 28.9617 35.9123 29.0789 35.8658 29.1878C35.8193 29.2967 35.7512 29.395 35.6657 29.4768C35.5801 29.5587 35.4789 29.6224 35.3681 29.664C35.2573 29.7057 35.1392 29.7245 35.0209 29.7193V29.7193Z" fill="white"/>
<path d="M54.4549 27.745C54.2348 27.7423 54.0238 27.657 53.8637 27.5059C53.7036 27.3549 53.6062 27.1492 53.5908 26.9296C53.5754 26.71 53.6431 26.4927 53.7805 26.3208C53.9179 26.1489 54.115 26.0349 54.3325 26.0016L61.0308 25.0483C61.1467 25.0276 61.2655 25.0305 61.3803 25.0567C61.495 25.083 61.6033 25.132 61.6986 25.201C61.794 25.27 61.8745 25.3574 61.9353 25.4581C61.9962 25.5589 62.0361 25.6708 62.0528 25.7873C62.0694 25.9039 62.0625 26.0225 62.0323 26.1363C62.0021 26.25 61.9494 26.3565 61.8771 26.4495C61.8049 26.5424 61.7147 26.6198 61.612 26.6772C61.5092 26.7345 61.3959 26.7706 61.2789 26.7832L54.5806 27.7365C54.5389 27.7418 54.4969 27.7446 54.4549 27.745V27.745Z" fill="white"/>
<path d="M42.3565 51.0172C41.5815 51.0189 40.8234 50.7906 40.1782 50.3613C39.5329 49.9319 39.0296 49.3208 38.7319 48.6053C38.4341 47.8898 38.3553 47.102 38.5055 46.3416C38.6557 45.5813 39.028 44.8826 39.5754 44.334C40.1229 43.7854 40.8207 43.4115 41.5807 43.2597C42.3407 43.1079 43.1287 43.185 43.8449 43.4812C44.561 43.7774 45.1732 44.2794 45.604 44.9237C46.0347 45.5679 46.2647 46.3255 46.2647 47.1005C46.2642 48.1377 45.8526 49.1324 45.12 49.8666C44.3874 50.6007 43.3936 51.0145 42.3565 51.0172V51.0172ZM42.3565 44.9357C41.9282 44.9354 41.5095 45.0621 41.1533 45.2997C40.7971 45.5374 40.5193 45.8754 40.3552 46.2709C40.1911 46.6665 40.148 47.1018 40.2314 47.5218C40.3147 47.9419 40.5207 48.3278 40.8234 48.6307C41.1261 48.9336 41.5118 49.1399 41.9318 49.2236C42.3518 49.3073 42.7871 49.2645 43.1828 49.1007C43.5785 48.9369 43.9167 48.6594 44.1546 48.3034C44.3926 47.9474 44.5196 47.5288 44.5196 47.1005C44.5191 46.5268 44.2911 45.9767 43.8856 45.5709C43.4801 45.165 42.9302 44.9366 42.3565 44.9357Z" fill="white"/>
<path d="M45.3691 54.047C45.208 54.0474 45.05 54.0034 44.9124 53.9197C44.7748 53.8361 44.6629 53.7161 44.5891 53.573L41.5968 47.7837C41.4956 47.5777 41.4792 47.3401 41.5512 47.1221C41.6232 46.9041 41.7778 46.7231 41.9818 46.6178C42.1858 46.5126 42.423 46.4916 42.6424 46.5593C42.8617 46.627 43.0458 46.778 43.155 46.98L46.1473 52.7692C46.217 52.9026 46.2511 53.0518 46.2461 53.2023C46.2412 53.3528 46.1974 53.4994 46.1191 53.628C46.0408 53.7565 45.9306 53.8627 45.7992 53.9361C45.6678 54.0095 45.5196 54.0477 45.3691 54.047V54.047Z" fill="white"/>
<path d="M43.8602 55.1328C43.6626 55.1337 43.4705 55.0678 43.3151 54.9456C43.1598 54.8235 43.0504 54.6523 43.0047 54.4601C42.959 54.2678 42.9797 54.0658 43.0635 53.8868C43.1472 53.7078 43.2891 53.5624 43.466 53.4744L47.0445 51.6715C47.2523 51.5669 47.4931 51.5492 47.7139 51.6222C47.9347 51.6951 48.1175 51.8529 48.2221 52.0606C48.3266 52.2684 48.3444 52.5091 48.2714 52.73C48.1984 52.9508 48.0407 53.1336 47.833 53.2382L44.2544 55.0393C44.132 55.1004 43.997 55.1324 43.8602 55.1328V55.1328Z" fill="white"/>
<path d="M65.6851 51.9094C65.575 51.9089 65.4673 51.8773 65.3743 51.8184C65.2814 51.7595 65.2069 51.6756 65.1593 51.5763C65.1118 51.477 65.0932 51.3663 65.1057 51.257C65.1181 51.1476 65.1611 51.044 65.2297 50.9579C65.7055 50.3633 66.0529 49.6765 66.2496 48.9409C66.4464 48.2052 66.4884 47.4368 66.373 46.684C66.2575 45.9313 65.9871 45.2108 65.5788 44.5679C65.1705 43.9251 64.6333 43.374 64.0011 42.9495C63.9337 42.9083 63.8752 42.854 63.8293 42.7897C63.7835 42.7253 63.7511 42.6524 63.7342 42.5752C63.7173 42.498 63.7163 42.4182 63.7311 42.3406C63.7459 42.263 63.7763 42.1892 63.8204 42.1237C63.8646 42.0581 63.9216 42.0022 63.9879 41.9593C64.0543 41.9165 64.1286 41.8875 64.2065 41.8741C64.2844 41.8608 64.3642 41.8634 64.441 41.8817C64.5179 41.9001 64.5902 41.9338 64.6536 41.9809C65.4199 42.4958 66.071 43.1642 66.5657 43.9436C67.0604 44.7231 67.388 45.5967 67.5277 46.5093C67.6675 47.4219 67.6163 48.3535 67.3775 49.2453C67.1387 50.1371 66.7175 50.9696 66.1404 51.6902C66.086 51.7588 66.0168 51.8141 65.9379 51.8521C65.859 51.8901 65.7726 51.9097 65.6851 51.9094Z" fill="white"/>
<path d="M23.8502 54.1763C23.4259 54.1759 23.0027 54.1355 22.586 54.0557C21.5393 53.8518 20.5568 53.3997 19.7211 52.7374C18.8853 52.0751 18.2207 51.2219 17.783 50.2495C17.3453 49.2771 17.1474 48.2139 17.2058 47.1492C17.2642 46.0844 17.5773 45.0492 18.1187 44.1305C18.1566 44.0621 18.2078 44.0021 18.2693 43.9538C18.3307 43.9056 18.4013 43.8701 18.4767 43.8496C18.5521 43.8291 18.6309 43.8239 18.7083 43.8344C18.7858 43.8448 18.8603 43.8707 18.9276 43.9105C18.9949 43.9502 19.0535 44.0031 19.1 44.0659C19.1465 44.1288 19.1799 44.2003 19.1983 44.2762C19.2167 44.3522 19.2196 44.4311 19.207 44.5082C19.1943 44.5853 19.1663 44.6591 19.1247 44.7253C18.6008 45.611 18.3364 46.6262 18.3618 47.6549C18.3872 48.6837 18.7013 49.6846 19.2683 50.5434C19.8353 51.4022 20.6323 52.0843 21.5684 52.5118C22.5044 52.9394 23.5418 53.0952 24.5622 52.9614C24.6389 52.95 24.7171 52.954 24.7922 52.9732C24.8674 52.9923 24.938 53.0262 24.9999 53.0729C25.0618 53.1196 25.1138 53.1782 25.1528 53.2451C25.1919 53.3121 25.2172 53.3862 25.2274 53.4631C25.2375 53.54 25.2323 53.6181 25.2119 53.6929C25.1916 53.7678 25.1565 53.8378 25.1089 53.899C25.0612 53.9601 25.0018 54.0112 24.9342 54.0492C24.8666 54.0872 24.7921 54.1113 24.7151 54.1202C24.4283 54.1574 24.1394 54.1762 23.8502 54.1763V54.1763Z" fill="white"/>
</svg>
