<svg width="40" height="40" viewBox="0 0 40 40" fill="none" xmlns="http://www.w3.org/2000/svg">
<path d="M32.8951 25.2601H14.3085L15.2418 23.3593L30.7477 23.3312C31.2721 23.3312 31.7215 22.9567 31.8152 22.4386L33.9625 10.419C34.0187 10.1037 33.9345 9.77912 33.7285 9.53255C33.6266 9.4112 33.4997 9.31345 33.3563 9.24608C33.2129 9.17871 33.0566 9.14333 32.8982 9.1424L13.1724 9.07686L13.0039 8.28408C12.8978 7.77845 12.4421 7.41016 11.924 7.41016H7.10177C6.80956 7.41016 6.52932 7.52624 6.3227 7.73286C6.11608 7.93948 6 8.21972 6 8.51193C6 8.80414 6.11608 9.08438 6.3227 9.291C6.52932 9.49762 6.80956 9.6137 7.10177 9.6137H11.0313L11.7679 13.1157L13.5813 21.8955L11.2467 25.7064C11.1254 25.8701 11.0524 26.0644 11.0359 26.2674C11.0193 26.4704 11.0599 26.6739 11.153 26.855C11.3403 27.2265 11.718 27.4605 12.1362 27.4605H14.0963C13.6784 28.0156 13.4527 28.6916 13.4534 29.3863C13.4534 31.1529 14.8891 32.5886 16.6557 32.5886C18.4222 32.5886 19.858 31.1529 19.858 29.3863C19.858 28.6903 19.627 28.013 19.215 27.4605H24.2432C23.8254 28.0156 23.5997 28.6916 23.6003 29.3863C23.6003 31.1529 25.036 32.5886 26.8026 32.5886C28.5692 32.5886 30.0049 31.1529 30.0049 29.3863C30.0049 28.6903 29.7739 28.013 29.3619 27.4605H32.8982C33.5037 27.4605 34 26.9674 34 26.3588C33.9982 26.0669 33.881 25.7875 33.674 25.5817C33.467 25.3759 33.187 25.2603 32.8951 25.2601ZM13.6313 11.2492L31.6029 11.3085L29.8426 21.1651L15.7256 21.1901L13.6313 11.2492ZM16.6557 30.3726C16.1126 30.3726 15.6694 29.9294 15.6694 29.3863C15.6694 28.8432 16.1126 28.4 16.6557 28.4C17.1988 28.4 17.642 28.8432 17.642 29.3863C17.642 29.6479 17.538 29.8987 17.3531 30.0837C17.1681 30.2687 16.9172 30.3726 16.6557 30.3726ZM26.8026 30.3726C26.2595 30.3726 25.8163 29.9294 25.8163 29.3863C25.8163 28.8432 26.2595 28.4 26.8026 28.4C27.3457 28.4 27.7889 28.8432 27.7889 29.3863C27.7889 29.6479 27.685 29.8987 27.5 30.0837C27.315 30.2687 27.0642 30.3726 26.8026 30.3726Z" fill="black" fill-opacity="0.16"/>
<rect x="1" y="1" width="38" height="38" rx="19" stroke="black" stroke-opacity="0.16" stroke-width="2"/>
</svg>
