<svg width="40" height="40" viewBox="0 0 40 40" fill="none" xmlns="http://www.w3.org/2000/svg">
<path d="M20 6C12.2688 6 6 12.2688 6 20C6 27.7313 12.2688 34 20 34C27.7313 34 34 27.7313 34 20C34 12.2688 27.7313 6 20 6ZM20 31.625C13.5813 31.625 8.375 26.4188 8.375 20C8.375 13.5813 13.5813 8.375 20 8.375C26.4188 8.375 31.625 13.5813 31.625 20C31.625 26.4188 26.4188 31.625 20 31.625ZM23.6781 13.2312C23.1812 13.1219 22.6031 13.0625 21.95 13.0625C18.6156 13.0625 16.3594 14.8031 15.7437 17.7469H14.75C14.6125 17.7469 14.5 17.8594 14.5 17.9969V18.8469C14.5 18.9844 14.6125 19.0969 14.75 19.0969H15.575C15.5656 19.225 15.5656 19.3594 15.5656 19.4969V20.65H14.75C14.6125 20.65 14.5 20.7625 14.5 20.9V21.75C14.5 21.8875 14.6125 22 14.75 22H15.6938C16.2313 25.1 18.5188 26.9375 21.95 26.9375C22.6031 26.9375 23.1812 26.8844 23.6781 26.7781C23.7938 26.7531 23.8781 26.6531 23.8781 26.5344V25.1969C23.8781 25.0406 23.7344 24.9219 23.5812 24.9531C23.1219 25.0406 22.5844 25.0812 21.9625 25.0812C19.8219 25.0812 18.3844 23.9375 17.9062 22H21.9875C22.125 22 22.2375 21.8875 22.2375 21.75V20.9C22.2375 20.7625 22.125 20.65 21.9875 20.65H17.725V19.525C17.725 19.3781 17.725 19.2312 17.7344 19.0938H21.9813C22.1188 19.0938 22.2313 18.9812 22.2313 18.8438V17.9937C22.2313 17.8562 22.1188 17.7437 21.9813 17.7437H17.9719C18.5094 15.9656 19.9188 14.9187 21.9594 14.9187C22.5813 14.9187 23.1188 14.9656 23.575 15.0562C23.6112 15.0636 23.6486 15.0629 23.6845 15.0541C23.7205 15.0453 23.754 15.0286 23.7827 15.0053C23.8113 14.982 23.8345 14.9526 23.8505 14.9193C23.8664 14.8859 23.8748 14.8495 23.875 14.8125V13.475C23.875 13.3563 23.7938 13.2562 23.6781 13.2312Z" fill="black" fill-opacity="0.16"/>
<rect x="1" y="1" width="38" height="38" rx="19" stroke="black" stroke-opacity="0.16" stroke-width="2"/>
</svg>
