<svg width="40" height="40" viewBox="0 0 40 40" fill="none" xmlns="http://www.w3.org/2000/svg">
<path d="M11.8333 31.8991C12.9871 31.8991 14.1149 31.557 15.0742 30.916C16.0334 30.275 16.7811 29.364 17.2226 28.2981C17.6641 27.2322 17.7797 26.0593 17.5546 24.9277C17.3295 23.7962 16.7739 22.7568 15.9581 21.941C15.1423 21.1252 14.1029 20.5696 12.9714 20.3445C11.8398 20.1194 10.6669 20.2349 9.60101 20.6765C8.53511 21.118 7.62407 21.8656 6.98309 22.8249C6.34212 23.7842 6 24.912 6 26.0658C6.00174 27.6123 6.61689 29.095 7.71047 30.1886C8.80405 31.2822 10.2868 31.8973 11.8333 31.8991ZM11.8333 22.0991C12.6179 22.0991 13.3848 22.3317 14.0371 22.7676C14.6894 23.2035 15.1978 23.823 15.4981 24.5478C15.7983 25.2726 15.8768 26.0702 15.7238 26.8396C15.5707 27.6091 15.1929 28.3159 14.6382 28.8706C14.0834 29.4254 13.3766 29.8032 12.6072 29.9562C11.8377 30.1093 11.0402 30.0307 10.3154 29.7305C9.59054 29.4303 8.97103 28.9218 8.53517 28.2695C8.09931 27.6172 7.86667 26.8503 7.86667 26.0658C7.86786 25.0141 8.28615 24.0058 9.02979 23.2622C9.77343 22.5186 10.7817 22.1003 11.8333 22.0991ZM22.3333 26.0658C22.3333 27.2195 22.6755 28.3473 23.3164 29.3066C23.9574 30.2659 24.8684 31.0135 25.9343 31.4551C27.0002 31.8966 28.1731 32.0121 29.3047 31.787C30.4362 31.5619 31.4756 31.0064 32.2915 30.1905C33.1073 29.3747 33.6628 28.3353 33.8879 27.2038C34.113 26.0722 33.9975 24.8993 33.556 23.8334C33.1145 22.7675 32.3668 21.8565 31.4075 21.2155C30.4482 20.5745 29.3204 20.2324 28.1667 20.2324C26.6201 20.2342 25.1374 20.8493 24.0438 21.9429C22.9502 23.0365 22.3351 24.5192 22.3333 26.0658ZM28.1667 22.0991C28.9512 22.0991 29.7181 22.3317 30.3704 22.7676C31.0227 23.2035 31.5312 23.823 31.8314 24.5478C32.1316 25.2726 32.2102 26.0702 32.0571 26.8396C31.9041 27.6091 31.5263 28.3159 30.9715 28.8706C30.4168 29.4254 29.71 29.8032 28.9405 29.9562C28.1711 30.1093 27.3735 30.0307 26.6487 29.7305C25.9239 29.4303 25.3044 28.9218 24.8685 28.2695C24.4326 27.6172 24.2 26.8503 24.2 26.0658C24.2012 25.0141 24.6195 24.0058 25.3631 23.2622C26.1068 22.5186 27.115 22.1003 28.1667 22.0991Z" fill="black" fill-opacity="0.16"/>
<path d="M23.6115 12.0765C24.7097 12.0765 25.6 11.1863 25.6 10.0881C25.6 8.98988 24.7097 8.09961 23.6115 8.09961C22.5133 8.09961 21.623 8.98988 21.623 10.0881C21.623 11.1863 22.5133 12.0765 23.6115 12.0765Z" fill="black" fill-opacity="0.16"/>
<path d="M16.2056 20.1344L19.0666 22.9571V28.1669H20.9333V22.762C20.9328 22.5766 20.8957 22.3932 20.8242 22.2222C20.7527 22.0512 20.6481 21.896 20.5165 21.7654L17.5256 18.8145L21.402 14.938L24.7949 18.4118C24.9256 18.545 25.0815 18.6508 25.2534 18.7232C25.4253 18.7956 25.6099 18.8331 25.7965 18.8335H27.4666V16.9669H25.993L20.5979 11.4434L20.5702 11.4705L20.0802 10.9805L13.5469 17.5138L16.1867 20.1536L16.2056 20.1344Z" fill="black" fill-opacity="0.16"/>
<rect x="1" y="1" width="38" height="38" rx="19" stroke="black" stroke-opacity="0.16" stroke-width="2"/>
</svg>
