<svg width="40" height="40" viewBox="0 0 40 40" fill="none" xmlns="http://www.w3.org/2000/svg">
<path d="M25.6824 6.28244L23.3799 3.92244L25.1674 2.17744L26.7224 3.76994L28.9474 3.74244C29.9106 3.73104 30.8662 3.91234 31.7583 4.27566C32.6503 4.63899 33.4607 5.17701 34.1418 5.85809C34.8229 6.53917 35.3609 7.34956 35.7242 8.2416C36.0875 9.13363 36.2688 10.0893 36.2574 11.0524L36.2324 13.2774L37.8224 14.8324C38.5111 15.5054 39.0583 16.3092 39.4319 17.1966C39.8055 18.084 39.9979 19.0371 39.9979 19.9999C39.9979 20.9628 39.8055 21.9159 39.4319 22.8033C39.0583 23.6907 38.5111 24.4945 37.8224 25.1674L36.2299 26.7224L36.2574 28.9474C36.2688 29.9106 36.0875 30.8662 35.7242 31.7583C35.3609 32.6503 34.8229 33.4607 34.1418 34.1418C33.4607 34.8229 32.6503 35.3609 31.7583 35.7242C30.8662 36.0875 29.9106 36.2688 28.9474 36.2574L26.7224 36.2324L25.1674 37.8224C24.4945 38.5111 23.6907 39.0583 22.8033 39.4319C21.9159 39.8055 20.9628 39.9979 19.9999 39.9979C19.0371 39.9979 18.084 39.8055 17.1966 39.4319C16.3092 39.0583 15.5054 38.5111 14.8324 37.8224L13.2774 36.2299L11.0524 36.2574C10.0893 36.2688 9.13363 36.0875 8.2416 35.7242C7.34956 35.3609 6.53917 34.8229 5.85809 34.1418C5.17701 33.4607 4.63899 32.6503 4.27566 31.7583C3.91234 30.8662 3.73104 29.9106 3.74244 28.9474L3.76744 26.7224L2.17744 25.1674C1.48879 24.4945 0.941593 23.6907 0.567999 22.8033C0.194405 21.9159 0.00195312 20.9628 0.00195312 19.9999C0.00195312 19.0371 0.194405 18.084 0.567999 17.1966C0.941593 16.3092 1.48879 15.5054 2.17744 14.8324L3.76994 13.2774L3.74244 11.0524C3.73104 10.0893 3.91234 9.13363 4.27566 8.2416C4.63899 7.34956 5.17701 6.53917 5.85809 5.85809C6.53917 5.17701 7.34956 4.63899 8.2416 4.27566C9.13363 3.91234 10.0893 3.73104 11.0524 3.74244L13.2774 3.76744L14.8324 2.17744C15.5054 1.48879 16.3092 0.941593 17.1966 0.567999C18.084 0.194405 19.0371 0.00195312 19.9999 0.00195312C20.9628 0.00195312 21.9159 0.194405 22.8033 0.567999C23.6907 0.941593 24.4945 1.48879 25.1674 2.17744L23.3799 3.92244C22.9398 3.47191 22.4141 3.1139 21.8337 2.86948C21.2532 2.62506 20.6298 2.49914 19.9999 2.49914C19.3701 2.49914 18.7467 2.62506 18.1662 2.86948C17.5858 3.1139 17.06 3.47191 16.6199 3.92244L14.3199 6.28244L11.0199 6.24244C10.3904 6.2354 9.76577 6.35425 9.1828 6.59201C8.59982 6.82977 8.07024 7.18163 7.62516 7.62694C7.18009 8.07225 6.8285 8.60201 6.59105 9.18511C6.3536 9.76821 6.23507 10.3929 6.24244 11.0224L6.28244 14.3174L3.92244 16.6199C3.47191 17.06 3.1139 17.5858 2.86948 18.1662C2.62506 18.7467 2.49914 19.3701 2.49914 19.9999C2.49914 20.6298 2.62506 21.2532 2.86948 21.8337C3.1139 22.4141 3.47191 22.9398 3.92244 23.3799L6.28244 25.6799L6.24244 28.9799C6.2354 29.6095 6.35425 30.2341 6.59201 30.8171C6.82977 31.4001 7.18163 31.9296 7.62694 32.3747C8.07225 32.8198 8.60201 33.1714 9.18511 33.4088C9.76821 33.6463 10.3929 33.7648 11.0224 33.7574L14.3174 33.7174L16.6199 36.0774C17.06 36.528 17.5858 36.886 18.1662 37.1304C18.7467 37.3748 19.3701 37.5007 19.9999 37.5007C20.6298 37.5007 21.2532 37.3748 21.8337 37.1304C22.4141 36.886 22.9398 36.528 23.3799 36.0774L25.6799 33.7174L28.9799 33.7574C29.6095 33.7645 30.2341 33.6456 30.8171 33.4079C31.4001 33.1701 31.9296 32.8182 32.3747 32.3729C32.8198 31.9276 33.1714 31.3979 33.4088 30.8148C33.6463 30.2317 33.7648 29.607 33.7574 28.9774L33.7174 25.6824L36.0774 23.3799C36.528 22.9398 36.886 22.4141 37.1304 21.8337C37.3748 21.2532 37.5007 20.6298 37.5007 19.9999C37.5007 19.3701 37.3748 18.7467 37.1304 18.1662C36.886 17.5858 36.528 17.06 36.0774 16.6199L33.7174 14.3199L33.7574 11.0199C33.7645 10.3904 33.6456 9.76577 33.4079 9.1828C33.1701 8.59982 32.8182 8.07024 32.3729 7.62516C31.9276 7.18009 31.3979 6.8285 30.8148 6.59105C30.2317 6.3536 29.607 6.23507 28.9774 6.24244L25.6824 6.28244V6.28244Z" fill="#217438"/>
</svg>
