<svg width="15" height="12" viewBox="0 0 15 12" fill="none" xmlns="http://www.w3.org/2000/svg">
<path fill-rule="evenodd" clip-rule="evenodd" d="M13.8846 1.36479C14.001 1.48091 14.0934 1.61885 14.1564 1.77071C14.2194 1.92257 14.2519 2.08537 14.2519 2.24979C14.2519 2.41421 14.2194 2.57701 14.1564 2.72888C14.0934 2.88074 14.001 3.01868 13.8846 3.13479L6.38463 10.6348C6.26851 10.7512 6.13057 10.8436 5.97871 10.9066C5.82685 10.9696 5.66404 11.002 5.49963 11.002C5.33521 11.002 5.1724 10.9696 5.02054 10.9066C4.86868 10.8436 4.73074 10.7512 4.61463 10.6348L0.864626 6.88479C0.748406 6.76857 0.656215 6.6306 0.593318 6.47875C0.53042 6.3269 0.498047 6.16415 0.498047 5.99979C0.498047 5.83543 0.53042 5.67268 0.593318 5.52083C0.656215 5.36898 0.748406 5.23101 0.864626 5.11479C0.980846 4.99857 1.11882 4.90638 1.27067 4.84348C1.42252 4.78059 1.58527 4.74821 1.74963 4.74821C1.91399 4.74821 2.07674 4.78059 2.22859 4.84348C2.38043 4.90638 2.51841 4.99857 2.63463 5.11479L5.49963 7.98229L12.1146 1.36479C12.2307 1.24838 12.3687 1.15603 12.5205 1.09301C12.6724 1.02999 12.8352 0.997559 12.9996 0.997559C13.164 0.997559 13.3268 1.02999 13.4787 1.09301C13.6306 1.15603 13.7685 1.24838 13.8846 1.36479Z" fill="#217438"/>
</svg>
