<svg width="127" height="662" viewBox="0 0 127 662" fill="none" xmlns="http://www.w3.org/2000/svg">
<circle cx="63" cy="64" r="42" fill="#A03C7D"/>
<path d="M75.5118 71.8925H49.1739C48.9483 71.8826 48.7352 71.7859 48.579 71.6227C48.4229 71.4596 48.3357 71.2424 48.3357 71.0166C48.3357 70.7907 48.4229 70.5735 48.579 70.4104C48.7352 70.2472 48.9483 70.1505 49.1739 70.1406H75.5118C76.6886 70.1429 77.8356 69.7709 78.7871 69.0784C79.7385 68.386 80.4452 67.4089 80.8049 66.2885L84.6978 54.2393H46.7101C46.5918 54.2445 46.4737 54.2257 46.3629 54.1841C46.252 54.1424 46.1508 54.0787 46.0653 53.9969C45.9797 53.915 45.9117 53.8167 45.8652 53.7078C45.8187 53.5989 45.7947 53.4818 45.7947 53.3634C45.7947 53.245 45.8187 53.1278 45.8652 53.0189C45.9117 52.9101 45.9797 52.8117 46.0653 52.7299C46.1508 52.648 46.252 52.5843 46.3629 52.5427C46.4737 52.501 46.5918 52.4822 46.7101 52.4874H85.9008C86.039 52.4875 86.1751 52.5202 86.2982 52.5828C86.4213 52.6455 86.5278 52.7363 86.6092 52.8479C86.6905 52.9596 86.7443 53.0889 86.7662 53.2252C86.7881 53.3616 86.7775 53.5012 86.7352 53.6327L82.4718 66.8271C81.9992 68.3006 81.07 69.5856 79.8189 70.4962C78.5677 71.4068 77.0593 71.8958 75.5118 71.8925Z" fill="white"/>
<path d="M77.9212 80.307H54.1968C52.7063 80.3066 51.2678 79.7597 50.1536 78.7698C49.0394 77.7799 48.3268 76.4158 48.1509 74.9358L45.1926 50.9768C45.1044 50.2153 44.7397 49.5126 44.1678 49.0021C43.5959 48.4915 42.8565 48.2087 42.0898 48.2071H35.8027C35.6844 48.2123 35.5663 48.1935 35.4555 48.1518C35.3447 48.1102 35.2435 48.0465 35.1579 47.9646C35.0724 47.8828 35.0043 47.7844 34.9578 47.6756C34.9113 47.5667 34.8873 47.4495 34.8873 47.3311C34.8873 47.2128 34.9113 47.0956 34.9578 46.9867C35.0043 46.8778 35.0724 46.7795 35.1579 46.6977C35.2435 46.6158 35.3447 46.5521 35.4555 46.5105C35.5663 46.4688 35.6844 46.45 35.8027 46.4552H42.0898C43.2832 46.4563 44.4348 46.8944 45.3271 47.6868C46.2194 48.4792 46.7905 49.571 46.9326 50.7559L49.8909 74.7234C50.0154 75.7781 50.5225 76.7504 51.3161 77.456C52.1098 78.1617 53.1348 78.5516 54.1968 78.5517H77.9212C78.1538 78.5517 78.3768 78.6441 78.5412 78.8085C78.7057 78.973 78.798 79.196 78.798 79.4285C78.798 79.6611 78.7057 79.8841 78.5412 80.0485C78.3768 80.213 78.1538 80.3053 77.9212 80.3053V80.307Z" fill="white"/>
<path d="M53.1347 88.5567C51.3642 88.5567 49.9232 87.0512 49.9232 85.2024C49.9232 83.3537 51.3659 81.8516 53.1347 81.8516C54.9036 81.8516 56.348 83.3571 56.348 85.2092C56.348 87.0614 54.9087 88.5567 53.1347 88.5567ZM53.1347 83.5984C52.331 83.5984 51.6751 84.3171 51.6751 85.2024C51.6751 86.0877 52.331 86.8048 53.1347 86.8048C53.9385 86.8048 54.5944 86.086 54.5944 85.2024C54.5944 84.3188 53.9419 83.5984 53.1347 83.5984Z" fill="white"/>
<path d="M74.9392 88.5567C73.1669 88.5567 71.726 87.0512 71.726 85.2024C71.726 83.3537 73.1669 81.8516 74.9392 81.8516C76.7115 81.8516 78.1507 83.3571 78.1507 85.2092C78.1507 87.0614 76.7098 88.5567 74.9392 88.5567ZM74.9392 83.5984C74.1337 83.5984 73.4795 84.3171 73.4795 85.2024C73.4795 86.0877 74.1337 86.8048 74.9392 86.8048C75.7446 86.8048 76.3988 86.086 76.3988 85.2024C76.3988 84.3188 75.7429 83.5984 74.9392 83.5984Z" fill="white"/>
<path d="M53.1348 71.6019C52.9798 71.6019 52.8311 71.5403 52.7215 71.4307C52.6119 71.3211 52.5503 71.1724 52.5503 71.0174V53.3625C52.5503 53.2075 52.6119 53.0588 52.7215 52.9492C52.8311 52.8395 52.9798 52.778 53.1348 52.778C53.2899 52.778 53.4385 52.8395 53.5482 52.9492C53.6578 53.0588 53.7194 53.2075 53.7194 53.3625V71.0174C53.7194 71.1724 53.6578 71.3211 53.5482 71.4307C53.4385 71.5403 53.2899 71.6019 53.1348 71.6019Z" fill="white"/>
<path d="M59.3336 71.6019C59.1785 71.6019 59.0298 71.5403 58.9202 71.4307C58.8106 71.3211 58.749 71.1724 58.749 71.0174V53.3625C58.7571 53.2131 58.8221 53.0725 58.9307 52.9697C59.0392 52.8668 59.1831 52.8094 59.3327 52.8094C59.4823 52.8094 59.6262 52.8668 59.7347 52.9697C59.8433 53.0725 59.9083 53.2131 59.9164 53.3625V71.0174C59.9164 71.1721 59.855 71.3205 59.7458 71.4301C59.6365 71.5397 59.4883 71.6014 59.3336 71.6019Z" fill="white"/>
<path d="M65.5289 71.0123C65.3738 71.0123 65.2252 70.9507 65.1155 70.8411C65.0059 70.7314 64.9443 70.5828 64.9443 70.4277V53.3625C64.9443 53.2075 65.0059 53.0588 65.1155 52.9492C65.2252 52.8395 65.3738 52.778 65.5289 52.778C65.6839 52.778 65.8326 52.8395 65.9422 52.9492C66.0518 53.0588 66.1134 53.2075 66.1134 53.3625V70.4277C66.1134 70.5828 66.0518 70.7314 65.9422 70.8411C65.8326 70.9507 65.6839 71.0123 65.5289 71.0123Z" fill="white"/>
<path d="M71.7242 71.6019C71.5692 71.6019 71.4205 71.5403 71.3109 71.4307C71.2012 71.3211 71.1396 71.1724 71.1396 71.0174V53.3625C71.1396 53.2075 71.2012 53.0588 71.3109 52.9492C71.4205 52.8395 71.5692 52.778 71.7242 52.778C71.8792 52.778 72.0279 52.8395 72.1375 52.9492C72.2471 53.0588 72.3087 53.2075 72.3087 53.3625V71.0174C72.3087 71.1724 72.2471 71.3211 72.1375 71.4307C72.0279 71.5403 71.8792 71.6019 71.7242 71.6019Z" fill="white"/>
<path d="M77.9213 71.0123C77.7663 71.0123 77.6176 70.9507 77.508 70.8411C77.3984 70.7314 77.3368 70.5828 77.3368 70.4277V53.3625C77.3449 53.2131 77.4099 53.0725 77.5184 52.9697C77.627 52.8668 77.7709 52.8094 77.9205 52.8094C78.07 52.8094 78.2139 52.8668 78.3225 52.9697C78.4311 53.0725 78.4961 53.2131 78.5042 53.3625V70.4277C78.5042 70.5825 78.4428 70.7309 78.3336 70.8405C78.2243 70.95 78.0761 71.0118 77.9213 71.0123Z" fill="white"/>
<path d="M82.7487 62.7744H47.405C47.2499 62.7744 47.1013 62.7128 46.9916 62.6032C46.882 62.4936 46.8204 62.3449 46.8204 62.1899C46.8204 62.0348 46.882 61.8862 46.9916 61.7766C47.1013 61.6669 47.2499 61.6053 47.405 61.6053H82.7487C82.9037 61.6053 83.0524 61.6669 83.162 61.7766C83.2717 61.8862 83.3332 62.0348 83.3332 62.1899C83.3332 62.3449 83.2717 62.4936 83.162 62.6032C83.0524 62.7128 82.9037 62.7744 82.7487 62.7744Z" fill="white"/>
<circle cx="63" cy="171" r="42" fill="#95C11E"/>
<path d="M40.6319 187.927H40.2513C38.914 187.907 37.067 187.005 37.067 185.025C37.067 184.947 37.067 184.867 37.067 184.787C37.067 184.617 37.0551 184.459 37.067 184.291L37.2658 163.873C35.9523 163.28 35.7569 161.775 35.7586 160.327C35.7586 159.933 36.0355 153.569 36.0984 152.298C36.1145 152.068 36.2183 151.853 36.3884 151.697C36.5585 151.541 36.7819 151.456 37.0126 151.46C37.1276 151.466 37.2405 151.493 37.3448 151.542C37.449 151.591 37.5427 151.66 37.6203 151.745C37.6979 151.83 37.758 151.93 37.7972 152.038C37.8364 152.146 37.8538 152.261 37.8486 152.376C37.7144 155.391 37.5088 159.992 37.5189 160.318C37.5189 162.237 37.9098 162.298 38.2904 162.357C38.4984 162.39 38.6877 162.496 38.8237 162.657C38.9597 162.818 39.0334 163.022 39.0313 163.232L38.8155 184.349C38.8155 184.498 38.8155 184.615 38.8155 184.729C38.8155 184.843 38.8155 184.933 38.8155 185.033C38.8155 186.104 40.2462 186.182 40.2921 186.184C40.3668 186.184 41.835 186.148 41.835 185.033C41.835 184.932 41.835 184.83 41.835 184.726C41.835 184.622 41.8435 184.493 41.835 184.376L41.665 163.231C41.6611 163.015 41.737 162.805 41.878 162.641C42.0191 162.478 42.2155 162.372 42.4297 162.344C42.8188 162.284 43.1553 162.232 43.1536 160.317C43.1536 159.977 42.9564 155.377 42.8222 152.363C42.817 152.248 42.8344 152.133 42.8736 152.024C42.9128 151.916 42.9729 151.817 43.0505 151.731C43.1281 151.646 43.2218 151.578 43.326 151.529C43.4303 151.48 43.5432 151.452 43.6582 151.447C43.8897 151.44 44.1148 151.523 44.2856 151.68C44.4563 151.836 44.5592 152.053 44.5724 152.284C44.6302 153.555 44.9122 159.919 44.9122 160.327C44.9122 161.832 44.7185 163.282 43.4509 163.859L43.6208 184.32C43.6208 184.454 43.6208 184.617 43.6208 184.777C43.6208 184.858 43.6208 184.947 43.6208 185.02C43.6208 186.819 42.2105 187.652 40.9735 187.864C40.865 187.908 40.7488 187.93 40.6319 187.927Z" fill="white"/>
<path d="M89.5235 152.206C90.6535 152.206 90.3119 154.572 90.3119 158.633C90.3119 161.199 90.3646 185.232 90.3646 185.232C90.3687 185.363 90.3631 185.493 90.3476 185.623C90.2882 186.5 89.7104 187.188 88.7249 187.195C88.2964 187.194 87.8841 187.031 87.5705 186.739C87.257 186.447 87.0654 186.047 87.0342 185.62C87.0198 185.493 87.0141 185.365 87.0172 185.237L87.5711 170.24C87.5912 169.769 87.4998 169.3 87.3043 168.871C86.6671 167.426 86.193 163.797 86.193 161.323C86.193 156.995 88.12 152.211 89.5252 152.211L89.5235 152.206ZM89.5235 150.449C86.1845 150.449 84.4377 157.521 84.4377 161.312C84.4377 163.91 84.9203 167.805 85.7003 169.569C85.7845 169.75 85.8253 169.947 85.8192 170.147L85.2636 185.163C85.2585 185.366 85.2664 185.57 85.2874 185.773C85.3617 186.618 85.743 187.406 86.3591 187.989C86.9753 188.572 87.7836 188.909 88.6314 188.937H88.7657C90.5991 188.897 91.9483 187.606 92.0927 185.774C92.1133 185.585 92.1212 185.394 92.1165 185.203C92.1165 184.389 92.0655 161.131 92.0655 158.628C92.0655 157.798 92.0791 157.041 92.0927 156.361C92.1437 153.642 92.1726 152.133 91.204 151.146C90.9847 150.923 90.7229 150.747 90.4343 150.627C90.1457 150.508 89.836 150.447 89.5235 150.449Z" fill="white"/>
<path d="M40.3294 160.15C40.1744 160.15 40.0257 160.088 39.9161 159.979C39.8065 159.869 39.7449 159.721 39.7449 159.566V152.329C39.7449 152.174 39.8065 152.025 39.9161 151.915C40.0257 151.806 40.1744 151.744 40.3294 151.744C40.4844 151.744 40.6331 151.806 40.7427 151.915C40.8524 152.025 40.9139 152.174 40.9139 152.329V159.566C40.9139 159.721 40.8524 159.869 40.7427 159.979C40.6331 160.088 40.4844 160.15 40.3294 160.15Z" fill="white"/>
<path d="M64.2986 152.67C67.687 152.67 70.9992 153.675 73.8165 155.557C76.6338 157.44 78.8296 160.116 80.1262 163.246C81.4228 166.377 81.762 169.821 81.1008 173.144C80.4396 176.468 78.8079 179.52 76.4118 181.916C74.0157 184.312 70.963 185.943 67.6397 186.604C64.3164 187.265 60.8718 186.925 57.7415 185.629C54.6111 184.332 51.9357 182.136 50.0534 179.318C48.1712 176.501 47.1667 173.188 47.1671 169.8C47.1671 167.55 47.6102 165.323 48.4712 163.244C49.3321 161.166 50.594 159.277 52.1849 157.687C53.7757 156.096 55.6643 154.834 57.7428 153.974C59.8212 153.113 62.0489 152.67 64.2986 152.67ZM64.2986 150.917C60.5638 150.917 56.9129 152.024 53.8075 154.099C50.7022 156.174 48.2818 159.123 46.8526 162.574C45.4233 166.024 45.0494 169.821 45.778 173.484C46.5066 177.147 48.3051 180.512 50.946 183.153C53.5869 185.793 56.9516 187.592 60.6146 188.32C64.2776 189.049 68.0745 188.675 71.525 187.246C74.9755 185.817 77.9246 183.396 79.9996 180.291C82.0745 177.186 83.182 173.535 83.182 169.8C83.1766 164.793 81.1854 159.993 77.6452 156.453C74.1051 152.913 69.3051 150.922 64.2986 150.917Z" fill="white"/>
<path d="M58.6573 184.135C58.5458 184.135 58.4351 184.117 58.3293 184.082C57.6394 183.851 56.1373 182.495 56.1577 181.587C56.1679 181.149 56.4177 180.738 56.6675 180.335C56.7949 180.123 56.9903 179.803 56.9971 179.674C57.0515 178.675 56.4466 177.737 55.8077 176.745C55.6377 176.491 55.478 176.235 55.3251 175.983C55.1769 175.743 55.0152 175.512 54.8408 175.29C54.3599 174.655 53.8213 173.931 54.3107 173.005C54.3228 172.981 54.33 172.956 54.3321 172.929C54.3341 172.903 54.3309 172.877 54.3225 172.852C54.2967 172.778 54.2431 172.717 54.173 172.682C53.6276 172.403 53.2996 172.031 52.9513 171.637C52.4217 171.002 51.79 170.46 51.0821 170.033C50.777 169.881 50.4513 169.775 50.1153 169.718C48.1459 169.261 46.428 168.43 47.0091 163.355C47.0149 163.276 47.0365 163.2 47.0726 163.13C47.1086 163.06 47.1585 162.998 47.2191 162.948C47.2798 162.897 47.35 162.86 47.4254 162.837C47.5009 162.815 47.5802 162.808 47.6584 162.817C47.7366 162.826 47.8123 162.85 47.8807 162.889C47.9492 162.928 48.0091 162.981 48.0569 163.043C48.1046 163.106 48.1392 163.177 48.1586 163.254C48.178 163.33 48.1818 163.41 48.1697 163.487C47.6599 167.948 48.9802 168.255 50.3787 168.585C50.8394 168.666 51.284 168.821 51.6956 169.044C52.4972 169.529 53.2131 170.143 53.8145 170.862C54.122 171.21 54.3446 171.462 54.693 171.64C54.8659 171.728 55.0197 171.85 55.1454 171.998C55.2711 172.146 55.3663 172.317 55.4253 172.502C55.4804 172.675 55.5002 172.857 55.4836 173.038C55.467 173.219 55.4142 173.395 55.3285 173.555C55.2078 173.783 55.2758 173.946 55.7601 174.585C55.9602 174.84 56.1457 175.106 56.3157 175.382C56.4619 175.625 56.6199 175.868 56.7762 176.111C57.4916 177.215 58.2307 178.359 58.156 179.739C58.1322 180.158 57.8909 180.556 57.6581 180.94C57.5341 181.146 57.3268 181.487 57.3183 181.62C57.3777 181.917 58.3021 182.848 58.6912 182.979C58.9376 182.96 59.7481 182.233 60.0506 181.96C60.2052 181.819 60.3429 181.698 60.4482 181.62C62.3683 180.08 63.9826 177.385 62.7575 174.441C62.6334 174.143 62.4006 174.046 61.9265 173.875C61.5051 173.722 60.9818 173.535 60.5672 173.054C59.167 171.47 58.9002 171.543 58.6844 171.601C58.2383 171.746 57.7531 171.707 57.3353 171.494C55.8349 170.814 54.4653 168.853 54.4075 168.775C54.3219 168.652 54.2877 168.5 54.3123 168.352C54.4279 167.623 54.9258 167.221 55.3319 166.896C55.4406 166.809 55.5494 166.726 55.6462 166.629C56.5272 165.81 57.5736 165.188 58.715 164.808L59.0107 164.712C59.9113 164.43 60.3701 164.288 60.7898 162.089C60.9036 161.506 60.4499 161.09 59.9826 160.899C59.094 160.524 58.3701 160.73 57.4933 161.176C57.1653 161.346 56.6335 161.382 55.964 160.599C55.9521 160.583 54.6981 159.091 55.2163 158.39C55.9453 157.402 57.337 157.112 58.3548 156.901C58.5706 156.857 58.8442 156.799 59.0175 156.748C58.8968 156.084 57.461 155.294 55.3625 154.767C55.2857 154.751 55.2131 154.719 55.1489 154.674C55.0847 154.629 55.0302 154.571 54.9887 154.505C54.9472 154.438 54.9195 154.364 54.9073 154.286C54.8951 154.209 54.8987 154.13 54.9177 154.053C54.9368 153.977 54.971 153.906 55.0182 153.843C55.0655 153.781 55.1249 153.728 55.1929 153.689C55.2609 153.65 55.3361 153.625 55.4139 153.615C55.4918 153.606 55.5708 153.612 55.6462 153.634C57.5154 154.101 60.574 155.183 60.1594 157.168C60.0404 157.744 59.4321 157.87 58.5927 158.045C57.8331 158.203 56.8153 158.415 56.2919 158.93C56.4279 159.278 56.8374 159.897 57.0838 160.075C58.0404 159.601 59.1109 159.266 60.4312 159.826C61.5459 160.295 62.1305 161.273 61.9333 162.32C61.41 165.01 60.6097 165.443 59.3556 165.836L59.0787 165.924C58.1025 166.252 57.2067 166.782 56.45 167.481C56.3293 167.596 56.1968 167.705 56.0608 167.82C55.8549 167.964 55.6765 168.144 55.5341 168.351C55.9096 168.847 56.8714 170.024 57.8144 170.449C57.8988 170.498 57.9932 170.528 58.0906 170.536C58.188 170.543 58.2859 170.529 58.3769 170.493C59.2112 170.269 59.8212 170.468 61.4355 172.301C61.6598 172.556 61.969 172.667 62.3259 172.797C62.8526 172.988 63.5153 173.227 63.8365 174.012C65.3131 177.559 63.3267 180.83 61.1789 182.551C61.0854 182.626 60.9665 182.734 60.839 182.857C60.0438 183.54 59.3182 184.135 58.6573 184.135Z" fill="white"/>
<path d="M63.7023 159.214C63.3494 159.212 63.0114 159.072 62.7609 158.823C62.5624 158.619 62.409 158.376 62.3106 158.109C62.2122 157.842 62.1711 157.557 62.19 157.273C62.2155 156.999 62.2626 156.727 62.331 156.459C62.418 156.169 62.4531 155.866 62.4346 155.564C62.3752 155.168 61.9487 154.811 61.4678 154.752C61.3035 154.731 61.1449 154.678 61.0016 154.595C60.8583 154.512 60.7331 154.401 60.6335 154.269C60.5298 154.134 60.4541 153.979 60.4109 153.814C60.3677 153.648 60.3579 153.476 60.382 153.307L60.5213 152.315C60.5325 152.239 60.5585 152.166 60.5979 152.1C60.6373 152.034 60.6892 151.977 60.7509 151.931C60.8125 151.885 60.8825 151.852 60.957 151.833C61.0315 151.814 61.1089 151.81 61.1849 151.821C61.2608 151.833 61.3339 151.859 61.3998 151.898C61.4657 151.937 61.5233 151.989 61.5691 152.051C61.6149 152.113 61.6482 152.183 61.667 152.257C61.6857 152.332 61.6896 152.409 61.6785 152.485L61.5375 153.479C61.5342 153.51 61.5426 153.542 61.5612 153.567C62.6165 153.724 63.4491 154.478 63.5901 155.392C63.6369 155.841 63.5959 156.294 63.4695 156.726C63.4159 156.935 63.3779 157.147 63.3556 157.362C63.3485 157.475 63.3639 157.589 63.401 157.696C63.438 157.803 63.4959 157.902 63.5714 157.987C63.6462 158.058 63.6938 158.053 63.7209 158.05C63.8688 158.035 63.9979 157.829 64.1933 157.491C64.3599 157.159 64.5856 156.861 64.8594 156.611C65.2842 156.259 65.7957 156.167 66.2477 156.086C66.5295 156.056 66.8036 155.975 67.0565 155.848C67.24 155.639 67.6529 154.235 67.9197 152.811C67.934 152.736 67.963 152.664 68.0051 152.6C68.0471 152.535 68.1014 152.48 68.1648 152.437C68.2283 152.394 68.2996 152.363 68.3747 152.348C68.4499 152.332 68.5274 152.331 68.6028 152.346C68.6782 152.36 68.7501 152.389 68.8143 152.431C68.8785 152.473 68.9338 152.527 68.9771 152.591C69.0203 152.654 69.0506 152.725 69.0663 152.801C69.082 152.876 69.0827 152.953 69.0684 153.029C68.7846 154.539 68.3156 156.427 67.6903 156.828C67.31 157.047 66.8891 157.185 66.4533 157.236C66.1135 157.297 65.7923 157.355 65.6037 157.51C65.4425 157.676 65.3078 157.866 65.2044 158.074C64.9478 158.519 64.596 159.131 63.845 159.212C63.7975 159.215 63.7498 159.216 63.7023 159.214Z" fill="white"/>
<path d="M73.3283 181.749C72.4515 181.749 72.0148 180.592 71.3113 176.417C71.2688 176.169 71.2314 175.956 71.2042 175.8C70.9969 174.67 69.8839 173.869 67.7055 173.28C67.3077 173.179 66.9343 172.998 66.6076 172.749C66.2809 172.501 66.0077 172.189 65.8041 171.832C65.6409 171.537 65.5396 171.212 65.5063 170.877C65.473 170.541 65.5084 170.203 65.6104 169.881C65.8288 169.31 66.0824 168.753 66.37 168.213C66.8627 167.326 67.7293 166.157 69.5577 166.24C69.9978 166.26 72.2459 166.379 73.3843 166.731C73.9723 166.913 74.6553 166.687 74.861 166.507C74.6791 166.235 74.0402 165.756 73.782 165.718C73.5916 165.691 73.3843 165.683 73.1685 165.674C72.4549 165.644 71.5084 165.603 70.7794 164.91L69.3657 165.35C68.9341 165.552 68.3173 165.491 67.6937 165.18C67.3793 165.025 66.6384 164.592 66.5348 163.893C66.4792 163.539 66.5071 163.177 66.6163 162.835C66.7254 162.494 66.9128 162.182 67.1635 161.926C67.9893 161.076 69.4404 160.779 71.471 161.032L71.5917 161.047C72.4922 161.163 73.3436 161.27 73.9876 160.76C74.0633 160.711 74.1172 160.635 74.1381 160.547C74.1589 160.46 74.1452 160.367 74.0997 160.289C73.6868 159.756 72.9646 159.338 72.6724 159.462C71.9808 159.751 71.087 158.519 71.0768 158.507C70.46 157.647 70.8117 157.078 70.9918 156.872C71.0751 156.779 71.2008 156.653 71.3504 156.503C71.7769 156.082 72.5687 155.295 72.652 154.772C72.6812 154.624 72.7669 154.492 72.891 154.406C73.015 154.319 73.1679 154.284 73.3173 154.308C73.4667 154.331 73.6011 154.412 73.6922 154.533C73.7833 154.654 73.824 154.805 73.8057 154.955C73.663 155.854 72.7658 156.745 72.1745 157.334C72.047 157.46 71.94 157.567 71.8703 157.645C71.9009 157.752 72.2561 158.125 72.4939 158.301C73.4744 158.111 74.533 158.947 75.0241 159.577C75.2584 159.899 75.3573 160.299 75.2995 160.692C75.2417 161.086 75.0317 161.441 74.7148 161.681C73.6851 162.493 72.443 162.337 71.4472 162.209L71.3266 162.196C69.7259 161.995 68.5433 162.196 67.9995 162.746C67.8756 162.874 67.7832 163.029 67.7298 163.199C67.6764 163.369 67.6635 163.549 67.692 163.725C67.8256 163.909 68.0073 164.051 68.217 164.138C68.4157 164.251 68.6428 164.305 68.8712 164.293C68.9034 164.274 68.9376 164.259 68.9732 164.249L70.7913 163.683C70.9065 163.647 71.0297 163.648 71.1444 163.685C71.259 163.722 71.3594 163.794 71.4319 163.89C71.8228 164.41 72.3682 164.469 73.2212 164.507C73.4645 164.513 73.7072 164.531 73.9485 164.563C74.6469 164.661 75.8176 165.54 76.0283 166.262C76.0754 166.451 76.0696 166.649 76.0114 166.835C75.9533 167.021 75.8451 167.187 75.6987 167.316C75.1073 167.89 73.9366 168.119 73.0411 167.842C72.3138 167.616 70.7421 167.458 69.5067 167.402C68.5603 167.361 67.9672 167.742 67.3929 168.775C67.1431 169.247 66.9207 169.733 66.7268 170.23C66.672 170.4 66.6531 170.581 66.6712 170.759C66.6894 170.937 66.7441 171.11 66.8321 171.266C66.9599 171.485 67.1303 171.675 67.3332 171.826C67.536 171.978 67.7673 172.086 68.0131 172.146C69.6885 172.6 71.9621 173.45 72.3546 175.584C72.3835 175.745 72.4209 175.963 72.4634 176.218C72.8746 178.649 73.2178 180.104 73.4829 180.551C74.2424 180.347 75.2552 178.831 75.5933 177.832L76.8677 174.046C77.0088 173.627 77.4285 173.302 77.9145 172.926C78.1439 172.758 78.3609 172.573 78.5636 172.372C78.2147 172.122 77.8197 171.944 77.4013 171.847C76.9969 171.763 76.627 171.56 76.3391 171.264C76.0511 170.968 75.8583 170.592 75.7853 170.186C75.7123 169.705 76.2577 168.899 76.5823 168.622C76.6885 168.516 76.821 168.439 76.9664 168.401C77.1118 168.362 77.2648 168.363 77.4098 168.403C79.7785 169.147 80.5516 168.531 81.2347 167.987L81.9909 168.879C81.2075 169.503 80.0708 170.408 77.2705 169.582C77.1447 169.738 77.0401 169.909 76.9595 170.092C77.0145 170.249 77.1097 170.389 77.2355 170.498C77.3612 170.607 77.5133 170.681 77.6766 170.712C78.3444 170.882 79.5321 171.35 79.7496 172.114C79.9518 172.826 79.2806 173.346 78.6281 173.851C78.4055 174.021 78.0334 174.311 77.9688 174.434L76.7012 178.204C76.3291 179.302 74.9714 181.718 73.3453 181.744L73.3283 181.749Z" fill="white"/>
<circle cx="63" cy="278" r="42" fill="#E40045"/>
<path d="M60.9675 250.661C61.1353 250.657 61.302 250.689 61.4563 250.756C61.6107 250.822 61.7491 250.922 61.8624 251.047C61.9757 251.172 62.0612 251.32 62.1131 251.482C62.1651 251.643 62.1822 251.814 62.1635 251.983L60.9373 266.982C61.6062 267.173 62.196 267.578 62.6182 268.136C63.0404 268.695 63.2722 269.376 63.2788 270.079L65.1264 270.467C68.1755 271.11 70.9077 272.808 72.853 275.269L76.125 279.405C76.2248 279.587 76.276 279.793 76.2736 280.002C76.2712 280.21 76.2153 280.415 76.1113 280.595C76.0074 280.775 75.8589 280.925 75.6805 281.03C75.5022 281.134 75.2999 281.19 75.0937 281.192C74.8441 281.19 74.6017 281.107 74.4017 280.956L62.2827 272.46C61.9934 272.74 61.655 272.962 61.285 273.116L62.9899 302.139H57.9508L58.7907 273.082C58.6287 273.014 58.473 272.931 58.3254 272.836L56.9816 274.353C54.9074 276.705 52.087 278.252 49.0065 278.727L43.828 279.524C42.5649 279.502 42.2121 277.758 43.3661 277.235L56.9094 270.764C56.7779 270.095 56.8572 269.402 57.1363 268.781C57.4154 268.16 57.8801 267.644 58.4648 267.305L57.8299 265.359C56.852 262.365 56.9382 259.12 58.0734 256.183L59.9782 251.256C60.0788 251.078 60.2241 250.93 60.3994 250.828C60.5746 250.726 60.7736 250.672 60.9759 250.673L60.9675 250.661ZM60.9759 248.919C60.4749 248.919 59.9825 249.051 59.5474 249.302C59.1122 249.553 58.7495 249.915 58.495 250.352C58.4443 250.436 58.401 250.526 58.3657 250.618L56.4593 255.546C55.1806 258.864 55.0832 262.529 56.1838 265.911L56.4492 266.722C55.7014 267.536 55.2413 268.577 55.1407 269.684L42.6371 275.656C42.0372 275.936 41.5491 276.414 41.2528 277.012C40.9565 277.609 40.8695 278.291 41.0061 278.945C41.1428 279.599 41.4949 280.186 42.0048 280.611C42.5147 281.036 43.1523 281.274 43.8129 281.284H43.8431C43.9309 281.284 44.0185 281.277 44.1052 281.264L49.282 280.467C52.1258 280.024 54.7863 278.771 56.9531 276.856L56.2157 302.091C56.209 302.325 56.2488 302.559 56.3328 302.777C56.4167 302.996 56.5432 303.195 56.7047 303.364C56.8661 303.532 57.0593 303.666 57.2728 303.757C57.4862 303.848 57.7157 303.896 57.9475 303.896H62.9865C63.2227 303.895 63.4563 303.846 63.6731 303.751C63.8899 303.657 64.0852 303.518 64.2472 303.344C64.4091 303.17 64.5343 302.965 64.615 302.74C64.6958 302.516 64.7303 302.277 64.7166 302.038L63.1377 275.191L73.414 282.397C73.904 282.751 74.4916 282.94 75.0937 282.937C75.6037 282.933 76.1038 282.795 76.5453 282.537C76.9869 282.278 77.3548 281.909 77.6132 281.464C77.8703 281.024 78.0082 280.522 78.0129 280.011C78.0176 279.499 77.889 278.995 77.6401 278.55C77.5915 278.463 77.5353 278.381 77.4721 278.304L74.2018 274.168C72.0012 271.389 68.913 269.472 65.4674 268.746L64.7704 268.598C64.4216 267.496 63.7102 266.549 62.7547 265.913L63.8801 252.12C63.9229 251.719 63.8815 251.313 63.7588 250.929C63.6361 250.545 63.4348 250.191 63.1679 249.891C62.8899 249.581 62.5508 249.333 62.1724 249.164C61.794 248.994 61.3847 248.907 60.9709 248.907L60.9759 248.919Z" fill="white"/>
<path d="M81.5807 273.238C80.2371 273.237 78.9489 272.696 77.9988 271.735C77.0487 270.774 76.5144 269.471 76.5131 268.112V263.864C76.5135 263.631 76.605 263.409 76.7675 263.245C76.93 263.081 77.1502 262.989 77.3798 262.989H85.7782C86.0078 262.989 86.228 263.081 86.3905 263.245C86.553 263.409 86.6445 263.631 86.6449 263.864V268.112C86.6432 269.47 86.1091 270.773 85.1599 271.734C84.2106 272.695 82.9236 273.236 81.5807 273.238ZM78.2448 264.742V268.115C78.2348 268.565 78.3137 269.012 78.4769 269.43C78.64 269.848 78.884 270.229 79.1947 270.55C79.5054 270.872 79.8764 271.127 80.286 271.301C80.6956 271.476 81.1355 271.566 81.5798 271.566C82.0242 271.566 82.4641 271.476 82.8737 271.301C83.2833 271.127 83.6543 270.872 83.965 270.55C84.2756 270.229 84.5197 269.848 84.6828 269.43C84.8459 269.012 84.9248 268.565 84.9149 268.115V264.739L78.2448 264.742Z" fill="white"/>
<path d="M79.293 263.787C79.0631 263.787 78.8427 263.695 78.6801 263.531C78.5176 263.366 78.4263 263.143 78.4263 262.911V258.647C78.4263 258.415 78.5176 258.192 78.6801 258.027C78.8427 257.863 79.0631 257.77 79.293 257.77C79.5229 257.77 79.7433 257.863 79.9059 258.027C80.0684 258.192 80.1597 258.415 80.1597 258.647V262.911C80.1597 263.143 80.0684 263.366 79.9059 263.531C79.7433 263.695 79.5229 263.787 79.293 263.787Z" fill="white"/>
<path d="M83.8667 263.787C83.7529 263.787 83.6402 263.765 83.535 263.721C83.4299 263.677 83.3343 263.612 83.2538 263.531C83.1734 263.449 83.1095 263.352 83.066 263.246C83.0224 263.14 83 263.026 83 262.911V258.647C82.9948 258.529 83.0134 258.411 83.0546 258.3C83.0958 258.189 83.1587 258.088 83.2397 258.002C83.3206 257.917 83.4178 257.849 83.5254 257.802C83.633 257.756 83.7488 257.732 83.8659 257.732C83.9829 257.732 84.0987 257.756 84.2063 257.802C84.314 257.849 84.4112 257.917 84.4921 258.002C84.573 258.088 84.6359 258.189 84.6771 258.3C84.7183 258.411 84.7369 258.529 84.7317 258.647V262.911C84.7317 263.143 84.6407 263.366 84.4785 263.53C84.3163 263.694 84.0963 263.787 83.8667 263.787Z" fill="white"/>
<path d="M74.2203 295.16H63.6383C63.5213 295.165 63.4046 295.146 63.2951 295.105C63.1855 295.063 63.0854 294.999 63.0009 294.917C62.9163 294.836 62.849 294.737 62.8031 294.628C62.7571 294.52 62.7334 294.402 62.7334 294.284C62.7334 294.166 62.7571 294.048 62.8031 293.94C62.849 293.831 62.9163 293.732 63.0009 293.65C63.0854 293.569 63.1855 293.505 63.2951 293.463C63.4046 293.422 63.5213 293.403 63.6383 293.408H74.2203C75.9405 293.405 77.5897 292.713 78.8067 291.483C80.0237 290.253 80.7095 288.586 80.714 286.846V273.262C80.7088 273.144 80.7274 273.026 80.7686 272.915C80.8098 272.804 80.8727 272.703 80.9536 272.617C81.0346 272.532 81.1318 272.464 81.2394 272.417C81.347 272.371 81.4628 272.347 81.5798 272.347C81.6969 272.347 81.8127 272.371 81.9203 272.417C82.0279 272.464 82.1251 272.532 82.2061 272.617C82.287 272.703 82.3499 272.804 82.3911 272.915C82.4323 273.026 82.4509 273.144 82.4457 273.262V286.846C82.4426 289.051 81.5748 291.165 80.0327 292.724C78.4906 294.282 76.4002 295.159 74.2203 295.16Z" fill="white"/>
<path d="M63.1478 299.843H57.4755C57.3223 299.843 57.1753 299.782 57.0669 299.672C56.9586 299.562 56.8977 299.414 56.8977 299.259C56.8977 299.104 56.9586 298.955 57.0669 298.845C57.1753 298.736 57.3223 298.674 57.4755 298.674H63.1478C63.3011 298.674 63.448 298.736 63.5564 298.845C63.6648 298.955 63.7256 299.104 63.7256 299.259C63.7256 299.414 63.6648 299.562 63.5564 299.672C63.448 299.782 63.3011 299.843 63.1478 299.843Z" fill="white"/>
<path d="M59.9631 274.698C59.0662 274.698 58.1893 274.429 57.4435 273.925C56.6977 273.421 56.1165 272.704 55.7732 271.866C55.4299 271.027 55.3401 270.105 55.5151 269.215C55.6901 268.325 56.122 267.508 56.7563 266.866C57.3905 266.224 58.1986 265.787 59.0784 265.61C59.9581 265.433 60.87 265.524 61.6987 265.871C62.5274 266.219 63.2357 266.807 63.734 267.561C64.2323 268.316 64.4983 269.203 64.4983 270.11C64.4952 271.326 64.0164 272.491 63.1666 273.351C62.3167 274.21 61.165 274.695 59.9631 274.698ZM59.9631 267.264C59.4077 267.264 58.8647 267.431 58.4029 267.743C57.941 268.055 57.581 268.499 57.3685 269.018C57.1559 269.537 57.1003 270.108 57.2087 270.659C57.317 271.21 57.5845 271.717 57.9773 272.114C58.37 272.511 58.8705 272.782 59.4152 272.892C59.96 273.001 60.5247 272.945 61.0379 272.73C61.5511 272.515 61.9897 272.151 62.2983 271.683C62.6069 271.216 62.7716 270.667 62.7716 270.105C62.7707 269.352 62.4745 268.63 61.948 268.097C61.4215 267.564 60.7077 267.265 59.9631 267.264Z" fill="white"/>
<circle cx="63" cy="385" r="42" fill="#F5B01A"/>
<path d="M81.0869 389.533C80.9011 389.533 80.7201 389.474 80.5701 389.364C80.4201 389.255 80.3089 389.1 80.2526 388.923L73.6257 368.135C73.5872 368.024 73.5712 367.907 73.5787 367.79C73.5862 367.673 73.6171 367.559 73.6695 367.454C73.7219 367.35 73.7947 367.256 73.8837 367.18C73.9727 367.104 74.0761 367.047 74.1877 367.011C74.2993 366.976 74.4169 366.963 74.5335 366.973C74.6501 366.984 74.7635 367.018 74.8668 367.073C74.9701 367.128 75.0613 367.204 75.135 367.295C75.2087 367.386 75.2635 367.49 75.296 367.603L81.923 388.39C81.9934 388.611 81.973 388.851 81.8663 389.058C81.7595 389.264 81.5752 389.42 81.3537 389.491C81.2676 389.519 81.1776 389.533 81.0869 389.533Z" fill="white"/>
<path d="M64.8764 386.745C64.705 386.745 64.5375 386.694 64.3944 386.6C64.2514 386.506 64.1391 386.371 64.0715 386.214C64.0039 386.056 63.9839 385.883 64.014 385.714C64.0441 385.545 64.123 385.389 64.2408 385.265L75.7123 373.192C75.8747 373.033 76.0922 372.944 76.3191 372.943C76.5459 372.942 76.7645 373.028 76.9288 373.185C77.0931 373.341 77.1904 373.555 77.2003 373.782C77.2101 374.008 77.1317 374.23 76.9816 374.4L65.5119 386.464C65.4307 386.552 65.3324 386.622 65.2231 386.67C65.1138 386.719 64.9958 386.744 64.8764 386.745Z" fill="white"/>
<path d="M53.0991 375.166C52.8755 375.169 52.6593 375.086 52.495 374.934C52.3307 374.783 52.2306 374.574 52.2154 374.351C52.2002 374.128 52.2709 373.907 52.4132 373.735C52.5554 373.562 52.7582 373.451 52.9801 373.423L75.3945 370.303C75.6226 370.276 75.8523 370.339 76.0342 370.479C76.2161 370.619 76.3357 370.826 76.3673 371.053C76.3989 371.281 76.34 371.511 76.2032 371.696C76.0664 371.88 75.8627 372.004 75.6358 372.04L53.2214 375.154C53.181 375.162 53.1401 375.166 53.0991 375.166Z" fill="white"/>
<path d="M43.8435 389.396C43.6712 389.396 43.5026 389.345 43.3589 389.25C43.2153 389.155 43.1029 389.019 43.0359 388.86C42.969 388.702 42.9504 388.527 42.9825 388.357C43.0146 388.188 43.096 388.032 43.2165 387.909L54.3073 376.5C54.4705 376.339 54.6904 376.248 54.9198 376.247C55.1492 376.246 55.3697 376.335 55.5343 376.495C55.6988 376.655 55.7941 376.873 55.7998 377.102C55.8055 377.332 55.7211 377.554 55.5647 377.722L44.4688 389.13C44.3876 389.214 44.2904 389.281 44.183 389.326C44.0756 389.372 43.9602 389.395 43.8435 389.396Z" fill="white"/>
<path d="M43.8673 399.283C41.5646 399.284 39.3224 398.546 37.47 397.178C35.6177 395.81 34.2529 393.885 33.5761 391.684C32.8994 389.483 32.9464 387.123 33.7102 384.95C34.474 382.778 35.9144 380.908 37.8197 379.615C38.9859 378.819 40.2987 378.263 41.6816 377.979C43.0646 377.695 44.4903 377.688 45.8757 377.96C47.9632 378.364 49.884 379.379 51.3956 380.874C52.9072 382.369 53.942 384.279 54.3692 386.362C54.7964 388.445 54.5969 390.608 53.796 392.578C52.995 394.547 51.6285 396.236 49.8689 397.429C48.1 398.636 46.0086 399.282 43.8673 399.283ZM43.8248 379.515C41.7369 379.522 39.7166 380.255 38.1095 381.588C36.5024 382.921 35.4083 384.771 35.0143 386.821C34.5652 389.166 35.0644 391.593 36.4023 393.569C37.7402 395.546 39.8076 396.912 42.1511 397.367C43.3114 397.59 44.5045 397.583 45.662 397.345C46.8195 397.107 47.9189 396.644 48.8972 395.981C49.8755 395.318 50.7137 394.469 51.3639 393.482C52.014 392.495 52.4633 391.39 52.6862 390.23C52.9347 388.927 52.8926 387.585 52.5629 386.3C52.2332 385.015 51.624 383.819 50.7788 382.796C49.9336 381.774 48.8732 380.95 47.6732 380.385C46.4732 379.819 45.1632 379.526 43.8367 379.525L43.8248 379.515Z" fill="white"/>
<path d="M80.9697 399.283C79.3841 399.283 77.8183 398.932 76.3841 398.256C74.9498 397.58 73.6824 396.596 72.6725 395.374C71.6625 394.151 70.9349 392.721 70.5416 391.185C70.1483 389.649 70.0989 388.045 70.3971 386.488C70.7864 384.491 71.7351 382.645 73.1329 381.166C74.5306 379.686 76.3198 378.635 78.2921 378.133C80.2644 377.632 82.3386 377.701 84.2732 378.332C86.2078 378.964 87.9232 380.132 89.2195 381.701C90.5158 383.27 91.3397 385.175 91.5953 387.194C91.8509 389.213 91.5277 391.263 90.6632 393.105C89.7987 394.947 88.4287 396.506 86.7125 397.6C84.9964 398.694 83.0048 399.278 80.9697 399.283ZM80.9289 379.515C78.841 379.522 76.8207 380.255 75.2136 381.588C73.6065 382.921 72.5124 384.771 72.1184 386.821C71.6691 389.164 72.1671 391.59 73.5033 393.567C74.8395 395.544 76.9048 396.91 79.2467 397.367C80.4071 397.59 81.6003 397.583 82.758 397.346C83.9156 397.108 85.0152 396.645 85.9936 395.982C86.9721 395.319 87.8103 394.47 88.4603 393.483C89.1103 392.496 89.5594 391.39 89.7818 390.23C90.0322 388.927 89.9915 387.584 89.6626 386.299C89.3338 385.013 88.7249 383.816 87.8795 382.793C87.0341 381.77 85.9731 380.947 84.7724 380.382C83.5717 379.817 82.261 379.524 80.934 379.525L80.9289 379.515Z" fill="white"/>
<path d="M60.3496 386.308C60.2034 386.308 60.0595 386.272 59.931 386.202C59.8025 386.132 59.6935 386.031 59.6139 385.909L49.4729 370.32C49.3545 370.125 49.3166 369.892 49.3673 369.67C49.418 369.447 49.5533 369.254 49.7444 369.129C49.9356 369.005 50.1677 368.96 50.3914 369.004C50.6151 369.048 50.8129 369.178 50.9427 369.365L61.0837 384.954C61.1464 385.05 61.1894 385.158 61.2104 385.271C61.2314 385.384 61.2298 385.501 61.2058 385.613C61.1818 385.726 61.1359 385.832 61.0706 385.927C61.0053 386.022 60.922 386.103 60.8254 386.165C60.6843 386.259 60.5188 386.308 60.3496 386.308Z" fill="white"/>
<path d="M58.8187 389.395H43.8435C43.6109 389.395 43.3879 389.303 43.2235 389.139C43.0591 388.974 42.9667 388.751 42.9667 388.519C42.9667 388.286 43.0591 388.063 43.2235 387.899C43.3879 387.734 43.6109 387.642 43.8435 387.642H58.8187C59.0512 387.642 59.2742 387.734 59.4387 387.899C59.6031 388.063 59.6955 388.286 59.6955 388.519C59.6955 388.751 59.6031 388.974 59.4387 389.139C59.2742 389.303 59.0512 389.395 58.8187 389.395Z" fill="white"/>
<path d="M55.0209 370.719H47.8468C47.7285 370.725 47.6104 370.706 47.4996 370.664C47.3888 370.622 47.2875 370.559 47.202 370.477C47.1165 370.395 47.0484 370.297 47.0019 370.188C46.9554 370.079 46.9314 369.962 46.9314 369.843C46.9314 369.725 46.9554 369.608 47.0019 369.499C47.0484 369.39 47.1165 369.292 47.202 369.21C47.2875 369.128 47.3888 369.064 47.4996 369.023C47.6104 368.981 47.7285 368.962 47.8468 368.967H55.0209C55.1392 368.962 55.2573 368.981 55.3681 369.023C55.4789 369.064 55.5801 369.128 55.6657 369.21C55.7512 369.292 55.8193 369.39 55.8658 369.499C55.9123 369.608 55.9363 369.725 55.9363 369.843C55.9363 369.962 55.9123 370.079 55.8658 370.188C55.8193 370.297 55.7512 370.395 55.6657 370.477C55.5801 370.559 55.4789 370.622 55.3681 370.664C55.2573 370.706 55.1392 370.725 55.0209 370.719Z" fill="white"/>
<path d="M74.4549 368.745C74.2348 368.742 74.0238 368.657 73.8637 368.506C73.7036 368.355 73.6062 368.149 73.5908 367.93C73.5754 367.71 73.6431 367.493 73.7805 367.321C73.9179 367.149 74.115 367.035 74.3325 367.002L81.0308 366.048C81.1467 366.028 81.2655 366.03 81.3803 366.057C81.495 366.083 81.6033 366.132 81.6986 366.201C81.794 366.27 81.8745 366.357 81.9353 366.458C81.9962 366.559 82.0361 366.671 82.0528 366.787C82.0694 366.904 82.0625 367.023 82.0323 367.136C82.0021 367.25 81.9494 367.357 81.8771 367.449C81.8049 367.542 81.7147 367.62 81.612 367.677C81.5092 367.735 81.3959 367.771 81.2789 367.783L74.5806 368.736C74.5389 368.742 74.4969 368.745 74.4549 368.745Z" fill="white"/>
<path d="M62.3565 392.017C61.5815 392.019 60.8234 391.791 60.1782 391.361C59.5329 390.932 59.0296 390.321 58.7319 389.605C58.4341 388.89 58.3553 388.102 58.5055 387.342C58.6557 386.581 59.028 385.883 59.5754 385.334C60.1229 384.785 60.8207 384.412 61.5807 384.26C62.3407 384.108 63.1287 384.185 63.8449 384.481C64.561 384.777 65.1732 385.279 65.604 385.924C66.0347 386.568 66.2647 387.326 66.2647 388.101C66.2642 389.138 65.8526 390.132 65.12 390.867C64.3874 391.601 63.3936 392.015 62.3565 392.017ZM62.3565 385.936C61.9282 385.935 61.5095 386.062 61.1533 386.3C60.7971 386.537 60.5193 386.875 60.3552 387.271C60.1911 387.666 60.148 388.102 60.2314 388.522C60.3147 388.942 60.5207 389.328 60.8234 389.631C61.1261 389.934 61.5118 390.14 61.9318 390.224C62.3518 390.307 62.7871 390.265 63.1828 390.101C63.5785 389.937 63.9167 389.659 64.1546 389.303C64.3926 388.947 64.5196 388.529 64.5196 388.101C64.5191 387.527 64.2911 386.977 63.8856 386.571C63.4801 386.165 62.9302 385.937 62.3565 385.936Z" fill="white"/>
<path d="M65.3691 395.047C65.208 395.047 65.05 395.003 64.9124 394.92C64.7748 394.836 64.6629 394.716 64.5891 394.573L61.5968 388.784C61.4956 388.578 61.4792 388.34 61.5512 388.122C61.6232 387.904 61.7778 387.723 61.9818 387.618C62.1858 387.513 62.423 387.492 62.6424 387.559C62.8617 387.627 63.0458 387.778 63.155 387.98L66.1473 393.769C66.217 393.903 66.2511 394.052 66.2461 394.202C66.2412 394.353 66.1974 394.499 66.1191 394.628C66.0408 394.757 65.9306 394.863 65.7992 394.936C65.6678 395.01 65.5196 395.048 65.3691 395.047Z" fill="white"/>
<path d="M63.8602 396.133C63.6626 396.134 63.4705 396.068 63.3151 395.946C63.1598 395.823 63.0504 395.652 63.0047 395.46C62.959 395.268 62.9797 395.066 63.0635 394.887C63.1472 394.708 63.2891 394.562 63.466 394.474L67.0445 392.671C67.2523 392.567 67.4931 392.549 67.7139 392.622C67.9347 392.695 68.1175 392.853 68.2221 393.061C68.3266 393.268 68.3444 393.509 68.2714 393.73C68.1984 393.951 68.0407 394.134 67.833 394.238L64.2544 396.039C64.132 396.1 63.997 396.132 63.8602 396.133Z" fill="white"/>
<path d="M85.6851 392.909C85.575 392.909 85.4673 392.877 85.3743 392.818C85.2814 392.759 85.2069 392.676 85.1593 392.576C85.1118 392.477 85.0932 392.366 85.1057 392.257C85.1181 392.148 85.1611 392.044 85.2297 391.958C85.7055 391.363 86.0529 390.677 86.2496 389.941C86.4464 389.205 86.4884 388.437 86.373 387.684C86.2575 386.931 85.9871 386.211 85.5788 385.568C85.1705 384.925 84.6333 384.374 84.0011 383.949C83.9337 383.908 83.8752 383.854 83.8293 383.79C83.7835 383.725 83.7511 383.652 83.7342 383.575C83.7173 383.498 83.7163 383.418 83.7311 383.341C83.7459 383.263 83.7763 383.189 83.8204 383.124C83.8646 383.058 83.9216 383.002 83.9879 382.959C84.0543 382.916 84.1286 382.887 84.2065 382.874C84.2844 382.861 84.3642 382.863 84.441 382.882C84.5179 382.9 84.5902 382.934 84.6536 382.981C85.4199 383.496 86.071 384.164 86.5657 384.944C87.0604 385.723 87.388 386.597 87.5277 387.509C87.6675 388.422 87.6163 389.353 87.3775 390.245C87.1387 391.137 86.7175 391.97 86.1404 392.69C86.086 392.759 86.0168 392.814 85.9379 392.852C85.859 392.89 85.7726 392.91 85.6851 392.909Z" fill="white"/>
<path d="M43.8502 395.176C43.4259 395.176 43.0027 395.136 42.586 395.056C41.5393 394.852 40.5568 394.4 39.7211 393.737C38.8853 393.075 38.2207 392.222 37.783 391.25C37.3453 390.277 37.1474 389.214 37.2058 388.149C37.2642 387.084 37.5773 386.049 38.1187 385.131C38.1566 385.062 38.2078 385.002 38.2693 384.954C38.3307 384.906 38.4013 384.87 38.4767 384.85C38.5521 384.829 38.6309 384.824 38.7083 384.834C38.7858 384.845 38.8603 384.871 38.9276 384.91C38.9949 384.95 39.0535 385.003 39.1 385.066C39.1465 385.129 39.1799 385.2 39.1983 385.276C39.2167 385.352 39.2196 385.431 39.207 385.508C39.1943 385.585 39.1663 385.659 39.1247 385.725C38.6008 386.611 38.3364 387.626 38.3618 388.655C38.3872 389.684 38.7013 390.685 39.2683 391.543C39.8353 392.402 40.6323 393.084 41.5684 393.512C42.5044 393.939 43.5418 394.095 44.5622 393.961C44.6389 393.95 44.7171 393.954 44.7922 393.973C44.8674 393.992 44.938 394.026 44.9999 394.073C45.0618 394.12 45.1138 394.178 45.1528 394.245C45.1919 394.312 45.2172 394.386 45.2274 394.463C45.2375 394.54 45.2323 394.618 45.2119 394.693C45.1916 394.768 45.1565 394.838 45.1089 394.899C45.0612 394.96 45.0018 395.011 44.9342 395.049C44.8666 395.087 44.7921 395.111 44.7151 395.12C44.4283 395.157 44.1394 395.176 43.8502 395.176Z" fill="white"/>
<g clip-path="url(#clip0_767_1702)">
<circle cx="63" cy="492" r="42" fill="#5689A0"/>
<path d="M52.6463 500.402C50.2068 500.402 48.5748 497.576 48.5748 494.936C48.5748 492.222 50.3273 490.186 52.6463 490.186C54.9653 490.186 56.7262 492.23 56.7262 494.936C56.7262 497.569 55.0858 500.402 52.6463 500.402ZM52.6463 491.934C51.2976 491.934 50.3188 493.196 50.3188 494.936C50.3188 496.847 51.4503 498.652 52.6463 498.652C53.8423 498.652 54.9755 496.847 54.9755 494.936C54.9755 493.189 53.9967 491.92 52.6463 491.92V491.934Z" fill="white"/>
<path d="M61.8004 515.199H44.5527C44.4324 515.199 44.3133 515.174 44.203 515.127C44.0926 515.079 43.9934 515.008 43.9115 514.92C43.8296 514.832 43.7668 514.728 43.7271 514.615C43.6874 514.501 43.6716 514.38 43.6807 514.261L44.2847 506.026C44.3557 505.077 44.7103 504.171 45.3025 503.425L45.3144 503.412C46.9006 501.507 48.6835 501.25 50.3664 501.25H55.3794C57.0758 501.25 58.8537 501.513 60.4382 503.419C60.9971 504.113 61.365 504.941 61.5053 505.821L62.6605 514.211C62.6775 514.335 62.6677 514.461 62.6319 514.581C62.5961 514.701 62.5351 514.811 62.453 514.905C62.3709 515 62.2696 515.075 62.1558 515.127C62.0421 515.179 61.9186 515.205 61.7936 515.205L61.8004 515.199ZM45.4942 513.45H60.7978L59.78 506.089C59.6904 505.523 59.4567 504.989 59.1014 504.54C58.1514 503.396 57.1793 502.994 55.3811 502.994H50.3664C48.5699 502.994 47.5978 503.396 46.6546 504.53L46.6342 504.553C46.278 505.023 46.0653 505.586 46.0218 506.174L45.4942 513.45Z" fill="white"/>
<path d="M73.7432 500.764C71.3037 500.764 69.6718 497.937 69.6718 495.298C69.6718 492.583 71.4242 490.548 73.7432 490.548C76.0623 490.548 77.8147 492.592 77.8147 495.298C77.8215 497.937 76.1827 500.764 73.7432 500.764ZM73.7432 492.295C72.3945 492.295 71.4157 493.557 71.4157 495.298C71.4157 497.208 72.5472 499.013 73.7432 499.013C74.9392 499.013 76.0724 497.208 76.0724 495.298C76.0724 493.557 75.0936 492.295 73.7432 492.295Z" fill="white"/>
<path d="M82.3036 515.199H65.6496C65.5294 515.199 65.4104 515.174 65.3002 515.126C65.19 515.078 65.0909 515.008 65.009 514.92C64.9272 514.832 64.8644 514.728 64.8246 514.614C64.7847 514.501 64.7688 514.38 64.7777 514.26L65.3816 506.026C65.4526 505.077 65.8072 504.171 66.3994 503.425C67.9958 501.507 69.7788 501.244 71.4701 501.244H71.711C71.8726 501.244 72.031 501.288 72.1687 501.373C72.3064 501.457 72.4181 501.578 72.4914 501.722L73.9775 504.643L75.4601 501.727C75.5334 501.583 75.6451 501.462 75.7828 501.378C75.9205 501.293 76.079 501.249 76.2405 501.249H76.4916C78.188 501.249 79.9659 501.512 81.5504 503.417C82.1407 504.157 82.4963 505.057 82.5716 506L83.1756 514.255C83.1847 514.375 83.1689 514.496 83.1292 514.609C83.0895 514.723 83.0267 514.827 82.9448 514.915C82.8629 515.003 82.7637 515.073 82.6533 515.121C82.543 515.169 82.4239 515.194 82.3036 515.193V515.199ZM66.5928 513.45H81.3621L80.8277 506.155C80.7812 505.568 80.5642 505.007 80.2034 504.542C79.306 503.461 78.3899 503.044 76.7749 502.999L74.7578 506.966C74.6842 507.109 74.5724 507.23 74.4347 507.314C74.297 507.398 74.1388 507.442 73.9775 507.442C73.8161 507.442 73.6579 507.398 73.5202 507.314C73.3825 507.23 73.2707 507.109 73.1971 506.966L71.1783 502.999C69.565 503.044 68.6489 503.461 67.7566 504.526C67.3873 504.999 67.1676 505.572 67.1255 506.17L66.5928 513.45Z" fill="white"/>
<path d="M53.4657 468.66C60.8435 468.66 66.8235 472.487 66.8235 477.207C66.8235 481.926 60.8435 485.755 53.4657 485.755C51.1688 485.768 48.888 485.37 46.7308 484.581L45.0174 489.162L43.4652 482.863C41.3819 481.356 40.1062 479.38 40.1062 477.209C40.1062 472.489 46.0879 468.662 53.4657 468.662V468.66ZM53.4657 466.911C44.9937 466.911 38.3572 471.434 38.3572 477.209C38.3572 479.682 39.6142 482.03 41.9197 483.879L43.3244 489.581C43.4137 489.944 43.6171 490.269 43.9047 490.508C44.1923 490.747 44.549 490.888 44.9224 490.909H45.0242C45.3806 490.909 45.7284 490.8 46.0212 490.597C46.3141 490.394 46.538 490.106 46.663 489.772L47.7911 486.756C49.641 487.257 51.5492 487.51 53.4657 487.509C61.9377 487.509 68.5742 482.985 68.5742 477.21C68.5742 471.436 61.9377 466.913 53.4657 466.913V466.911Z" fill="white"/>
<path d="M73.3922 468.66C80.77 468.66 86.75 472.487 86.75 477.207C86.75 479.378 85.476 481.355 83.3927 482.861L81.8405 489.16L80.1254 484.58C77.9688 485.369 75.6886 485.766 73.3922 485.753C66.0144 485.753 60.0327 481.926 60.0327 477.205C60.0327 472.484 66.0144 468.658 73.3922 468.658V468.66ZM73.3922 466.908C64.9202 466.908 58.2837 471.43 58.2837 477.205C58.2837 482.98 64.9202 487.509 73.3922 487.509C75.3102 487.512 77.2201 487.261 79.0719 486.761L80.2017 489.777C80.3262 490.111 80.5497 490.399 80.8423 490.602C81.1349 490.805 81.4826 490.914 81.8388 490.914H81.9423C82.3154 490.892 82.6717 490.752 82.9589 490.512C83.2462 490.273 83.4494 489.949 83.5386 489.586L84.945 483.884C87.2437 482.035 88.5075 479.687 88.5075 477.214C88.5075 471.446 81.871 466.916 73.399 466.916L73.3922 466.908Z" fill="white"/>
</g>
<circle cx="63" cy="599" r="42" fill="#37647A"/>
<path d="M49.0039 612.067C48.2305 612.066 47.4738 611.841 46.8258 611.419C46.1778 610.997 45.6665 610.395 45.354 609.688L41.9199 601.929C41.7078 601.449 41.5923 600.933 41.58 600.408C41.5676 599.884 41.6588 599.362 41.8481 598.873C42.0375 598.384 42.3214 597.937 42.6835 597.557C43.0457 597.178 43.4791 596.873 43.959 596.662L54.5689 591.956C54.6742 591.909 54.7877 591.884 54.9029 591.881C55.0181 591.878 55.1328 591.898 55.2403 591.939C55.3478 591.981 55.4461 592.043 55.5295 592.123C55.6128 592.202 55.6796 592.298 55.726 592.403L61.692 605.859C61.7864 606.072 61.7925 606.313 61.709 606.53C61.6255 606.747 61.4593 606.922 61.2468 607.017L50.6352 611.72C50.1223 611.95 49.5662 612.069 49.0039 612.067ZM54.4618 593.912L44.6522 598.262C44.3836 598.381 44.141 598.552 43.9383 598.765C43.7357 598.978 43.577 599.229 43.4713 599.503C43.3656 599.777 43.3149 600.07 43.3222 600.363C43.3295 600.657 43.3946 600.947 43.5138 601.215L46.9564 608.977C47.1964 609.52 47.6418 609.945 48.1948 610.159C48.7478 610.374 49.3633 610.36 49.9062 610.121L59.7158 605.771L54.4618 593.912Z" fill="white"/>
<path d="M41.4101 612.469C41.2405 612.469 41.0746 612.42 40.9325 612.327C40.7904 612.235 40.6783 612.103 40.6098 611.948L37.0482 603.937C36.9642 603.747 36.9509 603.532 37.0107 603.332C37.0705 603.132 37.1994 602.96 37.3745 602.847L41.8468 599.958C41.9532 599.889 42.0731 599.845 42.1983 599.827C42.3236 599.809 42.4512 599.819 42.5725 599.855C42.6937 599.891 42.8057 599.953 42.9007 600.036C42.9957 600.12 43.0715 600.223 43.123 600.339L47.3472 609.866C47.3987 609.982 47.4243 610.108 47.4225 610.234C47.4207 610.361 47.3914 610.486 47.3366 610.6C47.2819 610.715 47.203 610.816 47.1053 610.897C47.0077 610.978 46.8937 611.037 46.7712 611.069L41.6276 612.434C41.557 612.455 41.4839 612.467 41.4101 612.469ZM38.9633 603.91L41.908 610.553L45.3387 609.637L41.9403 601.99L38.9633 603.91Z" fill="white"/>
<path d="M80.2475 595.584C80.1629 595.584 80.0788 595.571 79.9978 595.547C79.8761 595.511 79.7637 595.449 79.6684 595.365C79.573 595.282 79.497 595.178 79.4455 595.063L75.6444 586.487C75.5932 586.371 75.5677 586.246 75.5696 586.119C75.5714 585.993 75.6006 585.868 75.6552 585.754C75.7098 585.64 75.7884 585.539 75.8857 585.458C75.9829 585.377 76.0965 585.318 76.2187 585.285L80.8474 584.057C81.0493 584.003 81.2639 584.023 81.4524 584.113C81.6409 584.204 81.7909 584.358 81.8754 584.55L85.0801 591.751C85.1642 591.942 85.1776 592.157 85.1178 592.357C85.0581 592.557 84.9291 592.73 84.7539 592.843L80.7233 595.442C80.5815 595.533 80.4165 595.583 80.2475 595.584ZM77.6613 586.714L80.6333 593.414L83.1668 591.778L80.5772 585.936L77.6613 586.714Z" fill="white"/>
<path d="M62.5162 623.127C61.9051 623.127 61.3022 622.986 60.7546 622.715C60.207 622.443 59.7294 622.049 59.359 621.563L51.1977 610.734C51.1179 610.629 51.0628 610.508 51.0366 610.378C51.0104 610.249 51.0138 610.116 51.0465 609.988C51.0791 609.86 51.1403 609.741 51.2253 609.64C51.3104 609.54 51.4171 609.459 51.5375 609.405L56.8731 607.035C57.054 606.955 57.2568 606.938 57.4485 606.987C57.6402 607.037 57.8093 607.15 57.9283 607.309L65.4643 617.31C65.799 617.747 66.0304 618.253 66.141 618.792C66.2517 619.33 66.2388 619.887 66.1032 620.42C65.9659 620.945 65.711 621.432 65.3578 621.844C65.0045 622.256 64.5622 622.583 64.0642 622.799C63.5768 623.015 63.0494 623.127 62.5162 623.127ZM53.2605 610.552L60.7592 620.506C61.0531 620.895 61.4685 621.174 61.9394 621.299C62.4102 621.424 62.9094 621.388 63.3573 621.196C63.6135 621.088 63.8414 620.923 64.0232 620.712C64.205 620.502 64.3359 620.252 64.4057 619.983C64.4755 619.705 64.4812 619.414 64.4223 619.133C64.3635 618.853 64.2416 618.589 64.0659 618.362L56.9495 608.918L53.2605 610.552Z" fill="white"/>
<path d="M57.8926 600.369C57.7227 600.369 57.5565 600.32 57.4141 600.227C57.2717 600.135 57.1593 600.003 57.0905 599.848L54.1033 593.109C54.0366 592.957 54.0141 592.789 54.0385 592.626C54.0628 592.462 54.133 592.308 54.2409 592.182L70.3835 573.403C70.4798 573.29 70.6028 573.204 70.7413 573.153C70.8798 573.101 71.0291 573.085 71.1754 573.107C71.3217 573.128 71.4601 573.186 71.5778 573.276C71.6954 573.365 71.7885 573.483 71.8482 573.618L79.1396 590.065C79.2338 590.277 79.2398 590.518 79.1563 590.735C79.0728 590.952 78.9067 591.126 78.6944 591.221C78.4821 591.315 78.2412 591.321 78.0245 591.237C77.8078 591.154 77.6331 590.988 77.5389 590.775L70.8083 575.596L55.9232 592.905L58.6861 599.134C58.7448 599.267 58.7696 599.413 58.7583 599.558C58.747 599.703 58.6999 599.842 58.6213 599.965C58.5427 600.087 58.435 600.188 58.3078 600.259C58.1807 600.329 58.038 600.367 57.8926 600.369Z" fill="white"/>
<path d="M57.8925 600.072C57.7589 600.071 57.6296 600.025 57.526 599.94C57.4224 599.856 57.3508 599.739 57.3232 599.608C57.2956 599.477 57.3136 599.341 57.3742 599.222C57.4348 599.103 57.5344 599.008 57.6564 598.954L78.1132 589.885C78.2541 589.828 78.4116 589.827 78.5526 589.884C78.6935 589.941 78.8067 590.051 78.8682 590.19C78.9296 590.329 78.9345 590.487 78.8817 590.629C78.829 590.772 78.7228 590.888 78.5856 590.954L58.1287 600.029C58.0537 600.059 57.9734 600.074 57.8925 600.072Z" fill="white"/>
<path d="M85.6374 607.742H85.6153L60.8543 607.1C60.6887 607.095 60.5277 607.043 60.39 606.951C60.2524 606.859 60.1435 606.73 60.0761 606.578L57.0906 599.844C57.0396 599.738 57.0104 599.623 57.0048 599.506C56.9992 599.389 57.0171 599.271 57.0577 599.161C57.0982 599.051 57.1605 598.95 57.2408 598.864C57.3212 598.779 57.4179 598.71 57.5253 598.662C57.6327 598.615 57.7485 598.589 57.866 598.587C57.9834 598.585 58.1 598.607 58.209 598.651C58.3179 598.695 58.4168 598.76 58.5 598.843C58.5831 598.926 58.6487 599.025 58.6929 599.134L61.461 605.361L84.2815 605.953L77.5526 590.775C77.4584 590.563 77.4524 590.322 77.5358 590.105C77.6193 589.889 77.7855 589.714 77.9977 589.62C78.21 589.526 78.451 589.52 78.6677 589.603C78.8844 589.687 79.059 589.853 79.1532 590.065L86.4395 606.51C86.4986 606.644 86.5235 606.79 86.5118 606.935C86.5001 607.081 86.4523 607.221 86.3726 607.344C86.2929 607.466 86.184 607.567 86.0556 607.636C85.9272 607.706 85.7835 607.742 85.6374 607.742Z" fill="white"/>
<rect x="0.5" y="0.5" width="126" height="661" rx="4.5" stroke="#9747FF" stroke-dasharray="10 5"/>
<defs>
<clipPath id="clip0_767_1702">
<rect width="87" height="87" fill="white" transform="translate(20 448)"/>
</clipPath>
</defs>
</svg>
