<?xml version="1.0" encoding="UTF-8" standalone="no"?>
<!-- Created with Inkscape (http://www.inkscape.org/) -->

<svg
   version="1.1"
   id="svg2"
   width="583.32599"
   height="571.15717"
   viewBox="0 0 583.32599 571.15716"
   sodipodi:docname="kiko-m.svg"
   inkscape:version="1.1.1 (3bf5ae0d25, 2021-09-20)"
   inkscape:export-filename="C:\Users\neyma\sciebo\Klimaschutz4All\CorpDesign\Icons\vor-ort-kl+kiko-rot.png"
   inkscape:export-xdpi="300"
   inkscape:export-ydpi="300"
   xmlns:inkscape="http://www.inkscape.org/namespaces/inkscape"
   xmlns:sodipodi="http://sodipodi.sourceforge.net/DTD/sodipodi-0.dtd"
   xmlns="http://www.w3.org/2000/svg"
   xmlns:svg="http://www.w3.org/2000/svg"
   xmlns:rdf="http://www.w3.org/1999/02/22-rdf-syntax-ns#"
   xmlns:cc="http://creativecommons.org/ns#"
   xmlns:dc="http://purl.org/dc/elements/1.1/">
  <metadata
     id="metadata8">
    <rdf:RDF>
      <cc:Work
         rdf:about="">
        <dc:format>image/svg+xml</dc:format>
        <dc:type
           rdf:resource="http://purl.org/dc/dcmitype/StillImage" />
      </cc:Work>
    </rdf:RDF>
  </metadata>
  <defs
     id="defs6">
    <filter
       inkscape:collect="always"
       style="color-interpolation-filters:sRGB"
       id="filter5523"
       x="-0.033840105"
       y="-0.062294833"
       width="1.0676802"
       height="1.1245897">
      <feGaussianBlur
         inkscape:collect="always"
         stdDeviation="2.0054784"
         id="feGaussianBlur5525" />
    </filter>
    <filter
       inkscape:collect="always"
       style="color-interpolation-filters:sRGB"
       id="filter5527"
       x="-0.033838742"
       y="-0.062294833"
       width="1.0676775"
       height="1.1245897">
      <feGaussianBlur
         inkscape:collect="always"
         stdDeviation="2.0054784"
         id="feGaussianBlur5529" />
    </filter>
    <filter
       inkscape:collect="always"
       style="color-interpolation-filters:sRGB"
       id="filter5531"
       x="-0.033838742"
       y="-0.062291785"
       width="1.0676775"
       height="1.1245836">
      <feGaussianBlur
         inkscape:collect="always"
         stdDeviation="2.0054784"
         id="feGaussianBlur5533" />
    </filter>
    <filter
       inkscape:collect="always"
       style="color-interpolation-filters:sRGB"
       id="filter9468"
       x="-0.078821668"
       y="-0.065455192"
       width="1.1576433"
       height="1.1309104">
      <feGaussianBlur
         inkscape:collect="always"
         stdDeviation="7.160976"
         id="feGaussianBlur9470" />
    </filter>
    <filter
       inkscape:collect="always"
       style="color-interpolation-filters:sRGB"
       id="filter9472"
       x="-0.010106225"
       y="-0.0092056704"
       width="1.0202124"
       height="1.0184113">
      <feGaussianBlur
         inkscape:collect="always"
         stdDeviation="7.160976"
         id="feGaussianBlur9474" />
    </filter>
    <filter
       inkscape:collect="always"
       style="color-interpolation-filters:sRGB"
       id="filter9476"
       x="-0.020958724"
       y="-0.010807307"
       width="1.0419174"
       height="1.0216146">
      <feGaussianBlur
         inkscape:collect="always"
         stdDeviation="7.160976"
         id="feGaussianBlur9478" />
    </filter>
  </defs>
  <sodipodi:namedview
     pagecolor="#ffffff"
     bordercolor="#666666"
     borderopacity="1"
     objecttolerance="10"
     gridtolerance="10"
     guidetolerance="10"
     inkscape:pageopacity="0"
     inkscape:pageshadow="2"
     inkscape:window-width="2498"
     inkscape:window-height="1417"
     id="namedview4"
     showgrid="false"
     inkscape:zoom="1.4142136"
     inkscape:cx="44.620982"
     inkscape:cy="382.06049"
     inkscape:window-x="1974"
     inkscape:window-y="-8"
     inkscape:window-maximized="1"
     inkscape:current-layer="g2964"
     inkscape:pagecheckerboard="0" />
  <g
     id="g830"
     transform="matrix(0.13333333,0,0,-0.13333333,11.080295,767.89123)">
    <g
       id="g2964"
       transform="matrix(-2.3108466,0,0,2.1400048,8558.76,-1089.8715)">
      <path
         d="m 3686.62,1961.6 c 16.82,75.66 26.33,155.54 26.14,241.58 -2.96,43.84 -7.63,85.73 -13.78,125.63 -15.81,1.71 -33.07,2.01 -52,-0.08 15.23,29.15 26.94,57.59 35.95,84.63 -55.93,246.24 -159.11,392.85 -310.92,392.85 149.03,-66.17 89.92,-328.51 80.88,-310.91 0,0 -8.41,69.9 -27.31,97.69 -29.95,-57.92 -254.57,-355.5 -287.8,-331.92 -15.19,36.73 -65.13,154.41 -65.13,154.41 0,0 -113.43,54.61 -170.15,81.93 l 194.31,-518.88 c 0,0 -56.52,78.12 -77.72,100.83 -82.18,-162.31 -61.13,-526.21 109.28,-753.17 -27.88,-9.92 -244.78,22.12 -206.97,-103.93 2.1,-23.1 160.51,23.55 247.4,39.61 39.95,7.39 92.22,15.32 55.33,55.02 -72.7,98.64 -64.5,327.83 -28.15,365.43 -34.37,-127.84 94.54,-329.81 94.54,-329.81 0,0 319.46,-30.98 319.46,3.15 0,128.67 -232.72,28.36 -266.95,68.27 114.19,73.62 213.86,176.41 282.12,335.07 -38.87,1.05 -139.7,27.31 -139.7,27.31 l 210.07,2.1 c 31.51,10.5 37.81,129.2 6.13,146.11 l -126.92,-9.77 111.89,36.85"
         style="mix-blend-mode:normal;fill:#000000;fill-opacity:0.584677;fill-rule:nonzero;stroke:none;filter:url(#filter9476)"
         id="path7956" />
      <path
         d="m 3035.39,2593.62 -244.23,589.68 -63.02,-10.5 c 16.86,-42.83 121.18,-302.86 246.6,-615.19 15.85,18.59 43.65,34.41 60.65,36.01 z m -329.04,528.21 c 0,0 -444.76,94.49 -842.69,-136.72 165.13,-61.47 195.04,-386.66 217.37,-437.38 221.13,220.55 819.51,120.08 819.51,120.08 -299.78,261.26 -198.61,445.37 -194.19,454.02 z m -581.03,-590.2 c 0,0 324.23,25.59 587.31,-97.35 86.86,138.25 15.4,197.62 15.4,197.62 0,0 -357.71,58.83 -602.71,-100.27 z m 278.97,-47.87 c 58.2,-81.93 28.97,-128.15 28.97,-128.15 143.81,50.42 268.1,31.51 268.1,31.51 -69.9,50.42 -230.08,90.33 -297.07,96.64 z m 614.1,-34.85 c 209.65,-521.99 455.09,-1132.54 455.09,-1132.54 l 90.75,0.42 -527.8526,1276.0443 c -15.98,-8.99 -31.01,-17.51 -47.87,-25.15 -5.22,-2.36 35.1726,-116.4443 29.8826,-118.7743"
         style="mix-blend-mode:normal;fill:#000000;fill-opacity:0.584677;fill-rule:nonzero;stroke:none;filter:url(#filter9472)"
         id="path7958"
         sodipodi:nodetypes="cccccccccccccccccccccccc" />
      <path
         d="m 3091.65,2515.86 c -7.77,-2.79 -26.61,-11.4 -47.2,-22.08 14.82,10.25 29.59,20.87 42.6,29.2 7.46,24.43 -11.45,45.44 -21.4,45.11 -18.68,-7.27 -40.55,-19.32 -59.75,-32.98 l -0.07,0.32 c 16.3,15.77 35.68,32.36 56.15,41.93 -16.39,68.64 -47.16,41.77 -88.2,-1.56 -40.08,-11.17 -92.28,-30.67 -79.69,-67.89 14.78,-43.68 71.43,-56.71 94.54,-151.25 41.73,6.73 50.59,39.58 47.05,73.91 18.1,6.84 40.45,16.46 68.26,29.79 10.31,11.84 9.05,47.13 -12.29,55.5"
         style="mix-blend-mode:normal;fill:#000000;fill-opacity:0.584677;fill-rule:nonzero;stroke:none;filter:url(#filter9468)"
         id="path7960" />
      <path
         d="m 3686.62,1961.6 c 16.82,75.66 26.33,155.54 26.14,241.58 -2.96,43.84 -7.63,85.73 -13.78,125.63 -15.81,1.71 -33.07,2.01 -52,-0.08 15.23,29.15 26.94,57.59 35.95,84.63 -55.93,246.24 -159.11,392.85 -310.92,392.85 149.03,-66.17 89.92,-328.51 80.88,-310.91 0,0 -8.41,69.9 -27.31,97.69 -29.95,-57.92 -254.57,-355.5 -287.8,-331.92 -15.19,36.73 -65.13,154.41 -65.13,154.41 0,0 -113.43,54.61 -170.15,81.93 l 194.31,-518.88 c 0,0 -56.52,78.12 -77.72,100.83 -82.18,-162.31 -61.13,-526.21 109.28,-753.17 -27.88,-9.92 -244.78,22.12 -206.97,-103.93 2.1,-23.1 160.51,23.55 247.4,39.61 39.95,7.39 92.22,15.32 55.33,55.02 -72.7,98.64 -64.5,327.83 -28.15,365.43 -34.37,-127.84 94.54,-329.81 94.54,-329.81 0,0 319.46,-30.98 319.46,3.15 0,128.67 -232.72,28.36 -266.95,68.27 114.19,73.62 213.86,176.41 282.12,335.07 -38.87,1.05 -139.7,27.31 -139.7,27.31 l 210.07,2.1 c 31.51,10.5 37.81,129.2 6.13,146.11 l -126.92,-9.77 111.89,36.85"
         style="fill:#95c11e;fill-opacity:1;fill-rule:nonzero;stroke:none"
         id="path832" />
      <path
         d="m 3533.13,2106.57 c -189.5,-110.29 -219.96,35.71 -227.32,89.38 45.81,-68.79 85.09,-125.09 227.32,-89.38"
         style="fill:#ffffff;fill-opacity:1;fill-rule:nonzero;stroke:none"
         id="path834" />
      <path
         d="m 3605.03,2227.53 c 0,-30.71 -24.89,-55.61 -55.6,-55.61 -30.71,0 -55.61,24.9 -55.61,55.61 0,30.71 24.9,55.6 55.61,55.6 30.71,0 55.6,-24.89 55.6,-55.6"
         style="fill:#ffffff;fill-opacity:1;fill-rule:nonzero;stroke:none"
         id="path836" />
      <path
         d="m 3567.77,2212.09 c 0,15.36 -12.45,27.81 -27.81,27.81 -15.35,0 -27.8,-12.45 -27.8,-27.81 0,-15.35 12.45,-27.8 27.8,-27.8 15.36,0 27.81,12.45 27.81,27.8"
         style="fill:#000000;fill-opacity:1;fill-rule:nonzero;stroke:none"
         id="path838" />
      <path
         d="m 3410.72,2282.15 c 0,-30.71 -24.9,-55.61 -55.61,-55.61 -30.71,0 -55.6,24.9 -55.6,55.61 0,30.71 24.89,55.6 55.6,55.6 30.71,0 55.61,-24.89 55.61,-55.6"
         style="fill:#ffffff;fill-opacity:1;fill-rule:nonzero;stroke:none"
         id="path840" />
      <path
         d="m 3383.34,2261.42 c 0,15.35 -12.44,27.8 -27.8,27.8 -15.35,0 -27.8,-12.45 -27.8,-27.8 0,-15.36 12.45,-27.8 27.8,-27.8 15.36,0 27.8,12.44 27.8,27.8"
         style="fill:#000000;fill-opacity:1;fill-rule:nonzero;stroke:none"
         id="path842" />
      <path
         d="m 3035.39,2593.62 -244.23,589.68 -63.02,-10.5 c 16.86,-42.83 121.18,-302.86 246.6,-615.19 15.85,18.59 43.65,34.41 60.65,36.01 z m -329.04,528.21 c 0,0 -444.76,94.49 -842.69,-136.72 165.13,-61.47 195.04,-386.66 217.37,-437.38 221.13,220.55 819.51,120.08 819.51,120.08 -299.78,261.26 -198.61,445.37 -194.19,454.02 z m -581.03,-590.2 c 0,0 324.23,25.59 587.31,-97.35 86.86,138.25 15.4,197.62 15.4,197.62 0,0 -357.71,58.83 -602.71,-100.27 z m 278.97,-47.87 c 58.2,-81.93 28.97,-128.15 28.97,-128.15 143.81,50.42 268.1,31.51 268.1,31.51 -69.9,50.42 -230.08,90.33 -297.07,96.64 z m 614.1,-34.85 c 209.65,-521.99 455.09,-1132.54 455.09,-1132.54 l 90.75,0.42 -527.8526,1276.0443 c -15.98,-8.99 -31.01,-17.51 -47.87,-25.15 -5.22,-2.36 35.1726,-116.4443 29.8826,-118.7743"
         style="fill:#658215;fill-opacity:1;fill-rule:nonzero;stroke:none"
         id="path850"
         sodipodi:nodetypes="cccccccccccccccccccccccc" />
      <path
         d="m 3265.86,1771.6 c 16.45,-1.09 114.55,53.74 114.55,53.74 -3.64,33.1 -102.71,23.7 -133.15,16.67 -25.19,-1.78 8.96,-62.73 18.6,-70.41"
         style="mix-blend-mode:normal;fill:#000000;fill-opacity:0.124498;fill-rule:nonzero;stroke:none;filter:url(#filter5531)"
         id="path852"
         transform="matrix(0.92288862,0,0,1.0063431,260.66809,-12.403446)" />
      <path
         d="m 3241.35,1810.24 c 16.45,-1.1 114.55,53.74 114.55,53.74 -3.64,33.1 -102.71,23.69 -133.15,16.67 -25.19,-1.79 8.96,-62.73 18.6,-70.41"
         style="mix-blend-mode:normal;fill:#000000;fill-opacity:0.124498;fill-rule:nonzero;stroke:none;filter:url(#filter5527)"
         id="path854"
         transform="matrix(0.92288862,0,0,1.0063431,260.66809,-12.403446)" />
      <path
         d="m 3223.21,1878.17 c 16.44,-1.1 114.54,53.74 114.54,53.74 -3.63,33.1 -102.71,23.69 -133.14,16.67 -25.2,-1.79 8.96,-62.73 18.6,-70.41"
         style="mix-blend-mode:normal;fill:#000000;fill-opacity:0.124498;fill-rule:nonzero;stroke:none;filter:url(#filter5523)"
         id="path856"
         transform="matrix(0.92288862,0,0,1.0063431,260.66809,-12.403446)" />
      <path
         d="m 3286.93,1984.83 c 18.91,-5.25 46.22,-26.26 46.22,-26.26 l -35.72,2.1 -10.5,24.16"
         style="fill:#86ad1a;fill-opacity:1;fill-rule:nonzero;stroke:none"
         id="path858" />
      <path
         d="m 3357.79,1863.4 c 13.48,4.52 22.68,10.75 22.62,20.43 -0.06,11.25 -9.54,18.07 -23.31,22.15 0.28,0.07 0.91,0.02 1.13,0.1 21.55,8.08 55.34,47.19 34.78,54.59 -19.46,10.99 -12.82,-4.32 -36.76,-5.25 -85.08,6.83 -165.95,32.56 -124.99,-49.37 22.37,5.98 48.63,5.59 71.66,3.87 -23.96,-1.78 -49.11,-6.75 -68.51,-13.32 -1.05,-9.45 5.25,-34.66 12.6,-48.31 15.22,1.96 33.25,3.32 51.08,4.97 -22.5,-5.05 -42.32,-10.54 -50.03,-13.38 0.01,-19.96 17.86,-49.36 26.26,-50.41 163.86,42.01 134.67,64.62 114.12,72.02 -5.26,2.98 -16.69,3.17 -30.65,1.91"
         style="fill:#95c11e;fill-opacity:1;fill-rule:nonzero;stroke:none"
         id="path860" />
      <path
         d="m 3091.65,2515.86 c -7.77,-2.79 -26.61,-11.4 -47.2,-22.08 14.82,10.25 29.59,20.87 42.6,29.2 7.46,24.43 -11.45,45.44 -21.4,45.11 -18.68,-7.27 -40.55,-19.32 -59.75,-32.98 l -0.07,0.32 c 16.3,15.77 35.68,32.36 56.15,41.93 -16.39,68.64 -47.16,41.77 -88.2,-1.56 -40.08,-11.17 -92.28,-30.67 -79.69,-67.89 14.78,-43.68 71.43,-56.71 94.54,-151.25 41.73,6.73 50.59,39.58 47.05,73.91 18.1,6.84 40.45,16.46 68.26,29.79 10.31,11.84 9.05,47.13 -12.29,55.5"
         style="fill:#95c11e;fill-opacity:1;fill-rule:nonzero;stroke:none"
         id="path862" />
    </g>
  </g>
</svg>
