<svg width="392" height="2880" viewBox="0 0 392 2880" fill="none" xmlns="http://www.w3.org/2000/svg">
<path fill-rule="evenodd" clip-rule="evenodd" d="M89.8219 126.087C83.2055 158.505 83.8907 192.69 97.9603 236.817C99.2321 240.806 100.516 242.819 101.255 243.722C101.845 244.442 102.147 244.551 102.227 244.579L102.238 244.583C102.717 244.768 105.912 245.598 114.158 242.725C130.997 236.858 153.254 221.375 179.331 202.069C182.156 199.977 185.025 197.841 187.925 195.682L187.925 195.682C210.049 179.214 234.033 161.361 255.068 150.737C266.889 144.768 280.596 139.552 294.314 139.744C310.061 139.966 324.082 147.352 332.929 162.288C344.818 182.36 352.167 211.758 357.131 243.281C362.207 275.523 365.178 312.797 366.914 350.488C369.686 410.653 369.36 473.343 369.117 520.07C369.056 531.821 369 542.562 369 552C369 576.299 366.269 595.792 357.614 609.531C352.841 617.108 346.458 622.661 338.794 626.09C331.552 629.331 324.31 630.159 318.425 630.306C312.991 630.442 307.349 629.995 302.797 629.634H302.796H302.795L302.01 629.572C296.912 629.17 292.568 628.853 288.235 628.912C280.059 629.023 272.911 630.475 265.748 635.275C246.439 648.216 241.214 652.91 236.529 663.941C230.786 677.463 226.69 699.322 219.013 746.372C220.436 748.192 221.953 750.082 223.616 752.155L223.622 752.162L224.111 752.771L224.516 753.276C224.945 753.811 225.384 754.359 225.833 754.921C230.557 760.829 235.934 767.723 241.629 776.438C253.122 794.026 265.15 817.855 277.652 856.118C302.45 932.008 329.738 1066.69 357.872 1326.63C360.984 1355.38 360.947 1385.83 360.204 1415.54C359.945 1425.94 359.603 1436.16 359.267 1446.22L359.267 1446.22L359.267 1446.22C358.624 1465.47 358 1484.16 358 1502.5C358 1522.26 350.021 1541.55 340.437 1557.97C330.657 1574.73 317.935 1590.65 305.722 1604.18C293.437 1617.79 281.224 1629.46 272.117 1637.71C269.347 1640.21 266.851 1642.42 264.711 1644.28C264.325 1675.31 262.462 1703.67 259.877 1728.3C256.788 1757.71 252.642 1782.04 248.656 1799.36C248.682 1799.56 248.705 1799.75 248.726 1799.94C249.075 1803.08 248.971 1806.08 248.75 1808.59C248.466 1811.81 247.894 1815.21 247.173 1818.63L332.855 1786.87L348.145 1828.13L231.278 1871.44C225.939 1887.75 220.517 1904.61 216.416 1920.34C219.061 1921.3 221.765 1922.25 224.431 1923.14C229.132 1924.71 233.455 1926.03 236.997 1926.93C239.898 1927.66 241.43 1927.89 241.909 1927.97C242.099 1928 242.123 1928 242 1928C247.346 1928 251.456 1929.8 253.726 1931.01C256.147 1932.31 258.062 1933.81 259.406 1934.98C262.08 1937.3 264.432 1940.03 266.347 1942.45C270.277 1947.41 274.576 1953.95 278.932 1961.11C287.747 1975.61 298.184 1995.02 308.459 2015.41C328.784 2055.75 349.936 2102.85 357.038 2126.07C365.882 2154.98 358.134 2178.26 348.925 2196.97C346.402 2202.09 343.124 2208.06 340.188 2213.4L340.185 2213.41C338.458 2216.55 336.849 2219.48 335.583 2221.89C331.555 2229.57 328.542 2236.31 326.791 2243.04C325.787 2246.9 325.796 2254.54 328.714 2266.56C331.498 2278.02 336.363 2291.21 342.5 2304.85C354.822 2332.23 371.116 2358.88 381.999 2373.17C393.785 2388.64 393.138 2406.75 389.37 2421.24C385.612 2435.69 377.888 2450.29 369.839 2463.32C361.738 2476.42 352.329 2489.45 344.172 2500.74L344.169 2500.74L343.942 2501.06C335.363 2512.93 328.652 2522.27 324.636 2529.35C318.367 2540.41 308.431 2548.78 298.72 2555.05C288.761 2561.48 277.392 2566.75 266.275 2570.99C252.965 2576.05 239.11 2579.97 226.904 2582.66C228.723 2595.04 231.662 2610.45 234.966 2626.1C239.926 2649.59 245.218 2671.4 247.166 2679.43L247.381 2680.32C248.314 2684.17 251.428 2691.86 257.061 2702.65C262.451 2712.97 269.431 2724.78 277.048 2736.4C284.674 2748.03 292.735 2759.16 300.228 2768.2C308.07 2777.66 314.056 2783.31 317.479 2785.55C334.724 2796.69 366.025 2829.3 375.63 2880.98L332.37 2889.02C325.186 2850.36 301.68 2827.71 293.579 2822.49L293.536 2822.46L293.493 2822.43C284.245 2816.41 274.771 2806.43 266.353 2796.28C259.349 2787.83 252.19 2778.16 245.379 2768.19C226.488 2768.28 201.842 2767.3 178.759 2764.08C164.778 2762.13 150.585 2759.25 138.322 2754.94C126.863 2750.91 113.347 2744.38 105.077 2732.76C92.315 2714.83 81.9908 2687.48 75.5525 2663.28C72.2523 2650.88 69.7533 2638.49 68.4567 2627.52C67.2559 2617.36 66.725 2605.72 69.2515 2596.3C71.4266 2588.19 76.6509 2582.61 80.4027 2579.3C84.4589 2575.73 89.1783 2572.76 93.7261 2570.29C102.864 2565.34 114.195 2560.9 125.552 2557.07C143.916 2550.87 164.495 2545.55 180.854 2541.86C180.863 2539.59 180.877 2537.33 180.891 2535.09L180.905 2532.75C180.963 2523.68 181.018 2515.03 180.893 2506.89C180.871 2505.47 180.844 2504.08 180.811 2502.72C175.256 2502.37 169.453 2502.04 163.482 2501.7L163.288 2501.68L163.27 2501.68C149.042 2500.87 133.954 2500.01 120.12 2498.74C106.433 2497.47 92.7805 2495.7 81.8109 2492.77C76.3775 2491.32 70.4506 2489.29 65.2035 2486.21C60.2434 2483.31 52.9294 2477.71 49.9493 2467.89C49.3722 2465.99 47.3723 2461.55 43.3446 2454.33C39.5672 2447.57 34.7519 2439.66 29.5104 2431.34C25.1475 2424.41 20.309 2416.93 15.6743 2409.75L15.673 2409.75C9.68586 2400.49 4.03891 2391.75 0.196655 2385.42L37.8034 2362.58C41.5301 2368.72 46.4507 2376.32 51.9811 2384.87C56.5906 2391.99 61.6239 2399.77 66.7426 2407.89C72.1309 2416.45 77.4243 2425.11 81.7621 2432.88C84.7367 2438.21 87.7296 2443.93 89.9401 2449.29C90.7743 2449.57 91.8364 2449.9 93.1618 2450.26C100.379 2452.18 110.972 2453.7 124.172 2454.92C137.156 2456.12 151.517 2456.94 165.983 2457.77L166.311 2457.79C168.13 2457.89 169.952 2457.99 171.773 2458.1C163.413 2437.04 150.621 2403.27 138.965 2369.66C131.65 2348.57 124.685 2327.27 119.522 2309.06C114.648 2291.87 110.5 2274.55 110.5 2263C110.5 2236.18 118.651 2214.07 128.229 2194.44C132.099 2186.5 136.392 2178.61 140.479 2171.09C141.352 2169.49 142.215 2167.9 143.062 2166.34C145.216 2162.36 147.311 2158.44 149.327 2154.51C127.52 2136.98 100.376 2112.39 76.8672 2085.22C62.333 2068.43 48.7577 2050.16 38.7197 2031.54C28.7939 2013.13 21.5 1992.87 21.5 1972.5C21.5 1909.69 34.0295 1798.73 40.1856 1751.65L83.8143 1757.35C77.6371 1804.6 65.5 1912.91 65.5 1972.5C65.5 1982.73 69.3178 1995.58 77.4485 2010.66C85.4671 2025.53 96.8932 2041.12 110.138 2056.43C128.007 2077.08 148.403 2096.3 166.3 2111.47C171.234 2091.47 172.511 2068.1 166.445 2038.4C158.801 2000.98 162.681 1962.66 169.104 1929.78C173.959 1904.93 183.347 1876.35 191.112 1852.72C191.676 1851 192.231 1849.31 192.776 1847.65C197.295 1833.86 201 1822.31 203.182 1813.58C203.902 1810.7 204.363 1808.48 204.635 1806.85L202.382 1803.27L204.657 1794.16C207.87 1781.31 211.58 1761.67 214.633 1736.76C209.961 1733.52 204.028 1729.32 197.166 1724.26C179.952 1711.59 156.749 1693.48 132.883 1671.77C109.077 1650.12 84.2054 1624.52 63.9391 1596.82C43.8159 1569.31 27.2243 1538.37 21.8046 1506.15C12.1805 1448.92 13.026 1399.53 18.4033 1361.43C21.09 1342.39 24.9331 1325.99 29.2664 1312.72C33.4626 1299.87 38.5525 1288.6 44.4 1280.8C49.9934 1273.34 59.2583 1265.26 68.0313 1258.24C77.3328 1250.78 88.0608 1242.98 98.0787 1235.97C106.922 1229.79 115.373 1224.11 122.057 1219.7C114.855 1194.83 110.5 1167.58 110.5 1132.5C110.5 1069.69 115.973 1036.15 125.317 995.788C127.162 987.819 129.145 979.626 131.258 970.899L131.259 970.895L131.259 970.892C139.598 936.446 149.955 893.662 161.806 823.344C166.127 797.703 169.678 775.765 172.742 756.829L172.744 756.816L172.747 756.797L172.751 756.769C173.209 753.94 173.656 751.178 174.093 748.481C182.292 697.883 187.299 667.299 196.031 646.741C201.7 633.392 208.943 624.132 217.697 616.235C214.155 613.533 210.128 610.52 205.588 607.204C181.668 589.736 143.542 563.888 87.3784 530.982C17.8645 490.253 14.4317 409.607 23.4304 349.552C28.0972 318.407 36.4686 289.723 43.5884 268.964C47.1634 258.541 50.4598 250.009 52.8828 244.038C53.1351 243.416 53.3779 242.822 53.6108 242.256C39.7076 194.931 38.9347 155.387 46.7106 117.288C54.5418 78.9182 71.0002 42.6746 88.7879 3.5039L89.9677 0.90564L130.032 19.0944C111.269 60.4246 96.6403 92.6789 89.8219 126.087ZM218.058 2723.02L218.345 2723.56C207.357 2723 195.824 2722.03 184.841 2720.5C172.339 2718.75 161.332 2716.39 152.915 2713.43C148.735 2711.96 145.647 2710.5 143.51 2709.19C141.661 2708.05 141.001 2707.32 140.915 2707.23L140.905 2707.22C132.673 2695.64 124.005 2674.26 118.073 2651.97C115.185 2641.12 113.153 2630.82 112.153 2622.36C111.653 2618.12 111.441 2614.61 111.456 2611.86C111.458 2611.51 111.463 2611.18 111.472 2610.87C112.289 2610.34 113.348 2609.71 114.69 2608.98C120.604 2605.77 129.218 2602.27 139.624 2598.76C153.584 2594.04 169.299 2589.8 183.018 2586.53C185.125 2601.67 188.571 2619.35 191.915 2635.19C197.015 2659.34 202.437 2681.69 204.398 2689.77L204.619 2690.68C206.886 2700.03 212.143 2711.69 218.058 2723.02ZM84.638 284.912C78.1943 303.929 70.9709 329.202 66.9446 356.073C58.3183 413.643 65.6355 467.247 109.622 493.018C166.958 526.612 206.332 553.264 231.537 571.671C242.354 579.57 250.563 585.952 256.464 590.714C267.514 586.349 278.175 585.044 287.64 584.916C294.276 584.826 300.526 585.318 305.466 585.708C310.826 586.13 314.327 586.394 317.325 586.319C318.971 586.278 319.926 586.134 320.415 586.031C321.957 583.537 325 575.053 325 552C325 542.223 325.057 531.225 325.118 519.285V519.282V519.279C325.359 472.559 325.674 411.411 322.961 352.512C321.259 315.578 318.386 280.102 313.666 250.125C308.833 219.43 302.432 197.14 295.071 184.712C294.971 184.543 294.89 184.402 294.822 184.284C294.599 183.898 294.52 183.761 294.406 183.72C294.343 183.698 294.269 183.705 294.154 183.717C294.046 183.728 293.902 183.743 293.696 183.74C290.727 183.698 284.74 185.045 274.904 190.013C257.529 198.787 236.926 214.097 214.081 231.072L214.08 231.073C211.257 233.17 208.401 235.293 205.512 237.432C180.937 255.625 153.056 275.767 128.634 284.275C116.249 288.59 101.032 291.294 86.3638 285.62C85.78 285.394 85.2048 285.158 84.638 284.912ZM137.397 1262.35C132.983 1265.33 128.197 1268.6 123.299 1272.03C113.66 1278.77 103.793 1285.97 95.5398 1292.58C86.7576 1299.61 81.5065 1304.66 79.6 1307.2C77.9474 1309.4 74.6624 1315.44 71.0929 1326.38C67.6606 1336.89 64.3475 1350.74 61.9716 1367.57C57.2239 1401.22 56.3194 1446.08 65.1953 1498.85C69.0256 1521.63 81.3711 1546.13 99.4505 1570.84C117.387 1595.36 139.983 1618.75 162.489 1639.23C183.135 1658.01 203.364 1674.01 219.211 1685.84C220.173 1669.62 220.752 1652.25 220.784 1633.96C220.875 1582.39 216.615 1523.77 204.434 1463.35C186.796 1375.85 166.17 1328.64 148.228 1287.57L148.226 1287.57L148.224 1287.56C144.481 1279 140.855 1270.7 137.397 1262.35ZM224.874 2537.93C233.08 2535.85 241.989 2533.15 250.622 2529.86C259.931 2526.32 268.287 2522.33 274.848 2518.09C281.657 2513.69 285.033 2509.99 286.364 2507.65C291.718 2498.21 299.863 2486.93 307.703 2476.08L307.705 2476.08L308.276 2475.29C316.66 2463.68 325.213 2451.83 332.411 2440.18C339.737 2428.33 344.7 2418.19 346.786 2410.17C348.845 2402.25 347.241 2400.15 347.006 2399.84L347 2399.83C333.884 2382.62 315.928 2353.02 302.375 2322.9C295.575 2307.79 289.595 2291.92 285.958 2276.94C282.454 2262.52 280.463 2246.35 284.209 2231.96C287.208 2220.44 292.008 2210.24 296.62 2201.45C298.868 2197.17 300.807 2193.66 302.61 2190.41L302.612 2190.4C304.996 2186.1 307.142 2182.22 309.45 2177.53C316.366 2163.49 319.118 2152.52 314.962 2138.94C309.064 2119.65 289.467 2075.5 269.166 2035.21C259.129 2015.29 249.285 1997.05 241.334 1983.97C237.869 1978.27 235.014 1973.97 232.844 1971.06C230.449 1970.62 228.168 1970.08 226.172 1969.57C221.177 1968.31 215.725 1966.62 210.466 1964.86C209.697 1964.61 208.927 1964.34 208.157 1964.08C205.485 1986.26 205.263 2008.58 209.555 2029.6C220.734 2084.33 211.492 2123.86 196.979 2156.86C192.153 2167.83 186.8 2177.96 181.759 2187.28C181.077 2188.54 180.403 2189.78 179.739 2191L178.971 2192.42L178.97 2192.42L178.967 2192.42C174.903 2199.9 171.177 2206.75 167.775 2213.73C159.628 2230.43 154.5 2245.6 154.5 2263C154.5 2267.46 156.726 2278.97 161.853 2297.05C166.69 2314.11 173.35 2334.53 180.535 2355.24C194.914 2396.7 211.003 2438.26 217.799 2454.52C220.98 2462.13 222.539 2470.91 223.438 2479.06C224.368 2487.5 224.743 2496.82 224.888 2506.22C225.021 2514.86 224.962 2523.99 224.905 2532.95L224.89 2535.37L224.874 2537.93ZM263.601 1584.8C266.717 1581.59 269.893 1578.21 273.062 1574.69C284.153 1562.41 294.735 1548.99 302.433 1535.8C310.327 1522.27 314 1510.99 314 1502.5C314 1483.46 314.666 1463.45 315.323 1443.71C315.652 1433.83 315.979 1424.02 316.218 1414.44C316.95 1385.15 316.913 1357.1 314.128 1331.37C286.054 1071.99 259.132 941.101 235.828 869.784C226.068 839.914 217.059 820.873 209.077 807.389C207.854 814.789 206.562 822.539 205.194 830.656C193.062 902.637 182.312 947.033 173.953 981.55L173.952 981.554L173.951 981.558C171.876 990.128 169.948 998.089 168.183 1005.71C159.527 1043.1 154.5 1073.31 154.5 1132.5C154.5 1170.35 160.143 1196.69 168.896 1221.74C173.761 1235.67 179.978 1249.93 186.972 1265.98C205.295 1308.02 228.946 1362.29 247.566 1454.65C256.662 1499.77 261.551 1543.8 263.601 1584.8ZM109.25 2612.55C109.247 2612.55 109.266 2612.52 109.31 2612.48C109.334 2612.46 109.366 2612.43 109.406 2612.39C109.311 2612.49 109.254 2612.55 109.25 2612.55ZM87.3759 2448.2C87.3703 2448.2 87.3963 2448.22 87.4587 2448.26L87.4807 2448.27C87.418 2448.23 87.3815 2448.21 87.3759 2448.2Z" fill="#D0CD8B"/>
</svg>
